<?xml version="1.0" encoding="UTF-8"?> <!-- Generator: Adobe Illustrator 24.0.3, SVG Export Plug-In . SVG Version: 6.00 Build 0) --> <svg xmlns="http://www.w3.org/2000/svg" xmlns:xlink="http://www.w3.org/1999/xlink" id="Layer_1" x="0px" y="0px" viewBox="0 0 400 195" style="enable-background:new 0 0 400 195;" xml:space="preserve"> <style type="text/css"> .st0{fill:#FFFFFF;} .st1{fill:url(#SVGID_1_);} .st2{fill:url(#SVGID_2_);} .st3{fill:url(#SVGID_3_);} .st4{fill:url(#SVGID_4_);} .st5{fill:url(#SVGID_5_);} .st6{fill:url(#SVGID_6_);} .st7{fill:url(#SVGID_7_);} .st8{fill:url(#SVGID_8_);} .st9{fill:url(#SVGID_9_);} .st10{fill:url(#SVGID_10_);} .st11{fill:url(#SVGID_11_);} .st12{fill:#231F20;} .st13{fill:url(#SVGID_12_);} .st14{fill:url(#SVGID_13_);} .st15{fill:url(#SVGID_14_);} .st16{fill:url(#SVGID_15_);} .st17{fill:url(#SVGID_16_);} .st18{fill:url(#SVGID_17_);} .st19{fill:url(#SVGID_18_);} .st20{fill:url(#SVGID_19_);} .st21{fill:url(#SVGID_20_);} .st22{fill:url(#SVGID_21_);} .st23{fill:url(#SVGID_22_);} .st24{fill:url(#SVGID_23_);} .st25{fill:url(#SVGID_24_);} .st26{fill:url(#SVGID_25_);} .st27{fill:url(#SVGID_26_);} .st28{fill:url(#SVGID_27_);} .st29{fill:url(#SVGID_28_);} .st30{fill:url(#SVGID_29_);} .st31{fill:url(#SVGID_30_);} .st32{fill:url(#SVGID_31_);} .st33{fill:url(#SVGID_32_);} .st34{fill:url(#SVGID_33_);} .st35{fill:url(#SVGID_34_);} .st36{fill:url(#SVGID_35_);} .st37{fill:url(#SVGID_36_);} .st38{fill:url(#SVGID_37_);} .st39{fill:url(#SVGID_38_);} .st40{fill:url(#SVGID_39_);} .st41{fill:url(#SVGID_40_);} .st42{fill:url(#SVGID_41_);} .st43{fill:url(#SVGID_42_);} .st44{fill:url(#SVGID_43_);} .st45{fill:url(#SVGID_44_);} .st46{fill:url(#SVGID_45_);} .st47{fill:url(#SVGID_46_);} .st48{fill:url(#SVGID_47_);} .st49{fill:url(#SVGID_48_);} .st50{fill:url(#SVGID_49_);} .st51{fill:url(#SVGID_50_);} .st52{fill:url(#SVGID_51_);} .st53{fill:url(#SVGID_52_);} .st54{fill:url(#SVGID_53_);} .st55{fill:url(#SVGID_54_);} .st56{fill:url(#SVGID_55_);} .st57{fill:url(#SVGID_56_);} .st58{fill:url(#SVGID_57_);} .st59{fill:url(#SVGID_58_);} .st60{fill:url(#SVGID_59_);} .st61{fill:url(#SVGID_60_);} .st62{fill:url(#SVGID_61_);} .st63{fill:url(#SVGID_62_);} .st64{fill:url(#SVGID_63_);} .st65{fill:url(#SVGID_64_);} .st66{fill:url(#SVGID_65_);} .st67{fill:url(#SVGID_66_);} .st68{clip-path:url(#SVGID_68_);} .st69{fill:url(#SVGID_69_);} </style> <g> <path d="M11.8,170.6H13l8.2,17.7h-1.4l-2.2-4.9H7.2l-2.2,4.9H3.6L11.8,170.6z M17,182.2L12.4,172l-4.6,10.2H17z"></path> <path d="M24.2,183.3v-7.8h1.2v7.6c0,2.6,1.5,4.4,4.1,4.4c2.5,0,4.4-1.9,4.4-4.6v-7.4h1.2v12.8h-1.2v-2.4c-0.9,1.5-2.3,2.7-4.6,2.7 C26.1,188.6,24.2,186.4,24.2,183.3z"></path> <path d="M40.5,185v-8.4h-1.9v-1.1h1.9v-4.1h1.2v4.1h4.5v1.1h-4.5v8.3c0,1.8,1.1,2.5,2.6,2.5c0.6,0,1.2-0.1,1.9-0.5v1.2 c-0.7,0.3-1.3,0.5-2.1,0.5C42.1,188.5,40.5,187.5,40.5,185z"></path> <path d="M48.6,182L48.6,182c0-3.6,2.8-6.8,6.6-6.8c3.8,0,6.6,3.1,6.6,6.7v0.1c0,3.6-2.8,6.7-6.6,6.7 C51.4,188.6,48.6,185.6,48.6,182z M60.5,182L60.5,182c0-3.1-2.3-5.6-5.3-5.6c-3,0-5.2,2.5-5.2,5.5v0.1c0,3.1,2.3,5.6,5.3,5.6 C58.3,187.5,60.5,185,60.5,182z"></path> <path d="M65.6,175.5h1.2v2.3c0.8-1.3,2-2.6,4.3-2.6c2.2,0,3.6,1.3,4.3,2.8c0.8-1.4,2.2-2.8,4.6-2.8c3,0,4.9,2.1,4.9,5.3v7.8h-1.2 v-7.6c0-2.8-1.4-4.4-3.8-4.4c-2.2,0-4,1.7-4,4.5v7.5h-1.2v-7.7c0-2.7-1.5-4.3-3.7-4.3c-2.3,0-4.1,2-4.1,4.6v7.4h-1.2V175.5z"></path> <path d="M88.3,184.6L88.3,184.6c0-2.7,2.3-4.2,5.6-4.2c1.8,0,3,0.2,4.2,0.6v-0.6c0-2.6-1.6-3.9-4.2-3.9c-1.6,0-2.8,0.4-4,1 l-0.5-1.1c1.4-0.7,2.8-1.1,4.5-1.1c1.7,0,3.1,0.5,4,1.4c0.9,0.9,1.3,2,1.3,3.6v8h-1.2v-2.1c-0.9,1.2-2.5,2.4-4.9,2.4 C90.9,188.6,88.3,187.3,88.3,184.6z M98.2,183.5v-1.5c-1.1-0.3-2.5-0.6-4.3-0.6c-2.7,0-4.2,1.2-4.2,3v0.1c0,1.9,1.8,2.9,3.7,2.9 C95.9,187.5,98.2,185.9,98.2,183.5z"></path> <path d="M104.4,185v-8.4h-1.9v-1.1h1.9v-4.1h1.2v4.1h4.5v1.1h-4.5v8.3c0,1.8,1.1,2.5,2.6,2.5c0.6,0,1.2-0.1,1.9-0.5v1.2 c-0.7,0.3-1.3,0.5-2.1,0.5C106,188.5,104.4,187.5,104.4,185z"></path> <path d="M113.7,170.5h1.5v1.7h-1.5V170.5z M113.9,175.5h1.2v12.8h-1.2V175.5z"></path> <path d="M120,175.5h1.2v2.4c0.9-1.5,2.3-2.7,4.6-2.7c3.2,0,5.1,2.2,5.1,5.3v7.8h-1.2v-7.6c0-2.6-1.5-4.4-4.1-4.4 c-2.5,0-4.4,1.9-4.4,4.6v7.4H120V175.5z"></path> <path d="M135.1,190.4l0.7-1c1.5,1.2,3.3,1.8,5.2,1.8c2.9,0,5-1.7,5-5v-1.9c-1.1,1.6-2.8,3-5.4,3c-3.1,0-6.2-2.4-6.2-6v-0.1 c0-3.7,3.1-6.1,6.2-6.1c2.6,0,4.3,1.4,5.4,2.9v-2.6h1.2v10.8c0,1.9-0.6,3.3-1.6,4.3c-1.1,1.1-2.8,1.7-4.6,1.7 C138.9,192.4,136.9,191.7,135.1,190.4z M146.1,181.3L146.1,181.3c0-3-2.6-4.9-5.3-4.9c-2.7,0-4.9,1.9-4.9,4.8v0.1 c0,2.9,2.3,4.9,4.9,4.9C143.5,186.2,146.1,184.2,146.1,181.3z"></path> <path d="M159,179.6L159,179.6c0-5,3.7-9.1,8.8-9.1c3.1,0,5,1.2,6.8,2.8l-0.9,1c-1.5-1.5-3.3-2.6-5.9-2.6c-4.2,0-7.4,3.4-7.4,7.9 v0.1c0,4.4,3.2,7.9,7.4,7.9c2.5,0,4.3-1,6.1-2.7l0.9,0.9c-1.9,1.8-3.9,3.1-7,3.1C162.7,188.6,159,184.6,159,179.6z"></path> <path d="M177,182L177,182c0-3.6,2.8-6.8,6.6-6.8c3.8,0,6.6,3.1,6.6,6.7v0.1c0,3.6-2.8,6.7-6.6,6.7C179.8,188.6,177,185.6,177,182z M188.9,182L188.9,182c0-3.1-2.3-5.6-5.3-5.6c-3,0-5.2,2.5-5.2,5.5v0.1c0,3.1,2.3,5.6,5.3,5.6C186.7,187.5,188.9,185,188.9,182z"></path> <path d="M194,175.5h1.2v2.3c0.8-1.3,2-2.6,4.3-2.6c2.2,0,3.6,1.3,4.3,2.8c0.8-1.4,2.2-2.8,4.6-2.8c3,0,4.9,2.1,4.9,5.3v7.8h-1.2 v-7.6c0-2.8-1.4-4.4-3.8-4.4c-2.2,0-4,1.7-4,4.5v7.5H203v-7.7c0-2.7-1.5-4.3-3.7-4.3s-4.1,2-4.1,4.6v7.4H194V175.5z"></path> <path d="M217.8,175.5h1.2v2.9c1.1-1.7,2.7-3.2,5.3-3.2c3.1,0,6.2,2.5,6.2,6.7v0.1c0,4.2-3.1,6.7-6.2,6.7c-2.6,0-4.2-1.5-5.3-3.1 v6.8h-1.2V175.5z M229.2,182L229.2,182c0-3.4-2.3-5.6-5-5.6c-2.7,0-5.2,2.2-5.2,5.5v0.1c0,3.3,2.6,5.5,5.2,5.5 C226.9,187.4,229.2,185.4,229.2,182z"></path> <path d="M234.5,170h1.2v18.3h-1.2V170z"></path> <path d="M240.6,170.5h1.5v1.7h-1.5V170.5z M240.8,175.5h1.2v12.8h-1.2V175.5z"></path> <path d="M245.8,184.6L245.8,184.6c0-2.7,2.3-4.2,5.6-4.2c1.8,0,3,0.2,4.2,0.6v-0.6c0-2.6-1.6-3.9-4.2-3.9c-1.6,0-2.8,0.4-4,1 l-0.5-1.1c1.4-0.7,2.8-1.1,4.5-1.1c1.7,0,3.1,0.5,4,1.4c0.9,0.9,1.3,2,1.3,3.6v8h-1.2v-2.1c-0.9,1.2-2.5,2.4-4.9,2.4 C248.3,188.6,245.8,187.3,245.8,184.6z M255.7,183.5v-1.5c-1.1-0.3-2.5-0.6-4.3-0.6c-2.7,0-4.2,1.2-4.2,3v0.1 c0,1.9,1.8,2.9,3.7,2.9C253.4,187.5,255.7,185.9,255.7,183.5z"></path> <path d="M261.2,175.5h1.2v2.4c0.9-1.5,2.3-2.7,4.6-2.7c3.2,0,5.1,2.2,5.1,5.3v7.8H271v-7.6c0-2.6-1.5-4.4-4.1-4.4 c-2.5,0-4.4,1.9-4.4,4.6v7.4h-1.2V175.5z"></path> <path d="M275.8,182L275.8,182c0-3.6,2.9-6.8,6.5-6.8c2.4,0,3.9,1.1,5.1,2.4l-0.9,0.9c-1.1-1.1-2.4-2.1-4.3-2.1 c-2.9,0-5.2,2.4-5.2,5.5v0.1c0,3.1,2.3,5.6,5.3,5.6c1.8,0,3.2-0.9,4.3-2.1l0.9,0.8c-1.3,1.5-2.9,2.5-5.2,2.5 C278.6,188.6,275.8,185.6,275.8,182z"></path> <path d="M289.7,181.9L289.7,181.9c0-3.8,2.6-6.7,6.1-6.7c3.6,0,5.9,2.9,5.9,6.7c0,0.2,0,0.3,0,0.5h-10.6c0.2,3.2,2.5,5,5,5 c2,0,3.3-0.9,4.4-2l0.9,0.8c-1.3,1.4-2.8,2.4-5.3,2.4C292.7,188.6,289.7,185.9,289.7,181.9z M300.4,181.3c-0.2-2.6-1.7-5-4.6-5 c-2.5,0-4.5,2.1-4.7,5H300.4z"></path> <path d="M317.8,171.9h-6.1v-1.2h13.6v1.2h-6.1v16.4h-1.3V171.9z"></path> <path d="M324.7,182L324.7,182c0-3.6,2.8-6.8,6.6-6.8c3.8,0,6.6,3.1,6.6,6.7v0.1c0,3.6-2.8,6.7-6.6,6.7 C327.5,188.6,324.7,185.6,324.7,182z M336.6,182L336.6,182c0-3.1-2.3-5.6-5.3-5.6c-3,0-5.2,2.5-5.2,5.5v0.1c0,3.1,2.3,5.6,5.3,5.6 C334.4,187.5,336.6,185,336.6,182z"></path> <path d="M340.8,182L340.8,182c0-3.6,2.8-6.8,6.6-6.8c3.8,0,6.6,3.1,6.6,6.7v0.1c0,3.6-2.8,6.7-6.6,6.7 C343.6,188.6,340.8,185.6,340.8,182z M352.6,182L352.6,182c0-3.1-2.3-5.6-5.3-5.6c-3,0-5.2,2.5-5.2,5.5v0.1c0,3.1,2.3,5.6,5.3,5.6 C350.4,187.5,352.6,185,352.6,182z"></path> <path d="M357.9,170h1.2v18.3h-1.2V170z"></path> <path d="M364,170.5h1.5v1.7H364V170.5z M364.2,175.5h1.2v12.8h-1.2V175.5z"></path> <path d="M370.3,175.5h1.2v2.4c0.9-1.5,2.3-2.7,4.6-2.7c3.2,0,5.1,2.2,5.1,5.3v7.8H380v-7.6c0-2.6-1.5-4.4-4.1-4.4 c-2.5,0-4.4,1.9-4.4,4.6v7.4h-1.2V175.5z"></path> <path d="M385.4,190.4l0.7-1c1.5,1.2,3.3,1.8,5.2,1.8c2.9,0,5-1.7,5-5v-1.9c-1.1,1.6-2.8,3-5.3,3c-3.1,0-6.2-2.4-6.2-6v-0.1 c0-3.7,3.1-6.1,6.2-6.1c2.6,0,4.3,1.4,5.3,2.9v-2.6h1.2v10.8c0,1.9-0.6,3.3-1.6,4.3c-1.1,1.1-2.8,1.7-4.6,1.7 C389.1,192.4,387.2,191.7,385.4,190.4z M396.4,181.3L396.4,181.3c0-3-2.6-4.9-5.3-4.9c-2.7,0-4.9,1.9-4.9,4.8v0.1 c0,2.9,2.3,4.9,4.9,4.9C393.8,186.2,396.4,184.2,396.4,181.3z"></path> </g> <g> <linearGradient id="SVGID_1_" gradientUnits="userSpaceOnUse" x1="-196" y1="403.5" x2="-195" y2="403.5" gradientTransform="matrix(368.6013 127.8821 127.8821 -368.6013 20664.4297 173870.9375)"> <stop offset="0" style="stop-color:#FED401"></stop> <stop offset="0.2608" style="stop-color:#BECA4B"></stop> <stop offset="0.5217" style="stop-color:#85C28E"></stop> <stop offset="0.7407" style="stop-color:#5BBBBF"></stop> <stop offset="0.9066" style="stop-color:#41B7DE"></stop> <stop offset="1" style="stop-color:#37B6E9"></stop> </linearGradient> <polygon class="st1" points="211,142 211.1,142 211.1,142.1 211,142.1 "></polygon> </g> <g> <linearGradient id="SVGID_2_" gradientUnits="userSpaceOnUse" x1="-196" y1="403.5" x2="-195" y2="403.5" gradientTransform="matrix(368.6013 127.8821 127.8821 -368.6013 20664.4414 173870.9062)"> <stop offset="0" style="stop-color:#FED401"></stop> <stop offset="0.2608" style="stop-color:#BECA4B"></stop> <stop offset="0.5217" style="stop-color:#85C28E"></stop> <stop offset="0.7407" style="stop-color:#5BBBBF"></stop> <stop offset="0.9066" style="stop-color:#41B7DE"></stop> <stop offset="1" style="stop-color:#37B6E9"></stop> </linearGradient> <polygon class="st2" points="211.1,141.8 211.6,141.9 211.4,142.5 211,142.3 "></polygon> </g> <g> <linearGradient id="SVGID_3_" gradientUnits="userSpaceOnUse" x1="-196" y1="403.5" x2="-195" y2="403.5" gradientTransform="matrix(368.6013 127.8821 127.8821 -368.6013 20664.4551 173870.875)"> <stop offset="0" style="stop-color:#FED401"></stop> <stop offset="0.2608" style="stop-color:#BECA4B"></stop> <stop offset="0.5217" style="stop-color:#85C28E"></stop> <stop offset="0.7407" style="stop-color:#5BBBBF"></stop> <stop offset="0.9066" style="stop-color:#41B7DE"></stop> <stop offset="1" style="stop-color:#37B6E9"></stop> </linearGradient> <polygon class="st3" points="211.5,141.7 212,141.9 211.7,142.7 211.2,142.5 "></polygon> </g> <g> <linearGradient id="SVGID_4_" gradientUnits="userSpaceOnUse" x1="-196" y1="403.5" x2="-195" y2="403.5" gradientTransform="matrix(368.6013 127.8821 127.8821 -368.6013 20664.4668 173870.8281)"> <stop offset="0" style="stop-color:#FED401"></stop> <stop offset="0.2608" style="stop-color:#BECA4B"></stop> <stop offset="0.5217" style="stop-color:#85C28E"></stop> <stop offset="0.7407" style="stop-color:#5BBBBF"></stop> <stop offset="0.9066" style="stop-color:#41B7DE"></stop> <stop offset="1" style="stop-color:#37B6E9"></stop> </linearGradient> <polygon class="st4" points="211.8,141.6 212.4,141.8 212,143 211.4,142.8 "></polygon> </g> <g> <linearGradient id="SVGID_5_" gradientUnits="userSpaceOnUse" x1="-196" y1="403.5" x2="-195" y2="403.5" gradientTransform="matrix(368.6013 127.8821 127.8821 -368.6013 20664.4785 173870.7969)"> <stop offset="0" style="stop-color:#FED401"></stop> <stop offset="0.2608" style="stop-color:#BECA4B"></stop> <stop offset="0.5217" style="stop-color:#85C28E"></stop> <stop offset="0.7407" style="stop-color:#5BBBBF"></stop> <stop offset="0.9066" style="stop-color:#41B7DE"></stop> <stop offset="1" style="stop-color:#37B6E9"></stop> </linearGradient> <polygon class="st5" points="212.1,141.4 212.9,141.7 212.3,143.2 211.6,143 "></polygon> </g> <g> <linearGradient id="SVGID_6_" gradientUnits="userSpaceOnUse" x1="-196" y1="403.5" x2="-195" y2="403.5" gradientTransform="matrix(368.6013 127.8821 127.8821 -368.6013 20704.6621 173754.9688)"> <stop offset="0" style="stop-color:#FED401"></stop> <stop offset="0.2608" style="stop-color:#BECA4B"></stop> <stop offset="0.5217" style="stop-color:#85C28E"></stop> <stop offset="0.7407" style="stop-color:#5BBBBF"></stop> <stop offset="0.9066" style="stop-color:#41B7DE"></stop> <stop offset="1" style="stop-color:#37B6E9"></stop> </linearGradient> <polygon class="st6" points="205.7,10.2 205.8,10.2 205.7,10.3 205.6,10.3 "></polygon> </g> <g> <linearGradient id="SVGID_7_" gradientUnits="userSpaceOnUse" x1="-196" y1="403.5" x2="-195" y2="403.5" gradientTransform="matrix(368.6013 127.8821 127.8821 -368.6013 20664.4297 173870.9375)"> <stop offset="0" style="stop-color:#FED401"></stop> <stop offset="0.2608" style="stop-color:#BECA4B"></stop> <stop offset="0.5217" style="stop-color:#85C28E"></stop> <stop offset="0.7407" style="stop-color:#5BBBBF"></stop> <stop offset="0.9066" style="stop-color:#41B7DE"></stop> <stop offset="1" style="stop-color:#37B6E9"></stop> </linearGradient> <polygon class="st7" points="211,142 211.1,142 211.1,142.1 211,142.1 "></polygon> </g> <g> <linearGradient id="SVGID_8_" gradientUnits="userSpaceOnUse" x1="-196" y1="403.5" x2="-195" y2="403.5" gradientTransform="matrix(368.6013 127.8821 127.8821 -368.6013 20664.4414 173870.9062)"> <stop offset="0" style="stop-color:#FED401"></stop> <stop offset="0.2608" style="stop-color:#BECA4B"></stop> <stop offset="0.5217" style="stop-color:#85C28E"></stop> <stop offset="0.7407" style="stop-color:#5BBBBF"></stop> <stop offset="0.9066" style="stop-color:#41B7DE"></stop> <stop offset="1" style="stop-color:#37B6E9"></stop> </linearGradient> <polygon class="st8" points="211.1,141.8 211.6,141.9 211.4,142.5 211,142.3 "></polygon> </g> <g> <linearGradient id="SVGID_9_" gradientUnits="userSpaceOnUse" x1="-196" y1="403.5" x2="-195" y2="403.5" gradientTransform="matrix(368.6013 127.8821 127.8821 -368.6013 20664.4551 173870.875)"> <stop offset="0" style="stop-color:#FED401"></stop> <stop offset="0.2608" style="stop-color:#BECA4B"></stop> <stop offset="0.5217" style="stop-color:#85C28E"></stop> <stop offset="0.7407" style="stop-color:#5BBBBF"></stop> <stop offset="0.9066" style="stop-color:#41B7DE"></stop> <stop offset="1" style="stop-color:#37B6E9"></stop> </linearGradient> <polygon class="st9" points="211.5,141.7 212,141.9 211.7,142.7 211.2,142.5 "></polygon> </g> <g> <linearGradient id="SVGID_10_" gradientUnits="userSpaceOnUse" x1="-196" y1="403.5" x2="-195" y2="403.5" gradientTransform="matrix(368.6013 127.8821 127.8821 -368.6013 20664.4668 173870.8281)"> <stop offset="0" style="stop-color:#FED401"></stop> <stop offset="0.2608" style="stop-color:#BECA4B"></stop> <stop offset="0.5217" style="stop-color:#85C28E"></stop> <stop offset="0.7407" style="stop-color:#5BBBBF"></stop> <stop offset="0.9066" style="stop-color:#41B7DE"></stop> <stop offset="1" style="stop-color:#37B6E9"></stop> </linearGradient> <polygon class="st10" points="211.8,141.6 212.4,141.8 212,143 211.4,142.8 "></polygon> </g> <g> <linearGradient id="SVGID_11_" gradientUnits="userSpaceOnUse" x1="-196" y1="403.5" x2="-195" y2="403.5" gradientTransform="matrix(368.6013 127.8821 127.8821 -368.6013 20664.4785 173870.7969)"> <stop offset="0" style="stop-color:#FED401"></stop> <stop offset="0.2608" style="stop-color:#BECA4B"></stop> <stop offset="0.5217" style="stop-color:#85C28E"></stop> <stop offset="0.7407" style="stop-color:#5BBBBF"></stop> <stop offset="0.9066" style="stop-color:#41B7DE"></stop> <stop offset="1" style="stop-color:#37B6E9"></stop> </linearGradient> <polygon class="st11" points="212.1,141.4 212.9,141.7 212.3,143.2 211.6,143 "></polygon> </g> <g> <linearGradient id="SVGID_12_" gradientUnits="userSpaceOnUse" x1="60.7041" y1="79.4661" x2="400.0523" y2="157.6055"> <stop offset="0" style="stop-color:#FFD400"></stop> <stop offset="4.644090e-02" style="stop-color:#F1D30D"></stop> <stop offset="0.4046" style="stop-color:#8BC871"></stop> <stop offset="0.6931" style="stop-color:#40C0BA"></stop> <stop offset="0.8978" style="stop-color:#12BBE8"></stop> <stop offset="1" style="stop-color:#00B9F9"></stop> </linearGradient> <polygon class="st13" points="82,5.7 41.3,76.3 1.7,144.6 9,144.6 46.8,79.4 82,18.3 117.3,79.5 155.7,144.6 163,144.6 122.8,76.3 "></polygon> <linearGradient id="SVGID_13_" gradientUnits="userSpaceOnUse" x1="55.8602" y1="100.5025" x2="395.2084" y2="178.6419"> <stop offset="0" style="stop-color:#FFD400"></stop> <stop offset="4.644090e-02" style="stop-color:#F1D30D"></stop> <stop offset="0.4046" style="stop-color:#8BC871"></stop> <stop offset="0.6931" style="stop-color:#40C0BA"></stop> <stop offset="0.8978" style="stop-color:#12BBE8"></stop> <stop offset="1" style="stop-color:#00B9F9"></stop> </linearGradient> <path class="st14" d="M91.1,104.1c-1.2-1-2.4-2.1-3.6-3.2c0.6-0.6,1.3-1.1,1.9-1.7l-4-4.6c-0.8,0.7-1.7,1.5-2.5,2.2 C75.3,90.1,67.6,84,60.5,84c-1.5,0-3,0.2-4.3,0.5l1.5,6c0.9-0.2,1.8-0.3,2.8-0.3c4.8,0,11.4,5.3,17.8,10.9 c-6.3,5.7-13.6,12-16.9,12c-7.6,0-11.8-4-11.8-11.3l0,0l3.2,2.2l1.3-15.3l-13.9,6.5l3.7,2.6c-0.3,1.4-0.5,2.7-0.5,3.9 c0,10.6,7,17.5,17.9,17.5c5.7,0,13-6.4,21.5-14c1.5,1.4,3,2.7,4.5,4l-2.7,3.7l15.2,1.6l-6.2-14L91.1,104.1z"></path> <linearGradient id="SVGID_14_" gradientUnits="userSpaceOnUse" x1="58.122" y1="90.6801" x2="397.4701" y2="168.8195"> <stop offset="0" style="stop-color:#FFD400"></stop> <stop offset="4.644090e-02" style="stop-color:#F1D30D"></stop> <stop offset="0.4046" style="stop-color:#8BC871"></stop> <stop offset="0.6931" style="stop-color:#40C0BA"></stop> <stop offset="0.8978" style="stop-color:#12BBE8"></stop> <stop offset="1" style="stop-color:#00B9F9"></stop> </linearGradient> <path class="st15" d="M103.6,84c-1.7,0-3.5,0.5-5.6,1.5l-2.7-3.8l-6.3,14l15.2-1.5l-2.6-3.6c0.7-0.3,1.4-0.4,1.9-0.4 c9,0,13.1,5.7,13.1,11.4c0,7.4-6.5,11.4-11.1,11.4c-0.8,0-1.8-0.2-2.9-0.7l-2.3,5.7c1.8,0.7,3.6,1.1,5.2,1.1 c3.9,0,8.2-1.7,11.4-4.6c3.7-3.4,5.8-8,5.8-13C122.8,91.3,114.7,84,103.6,84z"></path> <linearGradient id="SVGID_15_" gradientUnits="userSpaceOnUse" x1="84.3639" y1="-23.285" x2="423.7121" y2="54.8543"> <stop offset="0" style="stop-color:#FFD400"></stop> <stop offset="4.644090e-02" style="stop-color:#F1D30D"></stop> <stop offset="0.4046" style="stop-color:#8BC871"></stop> <stop offset="0.6931" style="stop-color:#40C0BA"></stop> <stop offset="0.8978" style="stop-color:#12BBE8"></stop> <stop offset="1" style="stop-color:#00B9F9"></stop> </linearGradient> <path class="st16" d="M270.4,22.9l-0.2,0.2l-0.3,0.3l-0.3,0.3l-0.3,0.3l-0.3,0.3l-0.3,0.3l-0.3,0.3l-0.3,0.3l-0.3,0.3l-0.3,0.3 l-0.3,0.3l-0.3,0.3l-0.3,0.3l-0.3,0.3l-0.3,0.3l0.3,0.1l0.3,0.1l0.3,0.1l0.3,0.1l0.3,0.1l0.3,0.1l0.3,0.1l0.3,0.1l0.3,0.1l0.3,0.1 l0.3,0.1l0.3,0.1l0.3,0.1l0.3,0.1l0.3,0.1l0.3,0.1l0.3,0.1l0.3,0.1l0.3,0.1l0.3,0.1l0.3,0.1l0.3,0.1l0.3,0.1l0.3,0.1l0.3,0.1 l0.3,0.1l0.3,0.1l0.3,0.1l0.3,0.1l0.3,0.1l0.3,0.1l0.3,0.1L276,30l0.3,0.1l0.3,0.1l0.3,0.1l0.3,0.1l0.3,0.1l0.3,0.1l0.3,0.1 l0.3,0.1l0.3,0.1l0.3,0.1l0.3,0.1l0.3,0.1l0.3,0.1l0.3,0.1l0.3,0.1l0.3,0.1l0.3,0.1l0.3,0.1l0.3,0.1l0.3,0.1l0.3,0.1l0.3,0.1 L283,32l0.3,0.1l0.3,0.1l0.3,0.1l0.3,0.1l-0.3-1l-0.3-1.2l-0.3-1.2l-0.3-1.2l-0.3-1.2l-0.3-1.2l-0.3-1.2l-0.3-1.2l-0.3-1.2 l-0.3-1.2l-0.3-1.2l-0.3-1.2l-0.3-1.2l-0.3-1.2l-0.3-1.2l-0.2-0.7l-0.1,0.1l-0.3,0.3l-0.3,0.3l-0.3,0.3l-0.3,0.3l-0.3,0.3l-0.3,0.3 l-0.3,0.3l-0.3,0.3l-0.3,0.3l-0.3,0.3l-0.3,0.3l-0.3,0.3l-0.3,0.3l-0.3,0.3l-0.2,0.2C262.1,8.1,246.4,2.6,230.2,2.6 c-7.1,0-14.2,1-21.3,3.2l1.8,6C231.6,5.5,253.6,9.7,270.4,22.9z"></path> <linearGradient id="SVGID_16_" gradientUnits="userSpaceOnUse" x1="75.0462" y1="17.1808" x2="414.3943" y2="95.3201"> <stop offset="0" style="stop-color:#FFD400"></stop> <stop offset="4.644090e-02" style="stop-color:#F1D30D"></stop> <stop offset="0.4046" style="stop-color:#8BC871"></stop> <stop offset="0.6931" style="stop-color:#40C0BA"></stop> <stop offset="0.8978" style="stop-color:#12BBE8"></stop> <stop offset="1" style="stop-color:#00B9F9"></stop> </linearGradient> <path class="st17" d="M192.5,20.5l0.1,0.2l0.2,0.4l0.2,0.4l0.2,0.4l0.2,0.4l0.2,0.4l0.2,0.4l0.2,0.4l0.2,0.4l0.2,0.4l0.2,0.4 l0.2,0.4l0.2,0.4l0.2,0.4l0.1,0.2l0.1-0.1l0.2-0.3l0.2-0.3l0.2-0.3l0.2-0.3l0.2-0.3l0.2-0.3l0.2-0.3l0.2-0.3l0.2-0.3l0.2-0.3 l0.2-0.3l0.2-0.3l0.2-0.3l0.2-0.3l0.2-0.3l0.2-0.3l0.2-0.3l0.2-0.3l0.2-0.3l0.2-0.3l0.2-0.3l0.2-0.3l0.2-0.3l0.2-0.3l0.2-0.3 l0.2-0.3l0.2-0.3l0.2-0.3l0.2-0.3l0.2-0.3l0.2-0.3l0.2-0.3l0.2-0.3l0.2-0.3l0.2-0.3l0.2-0.3l0.2-0.3l0.2-0.3l0.2-0.3l0.2-0.3 l0.2-0.3l0.2-0.3l0.2-0.3l0.2-0.3l0.2-0.3l0.2-0.3l0.2-0.3l0.2-0.3l0.2-0.3l0.2-0.3l0.2-0.3l0.2-0.3l0.2-0.3l0.1-0.1l-0.1,0l-0.2,0 l-0.2,0l-0.2,0l-0.2,0l-0.2,0l-0.2,0l-0.2,0l-0.2,0l-0.2,0l-0.2,0l-0.2,0l-0.2,0l-0.2,0l-0.2,0l-0.2,0l-0.2,0l-0.2,0l-0.2,0l-0.2,0 l-0.2,0l-0.2,0l-0.2,0l-0.2,0l-0.2,0l-0.2,0l-0.2,0l-0.2,0l-0.2,0l-0.2,0l-0.2,0l-0.2,0l-0.2,0l-0.2,0l-0.2,0l-0.2,0l-0.2,0l-0.2,0 l-0.2,0l-0.2,0l-0.2,0l-0.2,0l-0.2,0l-0.2,0l-0.2,0l-0.2,0l-0.2,0l-0.2,0l-0.2,0l-0.2,0l-0.2,0l-0.2,0l-0.2,0l-0.2,0l-0.2,0l-0.2,0 l-0.2,0l-0.2,0l-0.2,0l-0.2,0l-0.2,0l-0.2,0l-0.2,0l-0.2,0l-0.2,0l-0.2,0l-0.2,0l-0.2,0l-0.2,0l-0.2,0l-0.2,0l-0.2,0l-0.2,0l-0.2,0 l-0.2,0l-0.2,0l-0.2,0l-0.2,0l-0.2,0l-0.2,0l-0.2,0l-0.2,0l-0.2,0l-0.2,0l-0.2,0l-0.2,0l-0.2,0l-0.2,0l-0.2,0l-0.2,0l-0.2,0l-0.2,0 l-0.2,0l-0.2,0l-0.2,0l-0.2,0l-0.2,0l-0.2,0l0.2,0.3l0.2,0.4l0.2,0.4l0.2,0.4l0.2,0.4l0.2,0.4l0.2,0.4l0.2,0.4l0.2,0.4l0.2,0.4 l0.2,0.4l0.2,0.4l0.2,0.4l0.2,0.4l0.2,0.3c-19.7,12.9-31.8,34.5-32.4,58.4l6.3,0.2C164.1,51.8,174.9,32.2,192.5,20.5z"></path> <linearGradient id="SVGID_17_" gradientUnits="userSpaceOnUse" x1="60.0012" y1="82.5189" x2="399.3493" y2="160.6582"> <stop offset="0" style="stop-color:#FFD400"></stop> <stop offset="4.644090e-02" style="stop-color:#F1D30D"></stop> <stop offset="0.4046" style="stop-color:#8BC871"></stop> <stop offset="0.6931" style="stop-color:#40C0BA"></stop> <stop offset="0.8978" style="stop-color:#12BBE8"></stop> <stop offset="1" style="stop-color:#00B9F9"></stop> </linearGradient> <path class="st18" d="M166.2,93.8L166.2,93.8l0.3,0l0.2,0l0.2,0l0.2,0l0.2,0l0.2,0l0.2,0l0.2,0l0.2,0l0.2,0l0.2,0l0.2,0l0.2,0 l0.2,0l0.2,0l0.2,0l0.2,0l0.2,0l0.2,0l0.2,0l0.2,0l0.2,0l0.2,0l0.2,0l0.2,0l0.2,0l0.2,0l0.2,0l0.2,0l0.2,0l0.1,0l-0.1-0.1l-0.2-0.2 l-0.2-0.2l-0.2-0.2l-0.2-0.2l-0.2-0.2l-0.2-0.2l-0.2-0.2l-0.2-0.2l-0.2-0.2l-0.2-0.2L170,90l-0.2-0.2l-0.2-0.2l-0.2-0.2l-0.2-0.2 l-0.2-0.2l-0.2-0.2l-0.2-0.2l-0.2-0.2l-0.2-0.2l-0.2-0.2l-0.2-0.2l-0.2-0.2l-0.2-0.2l-0.2-0.2l-0.2-0.2l-0.2-0.2l-0.2-0.2l-0.2-0.2 l-0.2-0.2L166,85l-0.2-0.2l-0.2-0.2l-0.2-0.2l-0.2-0.2l-0.2-0.2l-0.2-0.2l-0.2-0.2l-0.2-0.2l-0.2-0.2l-0.2-0.2l-0.2-0.2l-0.2-0.2 l-0.2-0.2l-0.2-0.2l-0.2-0.2l-0.2-0.2l-0.2-0.2l-0.2-0.2l-0.2-0.2l-0.2-0.2l-0.2-0.2l-0.2-0.2l-0.2-0.2l-0.2-0.2l-0.2-0.2l-0.2-0.2 l-0.2-0.2l-0.2-0.2l0,0l-0.2,0.5l-0.2,0.5l-0.2,0.5l-0.2,0.5l-0.2,0.5l-0.2,0.5l-0.2,0.5l-0.2,0.5l-0.2,0.5l-0.2,0.5l-0.2,0.5 l-0.2,0.5l-0.2,0.5l-0.2,0.5l-0.2,0.5l-4,10.1l4-0.6l0.2,0l0.2,0l0.2,0l0.2,0l0.2,0l0.2,0l0.2,0l0.2,0l0.2,0l0.2,0l0.2,0l0.2,0 c6.1,22.8,23.1,41,45.7,48.9l2.1-6C187.2,130.5,171.9,114.2,166.2,93.8z"></path> <linearGradient id="SVGID_18_" gradientUnits="userSpaceOnUse" x1="58.7867" y1="87.7934" x2="398.1348" y2="165.9328"> <stop offset="0" style="stop-color:#FFD400"></stop> <stop offset="4.644090e-02" style="stop-color:#F1D30D"></stop> <stop offset="0.4046" style="stop-color:#8BC871"></stop> <stop offset="0.6931" style="stop-color:#40C0BA"></stop> <stop offset="0.8978" style="stop-color:#12BBE8"></stop> <stop offset="1" style="stop-color:#00B9F9"></stop> </linearGradient> <path class="st19" d="M227.7,141.5L227.7,141.5l0.3-2l0.3-1.9l0.3-1.9l0.1-0.3l-0.1,0l-0.3,0.1l-0.3,0.1l-0.3,0.1l-0.3,0.1 l-0.3,0.1l-0.3,0.1l-0.3,0.1l-0.3,0.1l-0.3,0.1l-0.3,0.1l-0.3,0.1l-0.3,0.1l-0.3,0.1l-0.3,0.1l-0.3,0.1l-0.3,0.1l-0.3,0.1l-0.3,0.1 l-0.3,0.1l-0.3,0.1l-0.3,0.1l-0.3,0.1l-0.3,0.1l-0.3,0.1l-0.3,0.1l-0.3,0.1l-0.3,0.1l-0.3,0.1l-0.3,0.1l-0.3,0.1l-0.3,0.1l-0.3,0.1 l-0.3,0.1l-0.3,0.1l-0.3,0.1l-0.3,0.1l-0.3,0.1l-0.3,0.1l-0.3,0.1l-0.3,0.1l-0.3,0.1l-0.3,0.1l-0.3,0.1l-0.3,0.1l-0.3,0.1l-0.3,0.1 l-0.3,0.1l-0.3,0.1l-0.3,0.1l-0.3,0.1l-0.3,0.1l-0.3,0.1l-0.3,0.1l-0.3,0.1l-0.3,0.1l-0.3,0.1l-0.1,0l0.1,0.1l0.3,0.3l0.3,0.3 l0.3,0.3l0.3,0.3l0.3,0.3l0.3,0.3l0.3,0.3l0.3,0.3l0.3,0.3l0.3,0.3l0.3,0.3l0.3,0.3l0.3,0.3l0.3,0.3l0.3,0.3l0.3,0.3l0.3,0.3 l0.3,0.3l0.3,0.3l0.3,0.3l0.3,0.3l0.3,0.3l0.3,0.3l0.3,0.3l0.3,0.3l0.3,0.3l0.3,0.3l0.3,0.3l0.3,0.3l0.3,0.3l0.3,0.3l0.3,0.3 l0.3,0.3l0.3,0.3l0.3,0.3l0.3,0.3l0.3,0.3l0.3,0.3l0.3,0.3l0.3,0.3l0.3,0.3l0.3,0.3l0.3,0.3l0.3,0.3l0.3,0.3l0.3,0.3l0.1,0.1 l0.2-1.3l0.3-1.9l0.3-1.9l0.2-1.2c1.3,0.1,2.6,0.1,3.8,0.1c23.9,0,45.9-11.8,59.6-32.4l-5.3-3.5 C271.8,131.6,250.6,142.5,227.7,141.5z"></path> <linearGradient id="SVGID_19_" gradientUnits="userSpaceOnUse" x1="69.9425" y1="39.3453" x2="409.2906" y2="117.4846"> <stop offset="0" style="stop-color:#FFD400"></stop> <stop offset="4.644090e-02" style="stop-color:#F1D30D"></stop> <stop offset="0.4046" style="stop-color:#8BC871"></stop> <stop offset="0.6931" style="stop-color:#40C0BA"></stop> <stop offset="0.8978" style="stop-color:#12BBE8"></stop> <stop offset="1" style="stop-color:#00B9F9"></stop> </linearGradient> <path class="st20" d="M218.5,109l0.6,5c0.3,2.7,2.7,4.7,5.3,4.7h10.3c2.7,0,5-2.1,5.3-4.7l0.6-5c1.5-0.5,2.9-1.1,4.3-1.8l4,3.1 c2.1,1.6,5.2,1.5,7.1-0.4l7.2-7.2c1.9-1.9,2.1-5,0.4-7.1l-3.1-3.9c0.7-1.4,1.3-2.8,1.8-4.3l5-0.6c2.7-0.3,4.7-2.7,4.7-5.3V71 c0-2.7-2.1-5-4.7-5.4l-5-0.6c-0.5-1.5-1.1-2.9-1.8-4.3l3.1-3.9c1.7-2.1,1.5-5.2-0.4-7.1l-7.2-7.3c-1.9-1.9-5-2.1-7.1-0.4L245,45 c-1.4-0.7-2.8-1.3-4.3-1.8l-0.6-5c-0.3-2.7-2.7-4.7-5.3-4.7h-10.3c-2.7,0-5,2.1-5.3,4.7l-0.6,5c-1.5,0.5-2.9,1.1-4.3,1.8l-3.9-3.1 c-2.1-1.7-5.2-1.5-7.1,0.4l-7.3,7.3c-1.9,1.9-2.1,5-0.4,7.1l3.1,3.9c-0.7,1.4-1.3,2.9-1.8,4.3l-5,0.6c-2.7,0.3-4.8,2.7-4.8,5.3 v10.3c0,2.7,2.1,5,4.7,5.3l5,0.6c0.5,1.5,1.1,2.9,1.8,4.3l-3.1,4c-1.6,2.1-1.4,5.2,0.4,7.1l7.2,7.3c1.9,1.9,5,2.1,7.1,0.4l3.9-3.1 C215.5,107.9,217,108.5,218.5,109z M206.9,104.8l-6.1-6.1l5.2-6.6l-1.1-1.9c-1.2-2.1-2.2-4.4-2.8-6.8l-0.6-2.1l-8.3-1v-8.6l8.3-1 l0.6-2.1c0.6-2.4,1.6-4.7,2.8-6.8l1.1-1.9l-5.2-6.6l6.1-6.1l6.6,5.2l1.9-1.1c2.1-1.2,4.4-2.2,6.8-2.8l2.1-0.6l1-8.3h8.6l1,8.3 l2.1,0.6c2.4,0.6,4.7,1.6,6.8,2.8l1.9,1.1l6.6-5.2l6.1,6.1l-5.2,6.6l1.1,1.9c1.2,2.1,2.2,4.4,2.8,6.8l0.6,2.1l8.3,1v8.6l-8.3,1 l-0.6,2.1c-0.6,2.4-1.6,4.7-2.8,6.8l-1.1,1.9l5.2,6.6l-6.1,6.1l-6.6-5.2l-1.9,1.1c-2.1,1.2-4.4,2.2-6.8,2.8l-2.1,0.6l-1,8.3h-8.6 l-1-8.3l-2.1-0.6c-2.4-0.6-4.7-1.6-6.8-2.8l-1.9-1.1L206.9,104.8z"></path> <linearGradient id="SVGID_20_" gradientUnits="userSpaceOnUse" x1="69.9431" y1="39.3427" x2="409.2912" y2="117.482"> <stop offset="0" style="stop-color:#FFD400"></stop> <stop offset="4.644090e-02" style="stop-color:#F1D30D"></stop> <stop offset="0.4046" style="stop-color:#8BC871"></stop> <stop offset="0.6931" style="stop-color:#40C0BA"></stop> <stop offset="0.8978" style="stop-color:#12BBE8"></stop> <stop offset="1" style="stop-color:#00B9F9"></stop> </linearGradient> <path class="st21" d="M252.4,76.1c0-12.6-10.3-22.9-22.9-22.9c-12.6,0-22.9,10.3-22.9,22.9c0,12.6,10.3,22.9,22.9,22.9 C242.2,99,252.4,88.7,252.4,76.1z M213,76.1c0-9.1,7.4-16.6,16.6-16.6c9.1,0,16.6,7.4,16.6,16.6c0,9.1-7.4,16.6-16.6,16.6 C220.4,92.6,213,85.2,213,76.1z"></path> <linearGradient id="SVGID_21_" gradientUnits="userSpaceOnUse" x1="75.1292" y1="16.8199" x2="414.4774" y2="94.9593"> <stop offset="0" style="stop-color:#FFD400"></stop> <stop offset="4.644090e-02" style="stop-color:#F1D30D"></stop> <stop offset="0.4046" style="stop-color:#8BC871"></stop> <stop offset="0.6931" style="stop-color:#40C0BA"></stop> <stop offset="0.8978" style="stop-color:#12BBE8"></stop> <stop offset="1" style="stop-color:#00B9F9"></stop> </linearGradient> <rect x="345.8" y="15.2" class="st22" width="6.3" height="129.4"></rect> <linearGradient id="SVGID_22_" gradientUnits="userSpaceOnUse" x1="89.9693" y1="-47.6285" x2="429.3175" y2="30.5109"> <stop offset="0" style="stop-color:#FFD400"></stop> <stop offset="4.644090e-02" style="stop-color:#F1D30D"></stop> <stop offset="0.4046" style="stop-color:#8BC871"></stop> <stop offset="0.6931" style="stop-color:#40C0BA"></stop> <stop offset="0.8978" style="stop-color:#12BBE8"></stop> <stop offset="1" style="stop-color:#00B9F9"></stop> </linearGradient> <polygon class="st23" points="298.9,8.8 298.9,15.2 345.8,15.2 352.1,15.2 352.1,15.2 399,15.2 399,8.8 "></polygon> </g> </svg> 