<?xml version="1.0" encoding="utf-8"?>
<!-- Generator: Adobe Illustrator 23.0.3, SVG Export Plug-In . SVG Version: 6.00 Build 0)  -->
<svg version="1.1" id="Layer_1" xmlns="http://www.w3.org/2000/svg" xmlns:xlink="http://www.w3.org/1999/xlink" x="0px" y="0px"
	 viewBox="0 0 1000 211.41" style="enable-background:new 0 0 1000 211.41;" xml:space="preserve">
<style type="text/css">
	.st0{fill:#1DCAD3;}
	.st1{fill:#36B0C9;}
	.st2{fill:#231F20;}
	.st3{fill:#FFFFFF;}
	.st4{fill:#9164CC;}
	.st5{clip-path:url(#SVGID_2_);fill:url(#SVGID_3_);}
	.st6{fill:#201747;}
	.st7{fill-rule:evenodd;clip-rule:evenodd;fill:#10CFC9;}
	.st8{clip-path:url(#SVGID_5_);fill:#231F20;}
	.st9{fill-rule:evenodd;clip-rule:evenodd;fill:#231F20;}
	.st10{clip-path:url(#SVGID_7_);fill:#FFFFFF;}
	.st11{fill-rule:evenodd;clip-rule:evenodd;fill:#FFFFFF;}
	.st12{fill:#8CCEAF;}
	.st13{fill:#008476;}
	.st14{fill:#25BCBD;}
	.st15{fill:#004D70;}
	.st16{fill:#20BBBB;}
	.st17{fill:#024D70;}
	.st18{fill-rule:evenodd;clip-rule:evenodd;fill:#F58B1F;}
	.st19{fill-rule:evenodd;clip-rule:evenodd;fill:#18335B;}
	.st20{clip-path:url(#SVGID_9_);}
	.st21{clip-path:url(#SVGID_11_);}
	.st22{fill:#18335B;}
	.st23{fill:#F58B1F;}
	.st24{clip-path:url(#SVGID_15_);}
	.st25{clip-path:url(#SVGID_17_);}
	.st26{clip-path:url(#SVGID_21_);}
	.st27{clip-path:url(#SVGID_23_);}
	.st28{clip-path:url(#SVGID_27_);}
	.st29{clip-path:url(#SVGID_29_);}
	.st30{clip-path:url(#SVGID_33_);}
	.st31{clip-path:url(#SVGID_35_);}
	.st32{clip-path:url(#SVGID_39_);}
	.st33{clip-path:url(#SVGID_41_);}
	.st34{fill:#416BA9;}
	.st35{fill:#73C3D5;}
	.st36{opacity:0.8;}
	.st37{fill:#3A3A3A;}
	.st38{fill:url(#SVGID_44_);}
	.st39{fill:none;stroke:#000000;stroke-width:6.3384;}
	.st40{fill:none;stroke:#000000;stroke-width:3.1692;}
	.st41{fill:#48494B;}
	.st42{fill:#C1986C;}
	.st43{fill:url(#SVGID_63_);}
	.st44{fill:url(#SVGID_64_);}
	.st45{fill:url(#SVGID_65_);}
	.st46{fill:url(#SVGID_66_);}
	.st47{fill:url(#SVGID_67_);}
	.st48{fill:#4D4E4E;}
	.st49{fill:#27B373;}
	.st50{fill:#5DC4CD;}
	.st51{fill:#1E8756;}
	.st52{fill:#3D1152;}
	.st53{fill:#922C48;}
	.st54{fill-rule:evenodd;clip-rule:evenodd;fill:#922C48;}
	.st55{fill:#404041;}
	.st56{fill:#EC1C24;}
	.st57{fill:#373A36;}
	.st58{fill:#808184;}
	.st59{fill:#262261;}
	.st60{fill:#6FCBDC;}
	.st61{fill:#2F3436;}
	.st62{fill:#5F97D0;}
	.st63{fill:#132428;}
	.st64{fill:#85C041;}
	.st65{fill:#677784;}
	.st66{fill:url(#SVGID_68_);}
	.st67{opacity:0.2;clip-path:url(#SVGID_70_);}
	.st68{fill:#FFFEFA;}
	.st69{opacity:0.1;}
	.st70{fill:url(#SVGID_71_);}
	.st71{opacity:0.3;}
	.st72{opacity:0.08;}
	.st73{opacity:0.1;fill:url(#Wordmark_1_);}
	.st74{fill:url(#SVGID_104_);}
	.st75{opacity:0.6;fill:url(#SVGID_107_);}
	.st76{opacity:0.4;}
	.st77{fill:url(#SVGID_110_);}
	.st78{opacity:0.6;fill:url(#SVGID_113_);}
	.st79{fill:url(#SVGID_116_);}
	.st80{opacity:0.6;fill:url(#SVGID_119_);}
	.st81{fill:url(#SVGID_122_);}
	.st82{opacity:0.6;fill:url(#SVGID_125_);}
	.st83{fill:url(#SVGID_128_);}
	.st84{opacity:0.6;fill:url(#SVGID_131_);}
	.st85{fill:#221F1F;}
	.st86{fill:none;}
	.st87{fill:#00416B;}
	.st88{opacity:0.8;fill:url(#XMLID_323_);}
	.st89{fill:#4197CB;}
	.st90{fill:#003E52;}
	.st91{fill:#3F96B4;}
	.st92{fill:#B9DBE5;}
	.st93{opacity:0.3;fill:#231F20;}
	.st94{opacity:0.3;fill:#FFFFFF;}
	.st95{fill:#050013;}
	.st96{fill:#E87200;}
	.st97{fill:#FCB813;}
	.st98{fill:#3D3935;}
	.st99{fill:#FFB600;}
	.st100{fill:#FCB814;}
	.st101{fill:#F48120;}
	.st102{fill:#EF4E25;}
	.st103{fill:#ED3024;}
	.st104{fill:#E0592A;}
	.st105{fill:#00ADBB;}
	.st106{fill:#00829B;}
	.st107{fill:#93D500;}
	.st108{fill:#4D5A31;}
	.st109{fill:#6BA43A;}
	.st110{fill:#424143;}
	.st111{fill-rule:evenodd;clip-rule:evenodd;fill:#C7E6B4;}
	.st112{fill-rule:evenodd;clip-rule:evenodd;fill:#5A9891;}
	.st113{fill-rule:evenodd;clip-rule:evenodd;fill:#127870;}
	.st114{fill-rule:evenodd;clip-rule:evenodd;fill:#5CCFD5;}
	.st115{fill-rule:evenodd;clip-rule:evenodd;fill:#ACD5CD;}
	.st116{fill-rule:evenodd;clip-rule:evenodd;fill:#B5ECC9;}
	.st117{fill-rule:evenodd;clip-rule:evenodd;fill:#A1D683;}
	.st118{fill-rule:evenodd;clip-rule:evenodd;fill:#DEF0D3;}
	.st119{fill-rule:evenodd;clip-rule:evenodd;fill:#91B9B4;}
	.st120{fill-rule:evenodd;clip-rule:evenodd;fill:#006860;}
	.st121{fill-rule:evenodd;clip-rule:evenodd;fill:#00ADBB;}
	.st122{fill-rule:evenodd;clip-rule:evenodd;fill:#B4E7E9;}
	.st123{fill-rule:evenodd;clip-rule:evenodd;fill:#007565;}
	.st124{fill-rule:evenodd;clip-rule:evenodd;fill:#00CE7C;}
	.st125{fill-rule:evenodd;clip-rule:evenodd;fill:#5FD896;}
	.st126{fill:#007DA5;}
	.st127{fill:#313032;}
	.st128{fill:#24272A;}
	.st129{fill:#00AFAA;}
	.st130{fill:#66C9BA;}
	.st131{fill:#0069A7;}
	.st132{fill:#002F87;}
	.st133{fill:#8BC53F;}
	.st134{fill:#1A1A1A;}
	.st135{fill:#0095D6;}
	.st136{fill:#003F5F;}
	.st137{fill:#2D317C;}
	.st138{fill:#41BFBF;}
	.st139{fill:#293C97;}
	.st140{fill:#52C2BD;}
	.st141{fill:url(#SVGID_134_);}
	.st142{fill:url(#SVGID_135_);}
	.st143{fill:url(#SVGID_136_);}
	.st144{fill:#0DBEEA;}
	.st145{fill:#097EC2;}
	.st146{fill:#133C63;}
	.st147{fill:#3B91CF;}
	.st148{fill:#C8DEE8;}
	.st149{fill:#629BBA;}
	.st150{fill:#F8BE19;}
	.st151{fill:url(#SVGID_137_);}
	.st152{fill:url(#SVGID_138_);}
	.st153{fill:url(#SVGID_139_);}
	.st154{fill:#00233B;}
	.st155{fill:url(#SVGID_140_);}
	.st156{fill:url(#SVGID_141_);}
	.st157{fill:url(#SVGID_142_);}
	.st158{fill:url(#SVGID_143_);}
	.st159{fill:url(#SVGID_144_);}
	.st160{fill:url(#SVGID_145_);}
	.st161{fill:url(#SVGID_146_);}
	.st162{fill:url(#SVGID_147_);}
	.st163{fill:url(#SVGID_148_);}
	.st164{fill:url(#SVGID_149_);}
	.st165{fill:url(#SVGID_150_);}
	.st166{fill:url(#SVGID_151_);}
	.st167{fill:url(#SVGID_152_);}
	.st168{fill:url(#SVGID_153_);}
	.st169{fill:url(#SVGID_154_);}
	.st170{fill:url(#SVGID_155_);}
	.st171{fill:url(#SVGID_156_);}
	.st172{fill:url(#SVGID_157_);}
	.st173{fill:url(#SVGID_158_);}
	.st174{fill:url(#SVGID_159_);}
	.st175{fill:url(#SVGID_160_);}
	.st176{fill:url(#SVGID_161_);}
	.st177{fill:url(#SVGID_162_);}
	.st178{fill:url(#SVGID_163_);}
	.st179{fill:url(#SVGID_164_);}
	.st180{fill:url(#SVGID_165_);}
	.st181{fill:url(#SVGID_166_);}
	.st182{fill:url(#SVGID_167_);}
	.st183{fill:url(#SVGID_168_);}
	.st184{fill:url(#SVGID_169_);}
	.st185{fill:url(#SVGID_170_);}
	.st186{fill:url(#SVGID_171_);}
	.st187{fill:url(#SVGID_172_);}
	.st188{fill:url(#SVGID_173_);}
	.st189{fill:url(#SVGID_174_);}
	.st190{fill:url(#SVGID_175_);}
	.st191{fill:url(#SVGID_176_);}
	.st192{fill:url(#SVGID_177_);}
	.st193{fill:url(#SVGID_178_);}
	.st194{fill:#C31230;}
	.st195{fill:#807F82;}
	.st196{fill-rule:evenodd;clip-rule:evenodd;fill:#C31230;}
	.st197{fill-rule:evenodd;clip-rule:evenodd;fill:#807F82;}
	.st198{fill:#2D2D2D;}
	.st199{display:none;fill:#2D2D2D;}
	.st200{fill:#D11F3C;}
	.st201{fill:#E42C4C;stroke:#E42C4C;stroke-width:1.0503;stroke-miterlimit:10;}
	.st202{display:none;fill:#231F20;}
	.st203{display:none;fill:#FFFFFF;}
	.st204{fill:#FF7F30;}
	.st205{opacity:0.3;fill:#FF7F30;}
	.st206{opacity:0.6;fill:#FF7F30;}
	.st207{opacity:0.7;fill:#FF7F30;}
	.st208{fill:#221C35;}
	.st209{fill:#1B98D5;}
	.st210{fill:#173963;}
	.st211{fill:#009ADE;}
	.st212{fill:#003764;}
	.st213{fill:#2A7DE1;}
	.st214{opacity:0.4;clip-path:url(#XMLID_324_);fill:#221F1F;}
	.st215{fill:#002A3A;}
	.st216{fill:#0033A1;}
	.st217{fill:url(#SVGID_179_);}
	.st218{fill:url(#SVGID_180_);}
	.st219{fill:url(#SVGID_181_);}
	.st220{fill:url(#SVGID_182_);}
	.st221{fill:#007EC4;}
	.st222{fill-rule:evenodd;clip-rule:evenodd;fill:url(#SVGID_183_);}
	.st223{fill-rule:evenodd;clip-rule:evenodd;fill:#E6E7E8;}
	.st224{fill:#009345;}
	.st225{fill:#BBBCB8;}
	.st226{fill:#72C0EB;}
	.st227{fill:#939598;}
	.st228{fill-rule:evenodd;clip-rule:evenodd;fill:#2CB8EB;}
	.st229{fill:#2CB8EB;}
	.st230{fill:#81B83A;}
	.st231{fill-rule:evenodd;clip-rule:evenodd;fill:#81B83A;}
	.st232{enable-background:new    ;}
	.st233{fill:#FF6F3E;}
	.st234{fill:#12143D;}
	.st235{fill:url(#SVGID_184_);}
	.st236{fill:url(#SVGID_185_);}
	.st237{fill:url(#SVGID_186_);}
	.st238{fill:url(#SVGID_187_);}
	.st239{fill:url(#SVGID_188_);}
	.st240{fill:url(#SVGID_189_);}
	.st241{fill:url(#SVGID_190_);}
	.st242{fill:url(#SVGID_191_);}
	.st243{fill:url(#SVGID_192_);}
	.st244{fill:#7C51A0;}
	.st245{fill:#9F66A9;}
	.st246{fill:#9F80B9;}
	.st247{fill:url(#SVGID_193_);}
	.st248{fill:url(#SVGID_194_);}
	.st249{fill:url(#SVGID_195_);}
	.st250{fill:url(#SVGID_196_);}
	.st251{fill:#2D3136;}
	.st252{fill:#76777A;}
	.st253{fill:#A7A8A9;}
	.st254{fill:#0082CA;}
	.st255{fill:#FFB259;}
	.st256{fill:#385CAD;}
	.st257{fill:#7BA0C4;}
	.st258{fill:#EBA900;}
	.st259{fill:#929497;}
	.st260{opacity:0.7;fill:#FFFFFF;}
	.st261{fill:#016BAF;}
	.st262{fill:#343432;}
	.st263{fill:#6D6E70;}
	.st264{fill:#F4B01B;}
	.st265{fill:#293271;}
	.st266{fill:#A1D33C;}
	.st267{fill:#212322;}
	.st268{fill:#0047BA;}
	.st269{fill:#969CDE;}
	.st270{fill:#047BC1;}
	.st271{fill:url(#SVGID_197_);}
	.st272{fill:url(#SVGID_198_);}
	.st273{fill:url(#SVGID_199_);}
	.st274{fill:url(#SVGID_200_);}
	.st275{fill:url(#SVGID_201_);}
	.st276{fill:url(#SVGID_202_);}
	.st277{fill:url(#SVGID_203_);}
	.st278{fill:#13517C;}
	.st279{fill:#0077A6;}
	.st280{fill:none;stroke:#231F20;stroke-width:5.9036;stroke-miterlimit:10;}
	.st281{fill:#00A94F;}
	.st282{fill:none;stroke:#231F20;stroke-width:3.2172;stroke-miterlimit:10;}
	.st283{fill:#59595C;}
	.st284{opacity:0.349;fill:#F9AE19;}
	.st285{opacity:0.349;fill:#E99F22;}
	.st286{opacity:0.349;fill:#E47D25;}
	.st287{fill:#F9AE19;}
	.st288{fill:#E99F22;}
	.st289{fill:#F09B20;}
	.st290{fill:#E47D25;}
	.st291{fill:#E89223;}
	.st292{opacity:0.651;fill:#F9AE19;}
	.st293{fill:#E68825;}
	.st294{opacity:0.651;fill:#E99F22;}
	.st295{fill:#EB8D23;}
	.st296{opacity:0.7725;fill:#EF9B21;}
	.st297{opacity:0.651;fill:#E47D25;}
	.st298{opacity:0.7725;fill:#EA9622;}
	.st299{fill:url(#SVGID_204_);}
	.st300{fill:#55575B;}
	.st301{fill:#EE424E;}
	.st302{fill:#34424B;}
</style>
<g>
	<polygon class="st0" points="666.2,12.41 663.83,12.41 645.84,63.19 648.21,63.19 	"/>
	<polygon class="st1" points="678.92,32.72 681.06,32.72 680.6,24.89 686.73,28.96 687.71,27.04 680.89,23.76 687.77,20.47 
		686.73,18.56 680.6,22.62 681.06,14.92 678.92,14.92 679.38,22.62 673.25,18.56 672.21,20.47 679.09,23.76 672.21,27.04 
		673.25,28.96 679.38,24.89 	"/>
	<path class="st0" d="M77.05,12.24L3.25,198.7h4.46l24.95-61.72h92.97l25.21,61.72h4.46L81.51,12.24H77.05z M34.5,133.04
		L79.15,17.75l44.91,115.29H34.5z"/>
	<path class="st0" d="M714.14,44.67h19.37l4.22,10.87h2.43l-15.96-41.1h-0.69l-15.9,41.1h2.37L714.14,44.67z M722.7,22.5
		c0.52-1.37,1.1-3.47,1.16-3.64c0.06,0.18,0.58,2.27,1.16,3.7l7.69,19.95H715L722.7,22.5z"/>
	<path class="st0" d="M763.81,56.02c6.82,0,12.61-2.93,16.08-8.12l-1.79-1.31c-3.12,4.6-8.21,7.23-14.28,7.23
		c-10.12,0-17.7-7.95-17.7-18.58s7.58-18.58,17.7-18.58c6.25,0,10.93,2.63,13.82,6.87l1.79-1.37c-3.3-4.96-8.73-7.71-15.61-7.71
		c-11.1,0-20.13,8.42-20.13,20.79S752.71,56.02,763.81,56.02z"/>
	<path class="st0" d="M791.17,44.67h19.37l4.22,10.87h2.43l-15.96-41.1h-0.69l-15.9,41.1H787L791.17,44.67z M799.72,22.5
		c0.52-1.37,1.1-3.47,1.16-3.64c0.06,0.18,0.58,2.27,1.16,3.7l7.69,19.95h-17.7L799.72,22.5z"/>
	<path class="st0" d="M855.59,35.23c0-12.49-7.92-20.31-21.51-20.31h-8.39v40.62h8.39C847.72,55.54,855.59,47.72,855.59,35.23z
		 M828.06,53.33v-36.2h5.73c13.01,0,19.32,7.47,19.32,18.1s-6.3,18.1-19.32,18.1H828.06z"/>
	<polygon class="st0" points="888.61,53.39 867.21,53.39 867.21,36.19 885.66,36.19 885.66,34.03 867.21,34.03 867.21,17.07 
		887.8,17.07 887.8,14.92 864.84,14.92 864.84,55.54 888.61,55.54 	"/>
	<path class="st0" d="M900.23,23.28c0-1.43-0.12-3.52-0.12-3.52s1.16,2.03,2.14,3.35l13.65,18.76h0.64l13.82-18.76
		c1.04-1.37,2.14-3.35,2.14-3.35s-0.12,2.09-0.12,3.52v32.26h2.26v-41.1h-0.58l-17.75,24.14l-17.75-24.14h-0.58v41.1h2.26V23.28z"/>
	<path class="st0" d="M956.67,55.54h2.43V40.67l13.71-25.75h-2.49l-11.33,21.27c-0.52,0.96-1.04,2.33-1.04,2.45
		c-0.06-0.24-0.46-1.55-0.93-2.45l-11.39-21.27h-2.66l13.71,25.69V55.54z"/>
	<path class="st0" d="M168.13,65.13c-0.78-10.19,1.57-19.86,8.1-27.96c10.97-14.37,30.57-20.64,47.82-20.9
		c16.46-0.26,34.49,4.7,45.73,16.72c5.23,5.75,8.36,12.28,9.93,19.86l0.26,2.09l3.92-0.78l-0.26-2.09
		c-8.88-47.29-84.14-51.74-110.79-17.25c-6.79,8.88-9.67,19.6-8.62,30.57c4.7,68.2,107.92,18.55,119.67,72.9
		c7.58,36.32-26.91,56.96-58.79,56.96c-24.82,0-55.39-13.85-58.27-41.28l-0.26-1.83l-4.18,0.52l0.26,1.83
		c3.14,29.53,35.54,44.68,62.19,44.68c34.75,0,71.59-22.99,63.23-61.67C275.52,78.98,172.83,129.15,168.13,65.13z"/>
	<polygon class="st0" points="453.08,191.85 408.7,66.12 402.89,66.12 358.52,191.85 299.09,12.24 294.86,12.24 356.67,198.71 
		360.37,198.71 405.8,69.55 451.49,198.71 455.19,198.71 517,12.24 512.77,12.24 	"/>
	<path class="st0" d="M531,198.99H535v-91.37h85.49v-4.27H535v-87.1h96.72v-4.01H531C531,74.49,531,136.74,531,198.99z"/>
	<path class="st0" d="M671.11,117.31c0-5.62-3.07-9.08-9.43-12.07l-3.64-1.73c-4.86-2.33-6.82-4.3-6.82-8.36
		c0-4.12,2.72-6.87,7.34-6.87c4.34,0,6.59,2.27,8.21,4.96l1.85-1.25c-1.85-3.05-4.8-5.85-10.06-5.85c-5.32,0-9.66,3.46-9.66,9.08
		c0,5.14,2.72,7.83,8.21,10.45l3.64,1.73c5.49,2.63,8.04,5.2,8.04,9.92c0,5.14-4.22,8.24-9.37,8.24c-6.3,0-9.25-3.41-11.1-6.99
		l-2.02,1.02c1.91,4.06,5.73,8.13,13.19,8.13C666.26,127.71,671.11,123.65,671.11,117.31z"/>
	<path class="st0" d="M697.48,127.71c11.1,0,20.13-8.42,20.13-20.79s-9.02-20.79-20.13-20.79c-11.1,0-20.12,8.42-20.12,20.79
		S686.38,127.71,697.48,127.71z M697.48,88.34c10.12,0,17.7,7.95,17.7,18.58s-7.58,18.58-17.7,18.58c-10.12,0-17.7-7.95-17.7-18.58
		S687.36,88.34,697.48,88.34z"/>
	<polygon class="st0" points="729.23,108.83 747.85,108.83 747.85,106.62 729.23,106.62 729.23,88.76 749.76,88.76 749.76,86.61 
		726.86,86.61 726.86,127.23 729.23,127.23 	"/>
	<polygon class="st0" points="768.04,127.23 770.41,127.23 770.41,88.76 782.9,88.76 782.9,86.61 755.54,86.61 755.54,88.76 
		768.04,88.76 	"/>
	<path class="st0" d="M826.15,119.29c-0.35,1.08-0.69,2.75-0.69,2.93c-0.06-0.24-0.35-1.85-0.69-2.93l-11.28-33.16h-0.69
		l-11.28,33.16c-0.4,1.08-0.75,2.75-0.75,2.93c-0.06-0.24-0.35-1.85-0.64-2.93l-9.6-32.68h-2.54l12.32,41.1h0.64l11.51-33.69
		c0.35-1.14,0.64-2.69,0.69-2.93c0.06,0.36,0.29,1.85,0.64,2.93l11.45,33.69h0.64l12.32-41.1h-2.43L826.15,119.29z"/>
	<path class="st0" d="M846.39,116.36h19.37l4.22,10.87h2.43l-15.96-41.1h-0.69l-15.9,41.1h2.37L846.39,116.36z M854.95,94.19
		c0.52-1.37,1.1-3.47,1.16-3.64c0.06,0.18,0.58,2.27,1.16,3.7l7.69,19.95h-17.7L854.95,94.19z"/>
	<path class="st0" d="M905.09,98.55c0-7.89-5.38-11.95-13.65-11.95h-10.53v40.62h2.37v-16.79h8.15c0.93,0,1.79,0,2.66-0.12
		l9.54,16.91h2.83l-9.89-17.39C901.91,108.35,905.09,104.47,905.09,98.55z M891.21,108.29h-7.92V88.76h7.92
		c7.52,0,11.45,3.35,11.45,9.8C902.66,104.95,898.73,108.29,891.21,108.29z"/>
	<polygon class="st0" points="939.27,125.08 917.87,125.08 917.87,107.87 936.32,107.87 936.32,105.72 917.87,105.72 917.87,88.76 
		938.46,88.76 938.46,86.61 915.5,86.61 915.5,127.23 939.27,127.23 	"/>
	<polygon class="st0" points="646.54,198.58 648.91,198.58 648.91,180.18 667.53,180.18 667.53,177.97 648.91,177.97 648.91,160.11 
		669.44,160.11 669.44,157.95 646.54,157.95 	"/>
	<path class="st0" d="M695.29,157.48c-11.1,0-20.13,8.42-20.13,20.79c0,12.37,9.02,20.79,20.13,20.79c11.1,0,20.13-8.42,20.13-20.79
		C715.41,165.9,706.39,157.48,695.29,157.48z M695.29,196.85c-10.12,0-17.7-7.95-17.7-18.58c0-10.63,7.58-18.58,17.7-18.58
		s17.7,7.95,17.7,18.58C712.98,188.9,705.41,196.85,695.29,196.85z"/>
	<path class="st0" d="M748.43,184.9c0,7.83-4.51,12.01-10.93,12.01c-6.48,0-10.87-4.18-10.87-12.01v-26.94h-2.37v27.12
		c0,9.14,5.67,13.98,13.24,13.98c7.52,0,13.3-4.84,13.3-13.98v-27.12h-2.37V184.9z"/>
	<path class="st0" d="M789.78,190.81c0,1.19,0.17,3.05,0.17,3.05s-1.04-1.67-1.79-2.69L763,157.48h-0.69v41.1h2.2v-32.86
		c0-1.19-0.17-3.05-0.17-3.05s1.04,1.67,1.79,2.69l25.16,33.69h0.69v-41.1h-2.2V190.81z"/>
	<path class="st0" d="M812.27,157.95h-8.39v40.62h8.39c13.65,0,21.51-7.83,21.51-20.31C833.79,165.78,825.86,157.95,812.27,157.95z
		 M811.98,196.37h-5.73v-36.2h5.73c13.01,0,19.32,7.47,19.32,18.1C831.3,188.9,825,196.37,811.98,196.37z"/>
	<path class="st0" d="M853.22,157.48l-15.9,41.1h2.37l4.16-10.87h19.37l4.22,10.87h2.43l-15.96-41.1H853.22z M862.41,185.56h-17.7
		l7.69-20.01c0.52-1.37,1.1-3.46,1.16-3.64c0.06,0.18,0.58,2.27,1.16,3.7L862.41,185.56z"/>
	<polygon class="st0" points="870.28,160.11 882.77,160.11 882.77,198.58 885.14,198.58 885.14,160.11 897.63,160.11 897.63,157.95 
		870.28,157.95 	"/>
	<rect x="905.72" y="157.95" class="st0" width="2.37" height="40.62"/>
	<path class="st0" d="M937.7,157.48c-11.1,0-20.13,8.42-20.13,20.79c0,12.37,9.02,20.79,20.13,20.79c11.1,0,20.12-8.42,20.12-20.79
		C957.83,165.9,948.81,157.48,937.7,157.48z M937.7,196.85c-10.12,0-17.7-7.95-17.7-18.58c0-10.63,7.58-18.58,17.7-18.58
		s17.7,7.95,17.7,18.58C955.4,188.9,947.82,196.85,937.7,196.85z"/>
	<path class="st0" d="M994.55,157.95v32.86c0,1.19,0.17,3.05,0.17,3.05s-1.04-1.67-1.79-2.69l-25.16-33.69h-0.69v41.1h2.2v-32.86
		c0-1.19-0.17-3.05-0.17-3.05s1.04,1.67,1.79,2.69l25.16,33.69h0.69v-41.1H994.55z"/>
</g>
</svg>
