<?xml version="1.0" encoding="UTF-8"?>
<svg id="Layer_1" xmlns="http://www.w3.org/2000/svg" xmlns:xlink="http://www.w3.org/1999/xlink" version="1.1" viewBox="0 0 1000 325">
  <!-- Generator: Adobe Illustrator 29.3.0, SVG Export Plug-In . SVG Version: 2.1.0 Build 146)  -->
  <defs>
    <style>
      .st0 {
        fill: url(#linear-gradient2);
      }

      .st1 {
        fill: url(#linear-gradient1);
      }

      .st2 {
        fill: url(#linear-gradient3);
      }

      .st3 {
        fill: url(#linear-gradient6);
      }

      .st4 {
        fill: url(#linear-gradient7);
      }

      .st5 {
        fill: url(#linear-gradient5);
      }

      .st6 {
        fill: url(#linear-gradient4);
      }

      .st7 {
        fill: url(#linear-gradient);
      }

      .st8 {
        fill: #0f151f;
      }

      .st9 {
        fill: #00a5b2;
      }
    </style>
    <linearGradient id="linear-gradient" x1="32.255417" y1="48.681709" x2="276.5468855" y2="264.9397304" gradientUnits="userSpaceOnUse">
      <stop offset="0" stop-color="#eb0045"/>
      <stop offset=".0668586" stop-color="#db074c"/>
      <stop offset=".1958937" stop-color="#b41b5f"/>
      <stop offset=".374079" stop-color="#733b7f"/>
      <stop offset=".5924563" stop-color="#1c66aa"/>
      <stop offset=".6592675" stop-color="#0075b8"/>
      <stop offset="1" stop-color="#3fc1c9"/>
    </linearGradient>
    <linearGradient id="linear-gradient1" x1="32.304473" y1="48.6262939" x2="276.5959416" y2="264.8843152" xlink:href="#linear-gradient"/>
    <linearGradient id="linear-gradient2" x1="32.3348117" y1="48.5920224" x2="276.6262802" y2="264.8500438" xlink:href="#linear-gradient"/>
    <linearGradient id="linear-gradient3" x1="32.8056494" y1="48.0601501" x2="277.097118" y2="264.3181715" xlink:href="#linear-gradient"/>
    <linearGradient id="linear-gradient4" x1="-71.1937385" y1="165.5409402" x2="173.0977301" y2="381.7989615" xlink:href="#linear-gradient"/>
    <linearGradient id="linear-gradient5" x1="33.0571871" y1="47.7760058" x2="277.3486557" y2="264.0340271" xlink:href="#linear-gradient"/>
    <linearGradient id="linear-gradient6" x1="133.219782" y1="-65.3706292" x2="377.5112506" y2="150.8873921" xlink:href="#linear-gradient"/>
    <linearGradient id="linear-gradient7" x1="40.3736537" y1="39.5111083" x2="284.6651222" y2="255.7691297" xlink:href="#linear-gradient"/>
  </defs>
  <g>
    <path class="st8" d="M343.169983,116.1501751h5.2963901c11.959567,0,21.1855083-9.055106,21.1855083-21.014673v-3.7587159l-13.1555446-1.1959515v4.9546804c0,4.783832-3.5878805,8.5425479-8.3716865,8.5425479h-4.783806c-4.783806,0-8.3716865-3.7587159-8.3716865-8.5425479v-32.974227c0-4.783832,3.5878805-8.5425479,8.3716865-8.5425479h4.783806c4.783806,0,8.3716865,3.7587159,8.3716865,8.5425479v4.9546804l13.1555446-1.1959515v-3.7587159c0-11.959567-9.2259413-21.014673-21.1855083-21.014673h-5.2963901c-11.959567,0-21.1855083,9.055106-21.1855083,21.014673v32.974227c0,11.959567,9.2259413,21.014673,21.1855083,21.014673v-.0000261Z"/>
    <path class="st8" d="M409.8018565,41.1466021h-5.2963901c-11.959567,0-21.1855083,9.055106-21.1855083,21.014673v32.974227c0,11.959567,9.2259413,21.014673,21.1855083,21.014673h5.2963901c11.959567,0,21.1855083-9.055106,21.1855083-21.014673v-32.97424c0-11.959567-9.2259413-21.014673-21.1855083-21.01466ZM417.8318202,95.1355021c0,4.783832-3.5878805,8.5425479-8.3716865,8.5425479h-4.783806c-4.783806,0-8.3716865-3.7587159-8.3716865-8.5425479v-32.97424c0-4.783832,3.5878805-8.5425479,8.3716865-8.5425479h4.783806c4.783806,0,8.3716865,3.7587159,8.3716865,8.5425479v32.97424Z"/>
    <polygon class="st8" points="458.4943794 64.8948879 459.1777728 68.1410456 487.7099035 116.3210235 499.6694706 116.3210235 499.6694706 41.1466021 486.1722032 41.1466021 486.1722032 92.5727378 485.4888098 89.326567 456.7858698 41.1466021 444.9971641 41.1466021 444.9971641 116.3210235 458.4943794 116.3210235 458.4943794 64.8948879"/>
    <polygon class="st8" points="511.2873148 116.3210235 524.9553914 116.3210235 524.9553914 85.2261414 552.6332674 85.2261414 552.6332674 72.2414712 524.9553914 72.2414712 524.9553914 53.960424 559.2964443 53.960424 559.2964443 41.1466021 511.2873148 41.1466021 511.2873148 116.3210235"/>
    <rect class="st8" x="571.4268728" y="41.1466021" width="13.4972152" height="75.1744213"/>
    <path class="st8" d="M647.4555489,94.622944v-31.7782755c0-12.3012637-9.5676641-21.6980664-21.8689017-21.6980664h-27.3361532v75.1744213h27.3361532c12.3012898,0,21.8689017-9.3968027,21.8689017-21.6980794ZM611.747657,103.5072017v-49.5467777h13.4972152c4.9546673,0,8.5425479,3.9295772,8.5425479,8.8842446v31.7782755c0,4.9546804-3.5878805,8.8842446-8.5425479,8.8842446l-13.4972152.000013Z"/>
    <polygon class="st8" points="659.9276479 116.3210235 707.9367774 116.3210235 707.9367774 103.5072017 673.4248632 103.5072017 673.4248632 85.2261414 701.1027391 85.2261414 701.1027391 72.2414712 673.4248632 72.2414712 673.4248632 53.960424 707.9367774 53.960424 707.9367774 41.1466021 659.9276479 41.1466021 659.9276479 116.3210235"/>
    <polygon class="st8" points="734.2478145 64.8948879 734.93126 67.9701973 763.4632865 116.1501751 775.4228535 116.1501751 775.4228535 41.1466021 761.9256905 41.1466021 761.9256905 92.4018894 761.2422449 89.326567 732.5393049 41.1466021 720.7505471 41.1466021 720.7505471 116.1501751 734.2478145 116.1501751 734.2478145 64.8948879"/>
    <polygon class="st8" points="789.6035665 53.960424 807.2011942 53.960424 807.2011942 116.1501751 820.6983573 116.1501751 820.6983573 53.960424 838.4668986 53.960424 838.4668986 41.1466021 789.6035665 41.1466021 789.6035665 53.960424"/>
    <rect class="st8" x="852.6475072" y="41.1466021" width="13.4972674" height="75.003573"/>
    <path class="st8" d="M902.0234757,41.1466021l-20.8438377,75.003573h14.5223314l3.9295512-14.8640281h23.0648793l3.9295512,14.8640281h14.5223314l-21.0146469-75.003573h-18.1101598ZM902.3651985,89.6682767l8.5425479-32.6325303v-2.9044611l.3417228,2.7336127,8.3717386,32.6325303h-17.255905l-.0001043.1708484Z"/>
    <polygon class="st8" points="968.4844356 41.1466021 954.9872725 41.1466021 954.9872725 116.1501751 996.1623116 116.1501751 996.1623116 103.3363533 968.4844356 103.3363533 968.4844356 41.1466021"/>
  </g>
  <g>
    <path class="st8" d="M348.4663731,141.8714242h-5.296338c-11.959567,0-21.1855605,9.055106-21.1855605,21.014673v32.974227c0,11.959567,9.2259934,21.014673,21.1855605,21.014673h5.296338c11.959567,0,21.1855605-9.055106,21.1855605-21.014673v-3.7587159l-13.1555446-1.1959515v4.9546804c0,4.783832-3.5878284,8.5425479-8.3717386,8.5425479h-4.783806c-4.783806,0-8.3717386-3.7587159-8.3717386-8.5425479v-32.974227c0-4.783832,3.5878284-8.5425479,8.3717386-8.5425479h4.783806c4.783806,0,8.3717386,3.7587159,8.3717386,8.5425479v4.9546804l13.1555446-1.1959515v-3.7587159c0-11.959567-9.2259934-21.014673-21.1855605-21.014673v-.0000261Z"/>
    <path class="st8" d="M430.9873648,195.8603242v-32.97424c0-11.959567-9.2259934-21.014673-21.1855605-21.014673h-5.296338c-11.959567,0-21.1855605,9.055106-21.1855605,21.014673v32.97424c0,11.959567,9.2259934,21.014673,21.1855605,21.014673h5.296338c11.959567,0,21.1855605-9.055106,21.1855605-21.014673ZM417.8318202,195.8603242c0,4.783832-3.5878284,8.5425479-8.3717386,8.5425479h-4.783806c-4.783806,0-8.3717386-3.7587159-8.3717386-8.5425479v-32.97424c0-4.783832,3.5878284-8.5425479,8.3717386-8.5425479h4.783806c4.783806,0,8.3717386,3.7587159,8.3717386,8.5425479v32.97424Z"/>
    <polygon class="st8" points="481.3883973 199.106495 481.0466745 201.8401077 480.8758652 199.106495 464.3033015 141.8714242 444.6554414 141.8714242 444.6554414 217.0458456 458.1526045 217.0458456 458.1526045 158.4439619 458.4943272 161.6901327 474.5543589 217.0458456 487.7099035 217.0458456 503.5990217 161.6901327 504.1115538 158.4439619 504.1115538 217.0458456 517.6088211 217.0458456 517.6088211 141.8714242 497.7900475 141.8714242 481.3883973 199.106495"/>
    <path class="st8" d="M558.7838602,141.8714242h-28.0195988v75.1744213h13.4972674v-24.6025405h14.3515221c12.3012898,0,21.8689017-9.3968027,21.8689017-21.6980664v-7.175735c0-12.3012637-9.3968027-21.6980664-21.6980925-21.6980794ZM567.1555988,170.7452387c0,4.9546804-3.5878284,8.8842446-8.5425479,8.8842446h-14.1806086v-24.9442372h14.1806086c4.9547195,0,8.5425479,3.9295772,8.5425479,8.8842446v7.175748Z"/>
    <path class="st8" d="M641.6465746,195.6894759v-53.8180516h-13.3263538v53.8180516c0,4.9546804-3.5878284,8.7133962-8.5425479,8.7133962h-4.9547195c-4.9547195,0-8.5425479-3.7587159-8.5425479-8.7133962v-53.8180516h-13.3263538v53.8180516c0,12.1304154,9.3968027,21.3563697,21.5271789,21.3563697h5.296338c12.3012898,0,21.8689017-9.2259543,21.8689017-21.3563697h.0001043Z"/>
    <polygon class="st8" points="655.143842 154.6852461 672.912279 154.6852461 672.912279 217.0458456 686.4095464 217.0458456 686.4095464 154.6852461 704.1779834 154.6852461 704.1779834 141.8714242 655.143842 141.8714242 655.143842 154.6852461"/>
    <rect class="st8" x="716.9918052" y="141.8714242" width="13.4972674" height="75.003573"/>
    <polygon class="st8" points="757.3126938 165.6197099 757.996035 168.8658677 786.6990793 217.0458456 798.4877328 217.0458456 798.4877328 141.8714242 784.9905697 141.8714242 784.9905697 193.2975599 784.3071242 190.0513891 755.7749934 141.8714242 743.8154264 141.8714242 743.8154264 217.0458456 757.3126938 217.0458456 757.3126938 165.6197099"/>
    <path class="st8" d="M853.8434848,166.6448131v-3.7587159c0-11.959567-9.2259934-21.014673-21.1855605-21.014673h-5.296338c-11.959567,0-21.1855605,9.055106-21.1855605,21.014673v32.974227c0,11.959567,9.2259934,21.014673,21.1855605,21.014673h3.0752964c5.9797835,0,11.1053122-2.5627644,14.5223314-6.8340383l3.7587419,5.8089352h5.1255287v-40.4916848h-23.9191341v12.4721251h10.7635895v7.8591414c0,4.783832-3.5878284,8.5425479-8.3717386,8.5425479h-4.783806c-4.783806,0-8.3717386-3.7587159-8.3717386-8.5425479v-32.8033917c0-4.783832,3.5878284-8.5425479,8.3717386-8.5425479h4.783806c4.783806,0,8.3717386,3.7587159,8.3717386,8.5425479v4.9546804l13.1555446-1.1959515Z"/>
  </g>
  <g>
    <path class="st7" d="M278.0444907,82.1553102c-3.2515667-2.6706825-5.3720972-6.669997-5.3720972-11.1960895,0-4.8870892,2.4408393-9.1961076,6.147331-11.8358413C250.1880174,26.388041,208.125418,5.7019389,161.218798,5.7019389h-1.166097C73.7775379,5.7019389,3.8376884,75.6417884,3.8376884,161.9169515v.5832649c0,36.2847056,12.3587237,69.6628257,33.0502365,96.2322205,2.5585744-2.2341536,5.8633816-3.6355044,9.5187971-3.6355044,8.0228686,0,14.5498088,6.5269402,14.5498088,14.5495923,0,3.9891425-1.6179921,7.6047358-4.2272099,10.2358125,27.6677508,24.5094632,64.0375114,39.4157237,103.9064287,39.4157237,53.4335602,0,100.5968601-26.7483781,128.9052284-67.5637212l-24.8667806-17.2261183c-23.2236833,33.4514881-62.13254,55.2316177-106.0009882,54.5639471-69.4589535-1.0572353-124.6226138-59.0240301-124.6226138-128.4907749v-.0002164c0-68.8523147,55.8155319-124.6682795,124.6676302-124.6682795h1.9183897c43.4139561,0,81.7111962,21.865401,104.5141496,55.1742651l12.8937259-8.9318529Z"/>
    <path class="st1" d="M158.5463841,270.475432c32.4520382.6161615,61.7338855-13.1889294,81.9345466-35.3964981-5.202853-2.2194367-8.8608656-7.3833332-8.8608656-13.3878238,0-3.0760462.9726132-5.9213835,2.6079193-8.2741378l-9.688907-6.711767c-13.8174271,19.9123833-36.6437544,33.1251194-62.5588969,33.5666261-43.5130786.7414715-79.1257851-35.7996975-79.1257851-79.3188361v-.0002164c0-42.1039365,34.1319278-76.2360808,76.2360808-76.2360808h1.546139c26.789066,0,50.4114038,13.5451647,64.401538,34.1581152l24.8317198-17.2018787c-19.4457714-28.4724184-52.1523252-47.1680612-89.2332578-47.1680612h-1.8093116c-26.025952,0-49.852162,9.3776881-68.3192603,24.9193719,2.9191382,3.3100014,4.3501392,7.869207,3.3996013,12.516281-1.379059,6.7420664-7.3696985,11.6358648-14.2446497,11.6358648-.9778074,0-1.9621075-.0999883-2.9251981-.2971513-2.0893654-.427439-3.9627387-1.3078553-5.5863578-2.4849899-11.6713585,17.0514634-18.5090847,37.6722052-18.5090847,59.8955729,0,59.1335411,46.7815265,108.6627973,105.9040299,109.7856093Z"/>
    <path class="st0" d="M175.7976077,189.8364044l11.2809281,25.5374812c19.3817096-9.734789,32.7476745-29.7473771,32.7476745-52.8738856v-.0010821c0-32.6898891-26.4999224-59.1902444-59.1895951-59.1902444h-1.3426997c-31.948634,0-57.8477611,25.8993435-57.8477611,57.8479775,0,23.7550062,13.9801786,44.8003736,34.0856129,54.6280089l11.1991195-25.3524379c-10.3927205-5.3446113-17.3970939-16.4506681-17.3970939-28.8386092,0-16.787858,13.6092264-30.3970844,30.3973008-30.3970844h.9050887c17.2875829,0,31.3023895,14.0145901,31.3023895,31.3023895v.0010821c0,11.7544656-6.5338657,21.9853004-16.1409641,27.3364044Z"/>
    <path class="st2" d="M147.887461,161.9171679c0,4.8152361,2.5737241,9.0309755,6.3931896,11.4242013,2.0742156,1.2991983,4.5007709,2.0841712,7.1151829,2.0841712s5.0409672-.7847564,7.1151829-2.0841712c3.8194655-2.3932258,6.3931896-6.6089652,6.3931896-11.4242013,0-7.4296481-6.0789407-13.5083725-13.5083725-13.5083725s-13.5083725,6.0787243-13.5083725,13.5083725Z"/>
    <path class="st6" d="M46.4067219,260.4157893c-5.0976705,0-9.2305192,4.1326322-9.2305192,9.2307356,0,5.097887,4.1328486,9.2305192,9.2305192,9.2305192,5.0981034,0,9.230952-4.1326322,9.230952-9.2305192,0-5.0981034-4.1328486-9.2307356-9.230952-9.2307356Z"/>
    <path class="st5" d="M79.6629948,98.2573179c4.2934359,0,8.139738-3.0124173,9.0335726-7.3826839,1.0215252-4.9946523-2.1993092-9.871786-7.1935286-10.8933112-.6241692-.1276907-1.2461742-.1891553-1.8595222-.1889389-4.2934359.0002164-8.1401709,3.0124173-9.0340054,7.3826839-1.0215252,4.9946523,2.1993092,9.871786,7.1939615,10.8933112.6241692.1276907,1.2461742.1889389,1.8595222.1889389Z"/>
    <path class="st3" d="M287.2222022,80.1899563c5.0976705,0,9.2305192-4.1328486,9.2305192-9.2307356s-4.1328486-9.2307356-9.2305192-9.2307356c-5.0981034,0-9.230952,4.1328486-9.230952,9.2307356s4.1328486,9.2307356,9.230952,9.2307356Z"/>
    <path class="st4" d="M236.9389219,221.6911101c0,5.0981034,4.1328486,9.2307356,9.2305192,9.2307356,5.0981034,0,9.230952-4.1326322,9.230952-9.2307356,0-5.097887-4.1328486-9.2307356-9.230952-9.2307356-5.0976705,0-9.2305192,4.1328486-9.2305192,9.2307356Z"/>
  </g>
  <g>
    <path class="st9" d="M336.8779048,241.4559253h-2.913932c-6.7344166,0-11.9794982,5.1155655-11.9794982,11.8499921v18.5196606c0,6.7344166,5.2450815,11.8499921,11.9794982,11.8499921h2.913932c6.7344166,0,11.9794982-5.1155655,11.9794982-11.8499921v-2.1368854l-7.3819571-.7122984v2.7844259c0,2.7196679-2.0073793,4.7917953-4.6622991,4.7917953h-2.7196778c-2.7196778,0-4.6622991-2.1368854-4.6622991-4.7917953v-18.5196606c0-2.7196679,2.0073793-4.7917953,4.6622991-4.7917953h2.7196778c2.7196778,0,4.6622991,2.1368854,4.6622991,4.7917953v2.7844259l7.3819571-.7122984v-2.1368854c-.064758-6.6049105-5.2450815-11.7204859-11.9794982-11.7204859v.0000099Z"/>
    <path class="st9" d="M408.0128329,241.4559253h-2.913932c-6.7344166,0-11.9794982,5.1155655-11.9794982,11.8499921v18.5196606c0,6.7344166,5.2450815,11.8499921,11.9794982,11.8499921h2.913932c6.7344166,0,11.9794982-5.1155655,11.9794982-11.8499921v-18.5196606c0-6.7344166-5.2450815-11.8499921-11.9794982-11.8499921ZM412.610374,271.8255779c0,2.7196679-2.0073793,4.7917953-4.6622991,4.7917953h-2.7196778c-2.7196778,0-4.6622991-2.1368854-4.6622991-4.7917953v-18.5196606c0-2.7196679,2.0073793-4.7917953,4.6622991-4.7917953h2.7196778c2.7196778,0,4.6622991,2.1368854,4.6622991,4.7917953v18.5196606Z"/>
    <polygon class="st9" points="485.4936494 270.3362329 485.1051212 268.5878757 468.9813681 241.4559253 462.3117095 241.4559253 462.3117095 283.6755601 469.8879208 283.6755601 469.8879208 254.7952623 470.276449 256.6083775 486.4002021 283.6755601 493.0698805 283.6755601 493.0698805 241.4559253 485.4936494 241.4559253 485.4936494 270.3362329"/>
    <path class="st9" d="M543.2245121,253.6944455v-.3237702c0-2.7196679,2.0073596-4.7917953,4.6622991-4.7917953h1.8131053c2.7196778,0,4.6622991,2.1368854,4.6622991,4.7917953v2.0721274l7.3819768-.7122984v-1.3598389c0-6.7344166-5.2450618-11.8499921-11.9794982-11.8499921h-2.0721373c-6.7344364,0-11.9794982,5.1155655-11.9794982,11.8499921v.3237702c0,15.7999828,18.9081888,8.9360601,18.9081888,17.677856v.5180343c0,2.7196679-2.0073596,4.7917953-4.6622991,4.7917953h-2.3959075c-2.7196778,0-4.6622991-2.1368854-4.6622991-4.7917953v-2.0721274l-7.3819571.7122984v1.3598389c0,6.7344166,5.2450815,11.8499921,11.9794784,11.8499921h2.6549c6.7344364,0,11.9794982-5.1155655,11.9794982-11.8499921v-.5180343c0-15.2819584-18.9081888-9.4540944-18.9081888-17.677856h.0000395Z"/>
    <path class="st9" d="M621.4176171,241.4559253h-2.913932c-6.7344364,0-11.9794982,5.1155655-11.9794982,11.8499921v18.5196606c0,6.7344166,5.2450618,11.8499921,11.9794982,11.8499921h2.913932c6.7344364,0,11.9794982-5.1155655,11.9794982-11.8499921v-18.5196606c-.0647382-6.7344166-5.2450618-11.8499921-11.9794982-11.8499921ZM625.9504002,271.8255779c0,2.7196679-2.0073596,4.7917953-4.6622991,4.7917953h-2.7196778c-2.7196778,0-4.6622991-2.1368854-4.6622991-4.7917953v-18.5196606c0-2.7196679,2.0073596-4.7917953,4.6622991-4.7917953h2.7196778c2.7196778,0,4.6622991,2.1368854,4.6622991,4.7917953v18.5196606Z"/>
    <path class="st9" d="M704.6291705,255.8960791v-2.2663915c0-6.9286807-5.3745778-12.1737623-12.3032684-12.1737623h-15.6704866v42.2196348h7.5762311v-15.6057286h4.9212915l8.0295173,15.6057286h8.3532875l-8.61228-16.4475233c4.5975213-1.7483572,7.7057471-6.0221281,7.7057471-11.3319577h-.0000395ZM692.2611638,260.8173904h-7.9647395v-12.1090043h7.9647395c2.784416,0,4.8565533,2.2016335,4.8565533,4.9213113v2.2016335c0,2.849174-2.1368756,4.9860594-4.8565533,4.9860594Z"/>
    <polygon class="st9" points="748.502642 248.7083762 758.4100028 248.7083762 758.4100028 283.6755601 766.0509722 283.6755601 766.0509722 248.7083762 775.9583725 248.7083762 775.9583725 241.4559253 748.502642 241.4559253 748.502642 248.7083762"/>
    <rect class="st9" x="829.5773198" y="241.4559253" width="7.5762311" height="42.2196348"/>
    <path class="st9" d="M910.5872198,271.6960619c0,2.7196679-2.0073596,4.8565533-4.7270373,4.8565533h-2.7196778c-2.7196778,0-4.7270373-2.1368854-4.7270373-4.8565533v-30.1753885h-7.5114533v30.1753885c0,6.8639326,5.3098395,11.9794982,12.1090142,11.9794982h2.9786702c6.8639129,0,12.1090142-5.1803235,12.1090142-11.9794982v-30.1753885h-7.5114533v30.1753885h-.0000395Z"/>
    <polygon class="st9" points="975.7647877 273.6386832 975.6353112 275.1927862 975.5057952 273.6386832 966.2459748 241.4559253 955.1082713 241.4559253 955.1082713 283.6755601 962.7492406 283.6755601 962.7492406 250.8452617 962.9434949 252.6583769 971.9443228 283.6755601 979.3262601 283.6755601 988.2623498 252.6583769 988.5213423 250.8452617 988.5213423 283.6755601 996.1623116 283.6755601 996.1623116 241.4559253 985.0246476 241.4559253 975.7647877 273.6386832"/>
  </g>
</svg>