<?xml version="1.0" encoding="utf-8"?>
<!-- Generator: Adobe Illustrator 23.0.3, SVG Export Plug-In . SVG Version: 6.00 Build 0)  -->
<svg version="1.1" id="Layer_1" xmlns="http://www.w3.org/2000/svg" xmlns:xlink="http://www.w3.org/1999/xlink" x="0px" y="0px"
	 viewBox="0 0 1000 760.31" style="enable-background:new 0 0 1000 760.31;" xml:space="preserve">
<style type="text/css">
	.st0{fill:#1DCAD3;}
	.st1{fill:#36B0C9;}
	.st2{fill:#231F20;}
	.st3{fill:#FFFFFF;}
	.st4{fill:#9164CC;}
	.st5{clip-path:url(#SVGID_2_);fill:url(#SVGID_3_);}
	.st6{fill:#201747;}
	.st7{fill-rule:evenodd;clip-rule:evenodd;fill:#10CFC9;}
	.st8{clip-path:url(#SVGID_5_);fill:#231F20;}
	.st9{fill-rule:evenodd;clip-rule:evenodd;fill:#231F20;}
	.st10{clip-path:url(#SVGID_7_);fill:#FFFFFF;}
	.st11{fill-rule:evenodd;clip-rule:evenodd;fill:#FFFFFF;}
	.st12{fill:#8CCEAF;}
	.st13{fill:#008476;}
	.st14{fill:#25BCBD;}
	.st15{fill:#004D70;}
	.st16{fill:#20BBBB;}
	.st17{fill:#024D70;}
	.st18{fill-rule:evenodd;clip-rule:evenodd;fill:#F58B1F;}
	.st19{fill-rule:evenodd;clip-rule:evenodd;fill:#18335B;}
	.st20{clip-path:url(#SVGID_9_);}
	.st21{clip-path:url(#SVGID_11_);}
	.st22{fill:#18335B;}
	.st23{fill:#F58B1F;}
	.st24{clip-path:url(#SVGID_15_);}
	.st25{clip-path:url(#SVGID_17_);}
	.st26{clip-path:url(#SVGID_21_);}
	.st27{clip-path:url(#SVGID_23_);}
	.st28{clip-path:url(#SVGID_27_);}
	.st29{clip-path:url(#SVGID_29_);}
	.st30{clip-path:url(#SVGID_33_);}
	.st31{clip-path:url(#SVGID_35_);}
	.st32{clip-path:url(#SVGID_39_);}
	.st33{clip-path:url(#SVGID_41_);}
	.st34{fill:#416BA9;}
	.st35{fill:#73C3D5;}
	.st36{opacity:0.8;}
	.st37{fill:#3A3A3A;}
	.st38{fill:url(#SVGID_44_);}
	.st39{fill:none;stroke:#000000;stroke-width:6.3384;}
	.st40{fill:none;stroke:#000000;stroke-width:3.1692;}
	.st41{fill:#48494B;}
	.st42{fill:#C1986C;}
	.st43{fill:url(#SVGID_63_);}
	.st44{fill:url(#SVGID_64_);}
	.st45{fill:url(#SVGID_65_);}
	.st46{fill:url(#SVGID_66_);}
	.st47{fill:url(#SVGID_67_);}
	.st48{fill:#4D4E4E;}
	.st49{fill:#27B373;}
	.st50{fill:#5DC4CD;}
	.st51{fill:#1E8756;}
	.st52{fill:#3D1152;}
	.st53{fill:#922C48;}
	.st54{fill-rule:evenodd;clip-rule:evenodd;fill:#922C48;}
	.st55{fill:#404041;}
	.st56{fill:#EC1C24;}
	.st57{fill:#373A36;}
	.st58{fill:#808184;}
	.st59{fill:#262261;}
	.st60{fill:#6FCBDC;}
	.st61{fill:#2F3436;}
	.st62{fill:#5F97D0;}
	.st63{fill:#132428;}
	.st64{fill:#85C041;}
	.st65{fill:#677784;}
	.st66{fill:url(#SVGID_68_);}
	.st67{opacity:0.2;clip-path:url(#SVGID_70_);}
	.st68{fill:#FFFEFA;}
	.st69{opacity:0.1;}
	.st70{fill:url(#SVGID_71_);}
	.st71{opacity:0.3;}
	.st72{opacity:0.08;}
	.st73{opacity:0.1;fill:url(#Wordmark_1_);}
	.st74{fill:url(#SVGID_104_);}
	.st75{opacity:0.6;fill:url(#SVGID_107_);}
	.st76{opacity:0.4;}
	.st77{fill:url(#SVGID_110_);}
	.st78{opacity:0.6;fill:url(#SVGID_113_);}
	.st79{fill:url(#SVGID_116_);}
	.st80{opacity:0.6;fill:url(#SVGID_119_);}
	.st81{fill:url(#SVGID_122_);}
	.st82{opacity:0.6;fill:url(#SVGID_125_);}
	.st83{fill:url(#SVGID_128_);}
	.st84{opacity:0.6;fill:url(#SVGID_131_);}
	.st85{fill:#221F1F;}
	.st86{fill:none;}
	.st87{fill:#00416B;}
	.st88{opacity:0.8;fill:url(#XMLID_323_);}
	.st89{fill:#4197CB;}
	.st90{fill:#003E52;}
	.st91{fill:#3F96B4;}
	.st92{fill:#B9DBE5;}
	.st93{opacity:0.3;fill:#231F20;}
	.st94{opacity:0.3;fill:#FFFFFF;}
	.st95{fill:#050013;}
	.st96{fill:#E87200;}
	.st97{fill:#FCB813;}
	.st98{fill:#3D3935;}
	.st99{fill:#FFB600;}
	.st100{fill:#FCB814;}
	.st101{fill:#F48120;}
	.st102{fill:#EF4E25;}
	.st103{fill:#ED3024;}
	.st104{fill:#E0592A;}
	.st105{fill:#00ADBB;}
	.st106{fill:#00829B;}
	.st107{fill:#93D500;}
	.st108{fill:#4D5A31;}
	.st109{fill:#6BA43A;}
	.st110{fill:#424143;}
	.st111{fill-rule:evenodd;clip-rule:evenodd;fill:#C7E6B4;}
	.st112{fill-rule:evenodd;clip-rule:evenodd;fill:#5A9891;}
	.st113{fill-rule:evenodd;clip-rule:evenodd;fill:#127870;}
	.st114{fill-rule:evenodd;clip-rule:evenodd;fill:#5CCFD5;}
	.st115{fill-rule:evenodd;clip-rule:evenodd;fill:#ACD5CD;}
	.st116{fill-rule:evenodd;clip-rule:evenodd;fill:#B5ECC9;}
	.st117{fill-rule:evenodd;clip-rule:evenodd;fill:#A1D683;}
	.st118{fill-rule:evenodd;clip-rule:evenodd;fill:#DEF0D3;}
	.st119{fill-rule:evenodd;clip-rule:evenodd;fill:#91B9B4;}
	.st120{fill-rule:evenodd;clip-rule:evenodd;fill:#006860;}
	.st121{fill-rule:evenodd;clip-rule:evenodd;fill:#00ADBB;}
	.st122{fill-rule:evenodd;clip-rule:evenodd;fill:#B4E7E9;}
	.st123{fill-rule:evenodd;clip-rule:evenodd;fill:#007565;}
	.st124{fill-rule:evenodd;clip-rule:evenodd;fill:#00CE7C;}
	.st125{fill-rule:evenodd;clip-rule:evenodd;fill:#5FD896;}
	.st126{fill:#007DA5;}
	.st127{fill:#313032;}
	.st128{fill:#24272A;}
	.st129{fill:#00AFAA;}
	.st130{fill:#66C9BA;}
	.st131{fill:#0069A7;}
	.st132{fill:#002F87;}
	.st133{fill:#8BC53F;}
	.st134{fill:#1A1A1A;}
	.st135{fill:#0095D6;}
	.st136{fill:#003F5F;}
	.st137{fill:#2D317C;}
	.st138{fill:#41BFBF;}
	.st139{fill:#293C97;}
	.st140{fill:#52C2BD;}
	.st141{fill:url(#SVGID_134_);}
	.st142{fill:url(#SVGID_135_);}
	.st143{fill:url(#SVGID_136_);}
	.st144{fill:#0DBEEA;}
	.st145{fill:#097EC2;}
	.st146{fill:#133C63;}
	.st147{fill:#3B91CF;}
	.st148{fill:#C8DEE8;}
	.st149{fill:#629BBA;}
	.st150{fill:#F8BE19;}
	.st151{fill:url(#SVGID_137_);}
	.st152{fill:url(#SVGID_138_);}
	.st153{fill:url(#SVGID_139_);}
	.st154{fill:#00233B;}
	.st155{fill:url(#SVGID_140_);}
	.st156{fill:url(#SVGID_141_);}
	.st157{fill:url(#SVGID_142_);}
	.st158{fill:url(#SVGID_143_);}
	.st159{fill:url(#SVGID_144_);}
	.st160{fill:url(#SVGID_145_);}
	.st161{fill:url(#SVGID_146_);}
	.st162{fill:url(#SVGID_147_);}
	.st163{fill:url(#SVGID_148_);}
	.st164{fill:url(#SVGID_149_);}
	.st165{fill:url(#SVGID_150_);}
	.st166{fill:url(#SVGID_151_);}
	.st167{fill:url(#SVGID_152_);}
	.st168{fill:url(#SVGID_153_);}
	.st169{fill:url(#SVGID_154_);}
	.st170{fill:url(#SVGID_155_);}
	.st171{fill:url(#SVGID_156_);}
	.st172{fill:url(#SVGID_157_);}
	.st173{fill:url(#SVGID_158_);}
	.st174{fill:url(#SVGID_159_);}
	.st175{fill:url(#SVGID_160_);}
	.st176{fill:url(#SVGID_161_);}
	.st177{fill:url(#SVGID_162_);}
	.st178{fill:url(#SVGID_163_);}
	.st179{fill:url(#SVGID_164_);}
	.st180{fill:url(#SVGID_165_);}
	.st181{fill:url(#SVGID_166_);}
	.st182{fill:url(#SVGID_167_);}
	.st183{fill:url(#SVGID_168_);}
	.st184{fill:url(#SVGID_169_);}
	.st185{fill:url(#SVGID_170_);}
	.st186{fill:url(#SVGID_171_);}
	.st187{fill:url(#SVGID_172_);}
	.st188{fill:url(#SVGID_173_);}
	.st189{fill:url(#SVGID_174_);}
	.st190{fill:url(#SVGID_175_);}
	.st191{fill:url(#SVGID_176_);}
	.st192{fill:url(#SVGID_177_);}
	.st193{fill:url(#SVGID_178_);}
	.st194{fill:#C31230;}
	.st195{fill:#807F82;}
	.st196{fill-rule:evenodd;clip-rule:evenodd;fill:#C31230;}
	.st197{fill-rule:evenodd;clip-rule:evenodd;fill:#807F82;}
	.st198{fill:#2D2D2D;}
	.st199{display:none;fill:#2D2D2D;}
	.st200{fill:#D11F3C;}
	.st201{fill:#E42C4C;stroke:#E42C4C;stroke-width:1.0503;stroke-miterlimit:10;}
	.st202{display:none;fill:#231F20;}
	.st203{display:none;fill:#FFFFFF;}
	.st204{fill:#FF7F30;}
	.st205{opacity:0.3;fill:#FF7F30;}
	.st206{opacity:0.6;fill:#FF7F30;}
	.st207{opacity:0.7;fill:#FF7F30;}
	.st208{fill:#221C35;}
	.st209{fill:#1B98D5;}
	.st210{fill:#173963;}
	.st211{fill:#009ADE;}
	.st212{fill:#003764;}
	.st213{fill:#2A7DE1;}
	.st214{opacity:0.4;clip-path:url(#XMLID_324_);fill:#221F1F;}
	.st215{fill:#002A3A;}
	.st216{fill:#0033A1;}
	.st217{fill:url(#SVGID_179_);}
	.st218{fill:url(#SVGID_180_);}
	.st219{fill:url(#SVGID_181_);}
	.st220{fill:url(#SVGID_182_);}
	.st221{fill:#007EC4;}
	.st222{fill-rule:evenodd;clip-rule:evenodd;fill:url(#SVGID_183_);}
	.st223{fill-rule:evenodd;clip-rule:evenodd;fill:#E6E7E8;}
	.st224{fill:#009345;}
	.st225{fill:#BBBCB8;}
	.st226{fill:#72C0EB;}
	.st227{fill:#939598;}
	.st228{fill-rule:evenodd;clip-rule:evenodd;fill:#2CB8EB;}
	.st229{fill:#2CB8EB;}
	.st230{fill:#81B83A;}
	.st231{fill-rule:evenodd;clip-rule:evenodd;fill:#81B83A;}
	.st232{enable-background:new    ;}
	.st233{fill:#FF6F3E;}
	.st234{fill:#12143D;}
	.st235{fill:url(#SVGID_184_);}
	.st236{fill:url(#SVGID_185_);}
	.st237{fill:url(#SVGID_186_);}
	.st238{fill:url(#SVGID_187_);}
	.st239{fill:url(#SVGID_188_);}
	.st240{fill:url(#SVGID_189_);}
	.st241{fill:url(#SVGID_190_);}
	.st242{fill:url(#SVGID_191_);}
	.st243{fill:url(#SVGID_192_);}
	.st244{fill:#7C51A0;}
	.st245{fill:#9F66A9;}
	.st246{fill:#9F80B9;}
	.st247{fill:url(#SVGID_193_);}
	.st248{fill:url(#SVGID_194_);}
	.st249{fill:url(#SVGID_195_);}
	.st250{fill:url(#SVGID_196_);}
	.st251{fill:#2D3136;}
	.st252{fill:#76777A;}
	.st253{fill:#A7A8A9;}
	.st254{fill:#0082CA;}
	.st255{fill:#FFB259;}
	.st256{fill:#385CAD;}
	.st257{fill:#7BA0C4;}
	.st258{fill:#EBA900;}
	.st259{fill:#929497;}
	.st260{opacity:0.7;fill:#FFFFFF;}
	.st261{fill:#016BAF;}
	.st262{fill:#343432;}
	.st263{fill:#6D6E70;}
	.st264{fill:#F4B01B;}
	.st265{fill:#293271;}
	.st266{fill:#A1D33C;}
	.st267{fill:#212322;}
	.st268{fill:#0047BA;}
	.st269{fill:#969CDE;}
	.st270{fill:#047BC1;}
	.st271{fill:url(#SVGID_197_);}
	.st272{fill:url(#SVGID_198_);}
	.st273{fill:url(#SVGID_199_);}
	.st274{fill:url(#SVGID_200_);}
	.st275{fill:url(#SVGID_201_);}
	.st276{fill:url(#SVGID_202_);}
	.st277{fill:url(#SVGID_203_);}
	.st278{fill:#13517C;}
	.st279{fill:#0077A6;}
	.st280{fill:none;stroke:#231F20;stroke-width:5.9036;stroke-miterlimit:10;}
	.st281{fill:#00A94F;}
	.st282{fill:none;stroke:#231F20;stroke-width:3.2172;stroke-miterlimit:10;}
	.st283{fill:#59595C;}
	.st284{opacity:0.349;fill:#F9AE19;}
	.st285{opacity:0.349;fill:#E99F22;}
	.st286{opacity:0.349;fill:#E47D25;}
	.st287{fill:#F9AE19;}
	.st288{fill:#E99F22;}
	.st289{fill:#F09B20;}
	.st290{fill:#E47D25;}
	.st291{fill:#E89223;}
	.st292{opacity:0.651;fill:#F9AE19;}
	.st293{fill:#E68825;}
	.st294{opacity:0.651;fill:#E99F22;}
	.st295{fill:#EB8D23;}
	.st296{opacity:0.7725;fill:#EF9B21;}
	.st297{opacity:0.651;fill:#E47D25;}
	.st298{opacity:0.7725;fill:#EA9622;}
	.st299{fill:url(#SVGID_204_);}
	.st300{fill:#55575B;}
	.st301{fill:#EE424E;}
	.st302{fill:#34424B;}
</style>
<g>
	<path class="st41" d="M38.33,744.24c-15.59,0-23.54-13.38-23.54-29.41s7.92-29.43,23.54-29.43c7.37-0.18,14.38,3.18,18.86,9.04
		l7.79-6.7c-6.41-8.22-16.36-12.9-26.78-12.57c-22.63,0-34.99,18.76-34.99,39.46c0,20.71,12.08,39.75,35.2,39.75
		c10.43,0.3,20.37-4.44,26.71-12.73l-7.79-7.2C53,740.65,45.89,744.32,38.33,744.24z"/>
	<path class="st41" d="M115.12,675.16c-7.67-0.02-15.32,0.79-22.81,2.42v73.86c7.43,1.91,15.06,2.89,22.73,2.94
		c23.12,0,36.01-18.96,36.01-40.16S137.86,675.16,115.12,675.16z M114.84,743.82c-4.07,0.02-8.12-0.63-11.98-1.92v-55.18
		c3.93-0.88,7.95-1.33,11.98-1.32c15.82,0,24.76,12.99,24.76,28.81C139.6,730.65,131.26,743.82,114.84,743.82z"/>
	<path class="st41" d="M181.68,740.4c-3.7-0.11-6.79,2.79-6.91,6.49c-0.11,3.7,2.79,6.79,6.49,6.91c3.7,0.11,6.79-2.79,6.91-6.49
		c0-0.11,0-0.22,0-0.33C188.19,743.36,185.29,740.42,181.68,740.4z"/>
	<polygon class="st41" points="216.6,753.77 227.14,753.77 227.14,719.2 262.35,719.2 263.15,709.35 227.14,709.35 227.14,685.5 
		265.28,685.5 266.09,675.66 216.6,675.66 	"/>
	<path class="st41" d="M324.44,675.16c-23.23,0-35.31,18.86-35.31,39.46c0,20.6,12.08,39.75,35.31,39.75
		c22.73,0,35.1-19.07,35.1-39.75C359.53,693.95,347.17,675.16,324.44,675.16z M324.44,744.14c-15.59,0-23.64-13.38-23.64-29.41
		s7.79-29.43,23.64-29.43s23.64,13.3,23.64,29.43s-8.03,29.51-23.74,29.51L324.44,744.14z"/>
	<path class="st41" d="M430.74,727.8c0,8.24-6.78,16.13-17.85,16.13c-12.47,0-18.19-7.79-18.19-16.13v-52.14l-10.55,0.81v52.19
		c0,17.54,14.7,25.64,28.81,25.64c13.3,0,28.42-8.5,28.42-25.64v-53l-10.57,0.81L430.74,727.8z"/>
	<path class="st41" d="M520.24,740.89c-13.3-17.04-29.82-60.14-40.58-65.23h-10.39v78.12h10.55v-63.21
		c12.47,19.28,27.28,58.43,40.58,63.21h10.55v-78.12l-10.55,0.81L520.24,740.89z"/>
	<path class="st41" d="M583.03,675.16c-7.67-0.02-15.32,0.79-22.81,2.42v73.86c7.42,1.91,15.05,2.89,22.71,2.94
		c23.15,0,36.01-18.96,36.01-40.16S605.76,675.16,583.03,675.16z M582.72,743.82c-4.06,0.02-8.1-0.63-11.95-1.92v-55.18
		c3.92-0.88,7.93-1.33,11.95-1.32c15.85,0,24.76,12.99,24.76,28.81C607.47,730.65,599.16,743.82,582.72,743.82L582.72,743.82z"/>
	<path class="st41" d="M666.13,675.66c-12.18,23.74-24.58,51.96-28.21,78.12h10.55c1.08-7.16,2.65-14.24,4.68-21.2h36.81
		c2.03,6.95,3.59,14.04,4.68,21.2h10.55c-3.66-25.98-16.03-54.37-28.21-78.12H666.13z M656.29,722.73
		c4.36-12.37,9.47-24.47,15.3-36.21c5.78,11.76,10.86,23.86,15.22,36.21H656.29z"/>
	<polygon class="st41" points="720.4,684.59 741.91,684.59 741.91,753.77 752.46,753.77 752.46,684.59 772.86,684.59 773.66,675.66 
		721.21,675.66 	"/>
	<polygon class="st41" points="801.56,753.77 812.11,753.77 812.11,675.66 801.56,676.49 	"/>
	<path class="st41" d="M875,675.16c-23.23,0-35.31,18.86-35.31,39.46c0,20.6,12.08,39.75,35.31,39.75c22.73,0,35.1-19.07,35.1-39.75
		C910.1,693.95,897.74,675.16,875,675.16z M875,744.14c-15.72,0-23.64-13.38-23.64-29.41s7.79-29.43,23.64-29.43
		s23.64,13.3,23.64,29.43s-8,29.51-23.74,29.51L875,744.14z"/>
	<path class="st41" d="M986.19,676.46v64.43c-13.28-17.04-29.82-60.14-40.58-65.23h-10.39v78.12h10.44v-63.21
		c12.5,19.28,27.3,58.43,40.58,63.21h10.55v-78.12L986.19,676.46z"/>
	<path class="st42" d="M351.19,477.15c3.69-0.49,7.27-1.14,10.78-1.97s6.91-1.79,10.39-2.91c20.06-6.81,37.44-19.25,54.06-36.55
		l-0.21-0.26C404.01,458.47,380.6,473.13,351.19,477.15z"/>
	
		<linearGradient id="SVGID_2_" gradientUnits="userSpaceOnUse" x1="537.4741" y1="12030.7412" x2="157.4298" y2="12016.3232" gradientTransform="matrix(1 0 0 -1 0 12386.9814)">
		<stop  offset="0" style="stop-color:#EB2027"/>
		<stop  offset="1" style="stop-color:#F79420"/>
	</linearGradient>
	<path style="fill:url(#SVGID_2_);" d="M454.67,400.93c-8.68,12.23-18.19,23.85-28.45,34.79c-16.63,17.3-34.01,29.75-54.06,36.55
		c-3.35,1.12-6.78,2.1-10.39,2.91c-3.61,0.81-7.09,1.48-10.78,1.97c-1.22,0.18-2.44,0.34-3.69,0.47l-2,0.18
		c-1.58,0.13-3.17,0.26-4.78,0.34h-0.96c-1.9,0-3.82,0-5.77,0c-6.78-0.02-13.54-0.79-20.16-2.29c-5.04-1.11-10-2.58-14.83-4.39
		c-3.35-1.27-6.65-2.6-9.92-4.29c-3.27-1.69-6.49-3.33-9.66-5.2c-14.58-8.71-27.33-20.18-37.51-33.77
		c-2.26-3.04-4.39-6.21-6.39-9.46c-0.99-1.64-1.92-3.27-2.83-4.96c-1.83-3.38-3.48-6.85-4.96-10.39
		c-10.81-25.53-10.81-54.35,0-79.88c1.48-3.55,3.13-7.01,4.96-10.39c0.91-1.69,1.84-3.33,2.83-4.96c2-3.25,4.13-6.42,6.39-9.46
		c10.2-13.58,22.94-25.05,37.51-33.77c3.17-1.87,6.39-3.61,9.66-5.2c3.24-1.46,6.55-2.76,9.92-3.9c4.93-1.88,9.99-3.4,15.15-4.55
		c6.62-1.5,13.38-2.26,20.16-2.29c1.9,0,3.79,0,5.66,0h1.2c1.58,0,3.17,0.21,4.73,0.34l2.29,0.23l2.23,0.26
		c3.95,0.52,7.79,1.22,11.56,2.1c1.87,0.44,3.71,0.94,5.53,1.45c9.1,2.67,17.83,6.49,25.98,11.35c3.27,1.95,6.47,4.05,9.64,6.34
		c6.51,4.74,12.65,9.95,18.39,15.59c2.98,2.91,5.95,5.98,8.91,9.2l0.18-0.29c8.65,9.73,16.75,19.94,24.26,30.58
		c11.92-18.81,29.95-47.07,36.37-56.45c2.6-3.77,5.2-7.59,8.03-11.43c-29.69-36.21-65.41-66.3-113.14-79.13h-0.34
		c-2.31-0.62-4.62-1.2-6.99-1.74l-0.99-0.23c-2.29-0.49-4.6-0.96-6.91-1.38l-1.38-0.26c-2.6-0.47-5.43-0.88-8.21-1.25h-0.31
		c-1.51-0.21-3.01-0.36-4.55-0.52h-0.86l-4.1-0.36h-1.25l-3.84-0.26h-1.48l-3.9-0.16h-1.45H334
		c-101.86-0.55-191.07,88.77-191.07,190.61s89.32,191.18,191.18,191.18h5.35h1.53l3.79-0.16h1.61l3.66-0.21h1.48l3.74-0.34h1.25
		l3.97-0.47l0.91-0.13l4.31-0.6h0.47c2.6-0.42,5.2-0.88,7.79-1.38l1.43-0.31c2.1-0.44,4.18-0.91,6.26-1.4l1.27-0.31
		c2.21-0.57,4.42-1.14,6.6-1.79l0.52-0.16c45.46-13.33,79.88-42.53,108.67-77.36c-4.47-6.73-7.46-11.77-8.86-14.21L454.67,400.93z"
		/>
	
		<linearGradient id="SVGID_3_" gradientUnits="userSpaceOnUse" x1="541.8012" y1="11916.5254" x2="161.7829" y2="11902.0811" gradientTransform="matrix(1 0 0 -1 0 12386.9814)">
		<stop  offset="0" style="stop-color:#EB2027"/>
		<stop  offset="1" style="stop-color:#F79420"/>
	</linearGradient>
	<path style="fill:url(#SVGID_3_);" d="M340.36,478.17h0.49c1.61,0,3.2-0.21,4.78-0.34c-1.58,0.13-3.17,0.26-4.81,0.34H340.36z"/>
	
		<linearGradient id="SVGID_5_" gradientUnits="userSpaceOnUse" x1="535.0195" y1="12095.1357" x2="155.0012" y2="12080.6914" gradientTransform="matrix(1 0 0 -1 0 12386.9814)">
		<stop  offset="0" style="stop-color:#EB2027"/>
		<stop  offset="1" style="stop-color:#F79420"/>
	</linearGradient>
	<polygon style="fill:url(#SVGID_5_);" points="430.22,295.69 430.04,295.98 430.04,295.98 	"/>
	
		<linearGradient id="SVGID_7_" gradientUnits="userSpaceOnUse" x1="939.2846" y1="12113.4512" x2="480.6544" y2="12095.4219" gradientTransform="matrix(1 0 0 -1 0 12386.9814)">
		<stop  offset="0" style="stop-color:#EB2027"/>
		<stop  offset="1" style="stop-color:#F79420"/>
	</linearGradient>
	<path style="fill:url(#SVGID_7_);" d="M831.67,5.92v207.6c-32.77-26.21-73.39-40.67-115.35-41.07h-5.38h-1.45l-3.9,0.16l-1.53,0.1
		l-3.84,0.26h-1.25l-4.1,0.36h-0.86c-1.53,0.16-3.04,0.31-4.55,0.52h-0.34c-2.75,0.34-5.48,0.78-8.18,1.25l-1.38,0.26
		c-2.34,0.42-4.62,0.88-6.91,1.38l-0.99,0.23c-66.56,15.04-110.38,63.18-146.55,115.84l0,0c-1.53,2.23-2.96,4.49-4.47,6.73
		c-4.94,7.51-11.98,18.47-18.94,29.38c-9.14,14.31-18.19,28.58-21.8,34.34l45.23,70.48l0,0c0,0,48.24,88.74,135.27,112.9l0.52,0.16
		c2.18,0.65,4.39,1.22,6.6,1.79l1.27,0.31c2.05,0.52,4.16,0.96,6.26,1.4l1.43,0.31c2.6,0.49,5.2,0.96,7.79,1.38h0.47l4.31,0.6
		l0.91,0.13l3.97,0.47h1.25l3.74,0.34h1.48l3.66,0.21h1.61l3.79,0.16h1.53h5.35c119.97,0,189.39-67.91,191.13-186.55l0,0V5.92
		H831.67z M716.33,478.32c-1.95,0-3.87,0-5.77,0h-0.96c-1.61,0-3.2-0.21-4.78-0.34l-2-0.18c-1.25-0.13-2.47-0.29-3.69-0.47
		c-7.15-0.96-14.18-2.63-20.99-4.99c-4.99-1.71-9.86-3.79-14.55-6.21c-4.75-2.45-9.33-5.21-13.72-8.26
		c-2.21-1.53-4.42-3.14-6.6-4.86c-6.75-5.33-13.12-11.14-19.04-17.38l-0.21,0.26l0,0c-2.75-2.86-5.46-5.9-8.18-9.01
		c-0.34-0.36-0.65-0.78-0.99-1.17c-1.38-1.58-2.75-3.17-4.13-4.86c-1.38-1.69-2.47-3.07-3.69-4.6s-1.95-2.42-2.94-3.69
		c-4.42-5.69-8.81-11.72-13.28-18.19c-1.53-2.18-3.07-4.44-4.62-6.7c-0.83-1.25-1.69-2.6-2.6-3.79c-1.48-2.23-2.99-4.42-4.49-6.7
		l-0.78-1.2c-2.6-3.97-5.2-8.08-8-12.29c4.31-6.74,8.56-13.21,12.76-19.43c4.18-6.21,8.31-12.18,12.42-17.85s8.16-11.07,12.26-16.18
		s8.16-9.92,12.29-14.44c2.96-3.22,5.93-6.29,8.91-9.2c3.01-2.94,6.03-5.69,9.12-8.29c3.09-2.6,6.16-5.01,9.33-7.3
		c5.39-3.82,11.07-7.2,16.99-10.13c0.73-0.36,1.45-0.81,2.21-1.17l0.49-0.26c3.09-1.43,6.23-2.6,9.43-3.79l1.07-0.44
		c0.6-0.18,1.22-0.31,1.82-0.52c2.39-0.78,4.86-1.48,7.33-2.08l3.01-0.75c3.4-0.73,6.86-1.38,10.39-1.84l2.23-0.26l2.29-0.23
		c1.56,0,3.14-0.26,4.73-0.34h1.2c1.87,0,3.77,0,5.66,0c3.35,0.01,6.7,0.2,10.03,0.57c5.13,0.61,10.21,1.6,15.2,2.96
		c3.38,0.94,6.75,2.03,10.08,3.3c3.38,1.26,6.69,2.69,9.92,4.29c3.27,1.58,6.49,3.33,9.66,5.2s6.29,3.95,9.3,6.11
		c3.01,2.16,5.98,4.49,8.83,6.96c7.21,6.19,13.71,13.16,19.38,20.78c2.26,3.04,4.39,6.21,6.39,9.46
		c4.99,8.18,8.91,16.96,11.66,26.13c1.08,3.72,1.94,7.51,2.6,11.33c1.05,5.86,1.57,11.79,1.56,17.74
		C831.02,442.89,795.64,478.32,716.33,478.32z"/>
</g>
</svg>
