<?xml version="1.0" encoding="UTF-8"?> <!-- Generator: Adobe Illustrator 23.1.0, SVG Export Plug-In . SVG Version: 6.00 Build 0) --> <svg xmlns="http://www.w3.org/2000/svg" xmlns:xlink="http://www.w3.org/1999/xlink" id="Layer_1" x="0px" y="0px" viewBox="0 0 997.9 222.3" style="enable-background:new 0 0 997.9 222.3;" xml:space="preserve"> <style type="text/css"> .st0{fill:#00BC70;} .st1{fill:#06262D;} </style> <g> <path class="st0" d="M255.9,0h80.7c36.5,0,64.8,27.6,64.8,64.1v94c0,36.5-28.3,64.1-64.8,64.1h-80.7V0z M335.9,184.2 c14.6,0,25.4-11.4,25.4-26v-94c0-14.6-10.8-26-25.4-26h-40v146.1H335.9z"></path> <polygon class="st1" points="451,222.3 451,0 592.9,0 592.9,38.1 491,38.1 491,92.1 572.9,92.1 572.9,130.2 491,130.2 491,184.2 592.9,184.2 592.9,222.3 "></polygon> <polygon class="st1" points="768.7,222.3 683.9,79.7 682,70.2 682,222.3 642,222.3 642,0 677.2,0 762,142.6 763.9,152.1 763.9,0 804,0 804,222.3 "></polygon> <polygon class="st1" points="945.5,38.1 945.5,222.3 905.5,222.3 905.5,38.1 853.1,38.1 853.1,0 997.9,0 997.9,38.1 "></polygon> <path class="st1" d="M95.3,0H0v37.1h95.3c40.9,0,74.1,33.2,74.1,74.1s-33.2,74.1-74.1,74.1H0v37.1h95.3 c61.3,0,111.2-49.9,111.2-111.1S156.6,0,95.3,0"></path> <path class="st0" d="M95.3,52.9H37v0H0v116.4h26.5v0h68.8c32.1,0,58.2-26.1,58.2-58.2C153.5,79,127.4,52.9,95.3,52.9z M95.3,132.3 H37V90h58.3c11.7,0,21.2,9.5,21.2,21.2C116.4,122.8,106.9,132.3,95.3,132.3z"></path> </g> </svg> 