<svg id="图层_1" data-name="图层 1" xmlns="http://www.w3.org/2000/svg" viewBox="0 0 852.27735 117.02223"><defs><style>.cls-1{fill:#009ade;}.cls-2{fill:#003764;}</style></defs><polygon class="cls-1" points="35.682 82.599 35.682 47.087 17.849 47.087 17.849 100.433 71.195 100.433 71.195 82.599 35.682 82.599"/><polygon class="cls-2" points="106.554 11.574 17.849 11.574 17.849 38.17 35.529 38.17 35.529 29.407 88.874 29.407 88.874 82.599 79.958 82.599 79.958 100.433 106.554 100.433 106.554 11.574"/><path class="cls-2" d="M130.07511,11.57423h27.36465V77.67987h39.35592v22.75264H130.07511Z"/><path class="cls-2" d="M208.47948,11.57423h68.71911V34.32687H235.84414V45.39572h35.51257V66.611H235.84414v33.82149H208.47948V11.57423Z"/><path class="cls-1" d="M329.92937,11.8817h9.37778l34.7439,88.5508h-9.0703L354.21937,72.9141H313.94106l-10.60764,27.5184h-9.0703ZM316.55449,65.68862h34.7439L334.2339,20.33708Z"/><path class="cls-1" d="M385.7348,11.8817h8.45537v88.5508H385.7348Z"/><path class="cls-1" d="M492.1115,78.56458a22.51771,22.51771,0,0,0,2.93957-8.10094,56.81329,56.81329,0,0,0,.66062-8.70028h7.20037A68.44461,68.44461,0,0,1,501.408,73.46449,32.72543,32.72543,0,0,1,496.9,84.32425l14.05174,16.56128h-9.72445l-8.41463-10.20018a34.2479,34.2479,0,0,1-12.1457,9.5998,37.05947,37.05947,0,0,1-15.14655,2.88036,29.71123,29.71123,0,0,1-10.58139-1.86034,26.3137,26.3137,0,0,1-8.59745-5.21954,24.08614,24.08614,0,0,1-5.77006-8.10094,25.60406,25.60406,0,0,1-2.1034-10.50038,23.09514,23.09514,0,0,1,1.6796-8.881,28.2292,28.2292,0,0,1,4.50076-7.44032,33.22687,33.22687,0,0,1,6.53975-5.94041,51.314,51.314,0,0,1,7.92124-4.49972,67.606,67.606,0,0,1-6.36109-8.82077A19.83406,19.83406,0,0,1,449.869,31.40171a16.27294,16.27294,0,0,1,1.56015-7.26062,15.7642,15.7642,0,0,1,4.19953-5.34,17.87037,17.87037,0,0,1,6.18035-3.2408,25.56732,25.56732,0,0,1,7.50057-1.07922,19.87983,19.87983,0,0,1,7.32086,1.31917,17.65674,17.65674,0,0,1,5.75968,3.60122,16.20876,16.20876,0,0,1,5.04088,11.76034,18.74409,18.74409,0,0,1-1.38045,7.50056,19.2155,19.2155,0,0,1-3.71964,5.64023,30.56568,30.56568,0,0,1-5.46053,4.49971q-3.12237,2.04264-6.48054,4.08007Zm-28.682-22.68139a35.971,35.971,0,0,0-6.66024,4.01983,28.39664,28.39664,0,0,0-5.28083,5.22058,25.69432,25.69432,0,0,0-3.53994,6.18036,18.09484,18.09484,0,0,0-1.32021,6.78073,19.07132,19.07132,0,0,0,1.4999,7.74051,17.33687,17.33687,0,0,0,4.08112,5.81992,18.14694,18.14694,0,0,0,6.12011,3.71964,21.93937,21.93937,0,0,0,7.7405,1.32021,23.58236,23.58236,0,0,0,12.30047-3.17951,37.83556,37.83556,0,0,0,9.66005-8.34088ZM478.79,36.08216a10.83531,10.83531,0,0,0-.65958-10.02048,10.80592,10.80592,0,0,0-9.5406-5.10113,12.87934,12.87934,0,0,0-4.32.72086,12.12569,12.12569,0,0,0-3.66043,2.04,9.75018,9.75018,0,0,0-2.58017,3.23975,9.521,9.521,0,0,0-.95978,4.32,10.88506,10.88506,0,0,0,.95978,4.20056,29.28991,29.28991,0,0,0,2.34022,4.44051q1.37734,2.15949,2.93957,4.14032,1.55807,1.98032,2.7609,3.41945,3.59914-2.15949,7.25958-4.73966A15.81713,15.81713,0,0,0,478.79,36.08216Z"/><path class="cls-1" d="M550.67323,100.88553V14.481H580.1956q3.59914,0,7.07988.1797a48.44626,48.44626,0,0,1,6.83994.84032,34.31067,34.31067,0,0,1,6.54079,1.97979,30.85728,30.85728,0,0,1,6.18036,3.4797,26.28721,26.28721,0,0,1,7.08092,7.62105,44.3257,44.3257,0,0,1,4.38026,9.48035,55.799,55.799,0,0,1,2.28,10.08074,74.08752,74.08752,0,0,1,.65959,9.4201,72.40559,72.40559,0,0,1-.54014,8.76053,57.77117,57.77117,0,0,1-1.73984,8.70028,44.83211,44.83211,0,0,1-3.18055,8.16118,31.40181,31.40181,0,0,1-4.9796,7.14013,26.58268,26.58268,0,0,1-6.54079,5.40028,33.82922,33.82922,0,0,1-7.44032,3.18055,44.48884,44.48884,0,0,1-8.10094,1.56015q-4.20212.42068-8.51954.41964Zm8.16119-6.96043H578.3955a77.18164,77.18164,0,0,0,10.37989-.65958,30.02952,30.02952,0,0,0,9.901-3.301,19.53455,19.53455,0,0,0,7.07988-5.88017,32.343,32.343,0,0,0,4.38027-8.0999,43.43252,43.43252,0,0,0,2.28-9.1812,67.93942,67.93942,0,0,0,.66062-9.24042,77.85918,77.85918,0,0,0-.60038-9.5406,39.15108,39.15108,0,0,0-2.28-9.24041,30.79952,30.79952,0,0,0-4.56-8.04069,22.88038,22.88038,0,0,0-7.44032-6.05987,25.49231,25.49231,0,0,0-9.121-2.64041,94.79506,94.79506,0,0,0-10.68007-.59934H558.83442Z"/><path class="cls-1" d="M626.39558,100.88553,660.35741,14.481h9.24041l33.12256,86.40449h-8.40113L684.359,73.76364H644.99689l-10.20122,27.12189Zm21.36118-34.08232h33.84238L664.67743,21.44147Z"/><path class="cls-1" d="M703.55966,14.481h62.88278v6.96043h-27.3608v79.44406h-8.16118V21.44147h-27.3608Z"/><path class="cls-1" d="M764.16246,100.88553,798.1243,14.481h9.24041l33.12255,86.40449h-8.40113l-9.96024-27.12189H782.76377l-10.20122,27.12189Zm21.36118-34.08232H819.366L802.44431,21.44147Z"/></svg>