<?xml version="1.0" encoding="utf-8"?>
<!-- Generator: Adobe Illustrator 24.0.2, SVG Export Plug-In . SVG Version: 6.00 Build 0)  -->
<svg version="1.1" id="Layer_1" xmlns="http://www.w3.org/2000/svg" xmlns:xlink="http://www.w3.org/1999/xlink" x="0px" y="0px"
	 viewBox="0 0 1000 94.2" style="enable-background:new 0 0 1000 94.2;" xml:space="preserve">
<style type="text/css">
	.st0{fill:#003764;}
</style>
<g>
	<path class="st0" d="M0,1.6h19.4v57.8h34.7V76H0V1.6z"/>
	<path class="st0" d="M63.7,1.6h54.9v15.5H83.1v15.2h30.7v15H83.1V76H63.7V1.6z"/>
	<path class="st0" d="M160.3,1.6h35.4c13.9,0,26.9,6.4,26.9,24c0,18.5-10.5,25.7-26.9,25.7h-16V76h-19.4V1.6z M179.7,36.2h13
		c6.2,0,10.4-2.5,10.4-9.3c0-7.1-4.5-9.8-10.4-9.8h-13V36.2z"/>
	<path class="st0" d="M231.8,1.6h38c13,0,26.1,5.9,26.1,21c0,8-3.8,15.6-11.7,18.7v0.2c7.8,2,10.3,10.7,10.8,17.8
		c0.3,3.2,0.5,13.9,3.1,16.8h-19.2c-1.7-2.6-1.9-9.7-2.2-11.9c-0.5-7.5-1.7-15.2-10.8-15.2h-14.7V76h-19.4V1.6z M251.2,33.9h16.3
		c5.8,0,9-3,9-8.8c0-5.5-4.4-8-9.8-8h-15.4V33.9z"/>
	<path class="st0" d="M341,0c23.4,0,36.7,17.2,36.7,38.8S364.3,77.6,341,77.6c-23.4,0-36.7-17.2-36.7-38.8S317.6,0,341,0z M341,60.9
		c12.5,0,17.3-11,17.3-22.1s-4.8-22.1-17.3-22.1s-17.3,11-17.3,22.1S328.5,60.9,341,60.9z"/>
	<path class="st0" d="M436.6,52.5c0,16.8-8.7,25.1-26.1,25.1c-19.7,0-26.1-11.4-26.1-28v-3.2h18.3v6.9c0,4.9,2.6,7.6,7.5,7.6
		c4.5,0,7-2.5,7-9.7V1.6h19.4V52.5z"/>
	<path class="st0" d="M450.1,1.6h59.4v15.5h-40v13H506v15h-36.5v14.2h41V76h-60.4V1.6z"/>
	<path class="st0" d="M571,28.2c-1.1-7.5-6.8-11.5-15-11.5c-12.5,0-17.3,11-17.3,22.1s4.8,22.1,17.3,22.1c9.2,0,14.3-5.1,15-13.8
		h19.4c-1.1,19.3-15.1,30.5-34,30.5c-22.6,0-37.1-17.2-37.1-38.8S533.7,0,556.4,0c16.2,0,33.5,10.2,34,28.2H571z"/>
	<path class="st0" d="M659.7,18.3h-22.2V76h-19.4V18.3h-22.2V1.6h63.8V18.3z"/>
	<path class="st0" d="M683.4,51c0.4,8.8,5.7,11.6,14.1,11.6c5.8,0,11.9-2.1,11.9-7.6c0-6.7-10.6-7.8-21.4-10.8
		c-10.5-3-21.8-7.7-21.8-21.5C666.2,6.4,682.6,0,696.6,0c14.7,0,29.8,7.3,29.8,24H707c0.3-6.7-6.2-9-12-9c-4.2,0-9.4,1.5-9.4,6.4
		c0,5.8,10.7,6.8,21.6,9.8c10.7,3,21.6,8,21.6,21.5c0,18.9-16.1,24.9-32.4,24.9c-17,0-32.3-7.5-32.3-26.6H683.4z"/>
	<path class="st0" d="M738,56.6h19.4v17.2c0,15-11.6,19.5-19.4,20.3v-8.3c5.7-1.6,7.8-4.4,8.6-9.8H738V56.6z"/>
	<path class="st0" d="M803.7,1.6h19.4v57.8h34.7V76h-54.1V1.6z"/>
	<path class="st0" d="M867.4,1.6h19.4v57.8h34.7V76h-54.1V1.6z"/>
	<path class="st0" d="M980.6,28.2c-1.1-7.5-6.8-11.5-15-11.5c-12.5,0-17.3,11-17.3,22.1s4.8,22.1,17.3,22.1c9.2,0,14.3-5.1,15-13.8
		h19.4c-1.1,19.3-15.1,30.5-34,30.5c-22.6,0-37.1-17.2-37.1-38.8S943.4,0,966,0c16.2,0,33.5,10.2,34,28.2H980.6z"/>
</g>
</svg>
