<?xml version="1.0" encoding="utf-8"?>
<!-- Generator: Adobe Illustrator 25.1.0, SVG Export Plug-In . SVG Version: 6.00 Build 0)  -->
<svg version="1.1" id="Layer_1" xmlns="http://www.w3.org/2000/svg" xmlns:xlink="http://www.w3.org/1999/xlink" x="0px" y="0px"
	 viewBox="0 0 991.7 314.1" style="enable-background:new 0 0 991.7 314.1;" xml:space="preserve">
<style type="text/css">
	.st0{fill:#582F91;}
</style>
<g>
	<path class="st0" d="M313.9,157c0-86.7-70.3-157-157-157S0,70.4,0,157.1c0,27.1,18.9,74.7,18.9,74.6c1.9,2.3,4.5,2.6,8,1.4
		c9.3-3.3,14.4-10.3,14.4-20.6v-91.4c0-10.3,3-19.8,8.6-28.4c14.3-22,42-28.3,65.4-18.9c14.2,5.7,24.2,16.3,28.8,31.5
		c2.2,7.3,3,14.7,3,22.1c0,25.5-0.3,51-0.1,76.6c0,9.9,6.7,15.7,14.9,13.4c5-1.3,8.8-7.1,8.6-14.3c-0.1-15.7-0.6-31.3-0.6-47
		c0-13.1,1.4-26.1,9.5-37.3c13-18,31-24.6,52.2-21.1c18.7,3,31.8,13.8,38.9,31.5c2.8,7.1,4.1,14.4,4.2,21.9c0.1,20.8,0,41.6,0,62.4
		c0,8.6,3.6,14.7,11.2,18.7c3.9,1.9,6.9,1.9,9.3-0.9C294.4,232.8,313.9,185.7,313.9,157z"/>
	<path class="st0" d="M282,244.8c-16-5.5-21.1-18.1-21.5-33.6c-0.5-21.5,1-42.9,0-64.3c-0.8-17.4-12.1-30.4-31-35.3
		c-13.5-3.6-32.2,4.5-39.9,17.5c-4.8,8-6.3,16.7-6.3,25.9c0,18,0.4,36,0,54c-0.3,12.6-10.8,22.4-23.4,22.6
		c-15.7,0.4-26.1-9-26.4-24.8c-0.4-19,0.1-38.1,0.1-57.3c0-9.9,0.4-19.8-0.6-29.6c-1.5-16.6-10.3-29.1-26.4-33.7
		C90.7,81.6,75.4,84,63.8,97.7c-7.6,8.8-9.8,19.4-9.8,30.5c-0.1,28.1,0.3,56.1,0.4,84.3c0.1,16.5-6.3,28.1-22.8,32.9
		c-1.5,0.5-3,0.8-2.8,2.8v0.1c1.7,2.3,3.3,4.5,5,6.7c3,1.8,6.4,2.6,9.1,1.5c16.7-7.1,25.4-19.9,26-37.8c0.5-15.8,0.1-31.7,0.1-47.6
		c0,0,0,0,0.1,0c0-15.7-0.1-31.3,0-47c0.4-15.4,11.1-26.3,25.4-26.1c13.9,0.1,24.2,11.1,24.2,26.1c0,19-0.4,38.2-0.1,57.3
		c0.1,12.7-1.4,25.6,2.6,38.3c4.5,14.3,16.9,24.5,31.7,26.1c19.9,2.3,35.1-8.5,40.4-19.9c6-13.1,5.4-27.2,5.1-41.1
		c-0.3-13.1-1.3-26.1,0.1-39.1c1-9,8.4-17.5,17-19.8c9.8-2.6,20.5,0.8,26,8.2c4.6,6,6,13.1,6,20.5c-0.1,18.9-0.5,37.7-0.6,56.6
		c-0.1,17.4,4.5,32.6,20.6,42.2c6.7,4,8.8,5,11.8,2.1c2-2.4,3.9-4.9,5.7-7.5C285.4,246.6,284.4,245.7,282,244.8z"/>
	<path class="st0" d="M263,266.6c-8.6-4.9-16.1-11.3-21.4-19.9c-5.9-9.7-8-20.3-8.2-31.3c-0.4-20.3,0-40.7,0-61.1
		c0-2.6-0.1-5.1-0.8-7.6c-1-4.8-4.6-7.3-9-8.1c-4.4-0.8-7.6,1.9-10,5.4c-2.2,3.2-2.3,6.8-2.3,10.4c0,17.8,0.4,35.5,0,53.4
		c-0.6,28.3-19.3,48.3-47.4,51.3c-30.8,3.3-56-18-58.2-48.8c-1-15.1-0.3-30,0.1-44.9c0-12.5-0.1-24.8,0-37.3c0-4-0.9-7.6-2.7-11.1
		c-1.9-4-5.5-5.7-9.4-5.5c-4.2,0.1-7.8,2.4-9.3,6.8c-0.8,2.6-1.4,5.4-1.3,8.2c0.1,19.9,0.3,39.9,0.5,59.8c0.1,12,0.3,23.9-1,35.9
		c-2.2,20.8-12.4,36-31.3,45.2c-3.2,1.5-2.8,3-1.5,4.5c28.1,26.1,65.6,42.1,106.9,42.1c42.3,0,80.7-16.7,108.8-43.9
		C266.1,269.1,265.3,268,263,266.6z"/>
	<g>
		<path class="st0" d="M357.6,134.2c0-8.5,0-17-0.1-25.5h26.1c0.4,2.4,0.9,8,1,11.7c5-7.3,13-14,27.4-14c14.2,0,22,7.3,25.5,15.1
			c5.8-8.1,14.3-15.1,30.4-15.1c17.2,0,31.3,10.6,31.3,36.3v64.7h-26.6v-61.5c0-8.9-3.2-17.6-14.4-17.6c-11.6,0-16.2,7.5-16.2,22.6
			v56.5h-26.8V147c0-10.3-2.6-18.5-14.2-18.5c-11.1,0-16.3,6.8-16.3,23.8v55.2h-27L357.6,134.2L357.6,134.2z"/>
		<path class="st0" d="M604.6,182c0,9.4,0.8,23.2,1.3,25.5h-26.1c-0.8-1.9-1.3-7.2-1.4-9.7c-3.6,5.5-10.3,12-27.8,12
			c-23.8,0-33.8-15.7-33.8-31c0-22.5,18-32.8,47-32.8c4.8,0,10.8,0,14.2,0v-6c0-7.1-2.6-13.9-15.2-13.9c-11.6,0-14,4.9-15.3,12.1
			h-26c1.5-17.5,12.4-31.8,42.3-31.5c26.5,0.1,40.8,10.6,40.8,34V182H604.6z M577.9,162.5c-2.3,0-7.6,0-11.2,0
			c-16.5,0-22.5,5-22.5,14.5c0,7.2,4.4,13.1,14.2,13.1c17.4,0,19.6-12.1,19.6-25.1V162.5z"/>
		<path class="st0" d="M719.2,195.5c0,31.7-11.7,51.7-49.2,51.7c-36,0-43.1-20.2-44.1-31.3h27.9c1.9,6.8,6.9,11.5,17.5,11.5
			c17.8,0,21.1-10.8,21.1-30.2v-4.8c-5.1,8.5-13.4,13.9-27.8,13.9c-26,0-40.8-21.4-40.8-47.9c0-30.9,18.5-52,43.2-52
			c17,0,23.9,8,25.5,12.6c0.1-2.7,0.9-8.6,1-10.3h25.9c-0.1,8.8-0.3,18.8-0.3,28.3L719.2,195.5L719.2,195.5z M651.8,157.3
			c0,17,8.5,27,20.6,27c16.5,0,20.8-11.3,20.8-27.9s-3-28.1-20.3-28.1C661.1,128.4,651.8,137.6,651.8,157.3z"/>
		<path class="st0" d="M743.4,134.2c0-8.5,0-17-0.1-25.5h26.1c0.4,2.4,0.9,8,1,11.7c5-7.3,13-14,27.4-14c14.2,0,22,7.3,25.5,15.1
			c5.8-8.1,14.3-15.1,30.4-15.1c17.2,0,31.3,10.6,31.3,36.3v64.7h-26.6v-61.5c0-8.9-3.2-17.6-14.4-17.6c-11.6,0-16.2,7.5-16.2,22.6
			v56.5H801V147c0-10.3-2.6-18.5-14.2-18.5c-11.1,0-16.3,6.8-16.3,23.8v55.2h-27V134.2z"/>
		<path class="st0" d="M990.4,182c0,9.4,0.8,23.2,1.3,25.5h-26.1c-0.8-1.9-1.3-7.2-1.4-9.7c-3.6,5.5-10.3,12-27.8,12
			c-23.8,0-33.8-15.7-33.8-31c0-22.5,18-32.8,47-32.8c4.8,0,10.8,0,14.2,0v-6c0-7.1-2.6-13.9-15.2-13.9c-11.6,0-14,4.9-15.3,12.1
			h-26c1.5-17.5,12.4-31.8,42.3-31.5c26.5,0.1,40.8,10.6,40.8,34V182H990.4z M963.7,162.5c-2.3,0-7.6,0-11.2,0
			c-16.5,0-22.5,5-22.5,14.5c0,7.2,4.4,13.1,14.2,13.1c17.4,0,19.6-12.1,19.6-25.1V162.5z"/>
	</g>
</g>
</svg>
