<?xml version="1.0" encoding="utf-8"?>
<!-- Generator: Adobe Illustrator 26.2.1, SVG Export Plug-In . SVG Version: 6.00 Build 0)  -->
<svg version="1.1" id="Foundation_Logo" xmlns="http://www.w3.org/2000/svg" xmlns:xlink="http://www.w3.org/1999/xlink" x="0px"
	 y="0px" width="1200px" height="500px" viewBox="0 0 1200 500" style="enable-background:new 0 0 1200 500;" xml:space="preserve">
<style type="text/css">
	.st0{fill:#1BA266;}
	.st1{fill:#49B585;}
	.st2{fill:#D1ECE0;}
	.st3{fill:#A4DAC2;}
	.st4{fill:#76C7A3;}
</style>
<g id="Subtitle">
	<path d="M454,394c12.6,0,21,7.4,21,17c0,9.6-8.4,17-21,17c-12.7,0-21-7.4-21-17C433,401.3,441.3,394,454,394z M454,396.5
		c-10.5,0-17.1,6.1-17.1,14.4c0,8.3,6.6,14.4,17.1,14.4c10.4,0,17.1-6.2,17.1-14.4C471.1,402.6,464.4,396.5,454,396.5z"/>
	<path d="M484.1,394.5h16.2c8.3,0,13,4.4,13,9.6c0,5.2-4.8,9.6-13,9.6h-12.5v13.6h-3.7V394.5z M499.9,397.1h-12.1v14.1h12.1
		c5.7,0,9.5-2.9,9.5-7C509.5,400,505.6,397.1,499.9,397.1z"/>
	<path d="M521.1,394.5h27.4v2.6h-23.7v12.2h23.3v2.6h-23.3v13h23.7v2.6h-27.4V394.5z"/>
	<path d="M561.4,399v28.3h-3.7v-32.8h3.8l27.1,27.9v-27.9h3.7v32.8h-3.6L561.4,399z"/>
	<path d="M619,420.8c2.4,2.6,6.6,4.6,12.1,4.6c6.7,0,10.9-2.7,10.9-7c0-4.7-5.1-6.6-11.6-6.6c-1.8,0-3.4,0-4,0v-2.7c0.6,0,2.3,0,4,0
		c5.7,0,11-1.9,11-6.2c0-4.1-4.8-6.3-10.4-6.3c-4.9,0-8.4,1.5-11.6,4.2L617,399c3-2.8,7.8-5,14.1-5c7.5,0,13.9,3.1,13.9,8.7
		c0,5-5.6,7.2-9.3,7.7c3.8,0.3,9.9,2.8,9.9,8.2c0,5.4-5.4,9.4-14.6,9.4c-7.1,0-12.3-2.5-14.7-5.5L619,420.8z"/>
	<path d="M655,394.5h13.8c13.4,0,21.8,7.4,21.8,16.4c0,9.1-8.4,16.4-21.8,16.4H655V394.5z M668.8,424.8c11.4,0,18-6.1,18-13.8
		c0-7.7-6.5-13.9-18-13.9h-10.1v27.7H668.8z"/>
	<path d="M716.7,394.5h27.4v2.6h-23.7v12.2h23.3v2.6h-23.3v15.5h-3.7V394.5z"/>
	<path d="M771.2,394c12.6,0,21,7.4,21,17c0,9.6-8.4,17-21,17c-12.7,0-21-7.4-21-17C750.2,401.3,758.5,394,771.2,394z M771.2,396.5
		c-10.5,0-17.1,6.1-17.1,14.4c0,8.3,6.6,14.4,17.1,14.4c10.4,0,17.1-6.2,17.1-14.4C788.3,402.6,781.5,396.5,771.2,396.5z"/>
	<path d="M801.3,394.5h3.8v20.2c0,6.6,4.6,10.7,13.1,10.7c8.5,0,13.1-4,13.1-10.7v-20.2h3.8v20.2c0,8.1-5.7,13.2-16.9,13.2
		c-11.1,0-16.9-5.1-16.9-13.2V394.5z"/>
	<path d="M849.5,399v28.3h-3.7v-32.8h3.8l27.1,27.9v-27.9h3.7v32.8h-3.6L849.5,399z"/>
	<path d="M891.1,394.5h13.8c13.4,0,21.8,7.4,21.8,16.4c0,9.1-8.4,16.4-21.8,16.4h-13.8V394.5z M904.9,424.8c11.4,0,18-6.1,18-13.8
		c0-7.7-6.5-13.9-18-13.9h-10.1v27.7H904.9z"/>
	<path d="M960.5,419.2h-23l-4.3,8.1H929l17.7-32.8h4.6l17.7,32.8h-4.1L960.5,419.2z M938.6,416.7h20.7l-10.4-19.4L938.6,416.7z"/>
	<path d="M981.9,397.1h-14.1v-2.6h32v2.6h-14.1v30.3h-3.8V397.1z"/>
	<path d="M1007.4,394.5h3.7v32.8h-3.7V394.5z"/>
	<path d="M1041.2,394c12.6,0,21,7.4,21,17c0,9.6-8.4,17-21,17c-12.7,0-21-7.4-21-17C1020.2,401.3,1028.5,394,1041.2,394z
		 M1041.2,396.5c-10.5,0-17.1,6.1-17.1,14.4c0,8.3,6.6,14.4,17.1,14.4c10.4,0,17.1-6.2,17.1-14.4
		C1058.3,402.6,1051.6,396.5,1041.2,396.5z"/>
	<path d="M1075.1,399v28.3h-3.7v-32.8h3.8l27.1,27.9v-27.9h3.7v32.8h-3.6L1075.1,399z"/>
</g>
<g id="Gem">
	<g>
		<g>
			<path class="st0" d="M370.6,302.8l8,24.7l8.1,24.9c15.6-17.3,27.6-37.8,35-60.5l-25.6,5.4L370.6,302.8z"/>
			<path class="st0" d="M288,362.8l-13,22.5L261.9,408c24.3,0,47.5-5.2,68.3-14.5L309,378.1L288,362.8z"/>
			<path class="st0" d="M335.7,341.6l-2.7,25.9l-2.7,26c21.6-9.6,40.8-23.7,56.5-41.1l-25.6-5.4L335.7,341.6z"/>
		</g>
		<g>
			<path class="st1" d="M153.2,302.8l-25.5-5.4l-25.6-5.4c7.4,22.6,19.4,43.2,35,60.5l8.1-24.9L153.2,302.8z"/>
			<path class="st1" d="M386.7,253.2l17.4,19.3l17.5,19.5c5.3-16.3,8.2-33.8,8.2-51.9c0-5.9-0.3-11.8-0.9-17.6l-21.2,15.4
				L386.7,253.2z"/>
			<path class="st1" d="M381.3,201.3l23.8,10.6l23.9,10.6c-2.5-24-10-46.5-21.6-66.4l-13.1,22.7L381.3,201.3z"/>
			<path class="st1" d="M188.1,341.6l-25.5,5.4l-25.6,5.4c15.6,17.4,34.9,31.4,56.5,41.1l-2.7-26L188.1,341.6z"/>
			<path class="st1" d="M235.8,362.8l-21.1,15.3l-21.2,15.4c20.9,9.3,44,14.5,68.3,14.5c0,0,0,0,0,0l-13.1-22.7L235.8,362.8z"/>
			<path class="st1" d="M288,362.8L288,362.8l21,15.3l21.2,15.4l2.7-26l2.7-25.9l0,0C321.6,351.8,305.5,359.1,288,362.8z"/>
			<path class="st1" d="M370.6,302.8L370.6,302.8c-8.8,15.2-20.8,28.4-34.9,38.7l0,0.1l25.5,5.4l25.6,5.4c0,0,0,0,0,0l-8.1-24.9
				L370.6,302.8z"/>
		</g>
		<g>
			<path class="st2" d="M312.9,125.4L312.9,125.4l-8-24.8l-8.1-24.9l-17.5,19.4l-17.4,19.3l0,0C280.1,114.6,297.3,118.5,312.9,125.4
				z"/>
			<path class="st2" d="M261.8,114.6L261.8,114.6l-17.4-19.4L227,75.8l-8.1,24.9l-8,24.7l0,0C226.4,118.5,243.7,114.6,261.8,114.6z"
				/>
			<path class="st2" d="M168.6,156.1L168.6,156.1c11.7-13,26.1-23.5,42.2-30.7l0,0l-23.8-10.6l-23.9-10.6c0,0,0,0,0,0l2.7,26
				L168.6,156.1z"/>
			<path class="st2" d="M168.6,156.1L168.6,156.1l-26-0.1h-26.2l13.1,22.7l13,22.5l0,0C148,184.4,157,169,168.6,156.1z"/>
			<path class="st2" d="M94.8,222.5l21.2,15.4l21.1,15.3l0,0c-0.4-4.3-0.7-8.7-0.7-13.1c0-13.5,2.2-26.6,6.1-38.8l0,0l-23.8,10.6
				L94.8,222.5C94.8,222.5,94.8,222.5,94.8,222.5z"/>
		</g>
		<g>
			<path class="st3" d="M168.6,156.1L168.6,156.1L168.6,156.1l-2.7-25.9l-2.7-26c-19,13.8-34.9,31.5-46.7,51.9h26.2H168.6z"/>
			<path class="st3" d="M118.7,211.9l23.8-10.6l0,0l0,0l-13-22.5l-13.1-22.6c-11.5,19.9-19.1,42.4-21.6,66.4L118.7,211.9z"/>
			<path class="st3" d="M210.8,125.4l8-24.7l8.1-24.9c-23.4,5-45.1,14.8-63.8,28.4l23.9,10.6L210.8,125.4z"/>
			<path class="st3" d="M261.9,114.5l17.4-19.3l17.5-19.5c-11.3-2.4-22.9-3.6-34.9-3.6c-12,0-23.7,1.3-34.9,3.6l17.5,19.5
				L261.9,114.5z"/>
			<path class="st3" d="M381.2,201.3L381.2,201.3l13-22.5l13.1-22.7h-26.2h-26l0,0.1C366.8,169,375.7,184.4,381.2,201.3z"/>
			<path class="st3" d="M312.9,125.4L312.9,125.4c16.1,7.2,30.5,17.7,42.2,30.7h0.1l2.7-25.9l2.7-26c0,0,0,0,0,0l-23.9,10.6
				L312.9,125.4z"/>
			<path class="st3" d="M137.1,253.2L137.1,253.2l-17.4,19.3L102.1,292l25.6,5.4l25.5,5.4l0,0C144.6,287.9,139,271.1,137.1,253.2z"
				/>
			<path class="st3" d="M188.1,341.6L188.1,341.6c-14.2-10.4-26.1-23.6-34.9-38.8l0,0l-8,24.7l-8.1,24.9c0,0,0,0,0,0l25.6-5.4
				L188.1,341.6z"/>
		</g>
		<g>
			<path class="st4" d="M137.1,253.2L116,237.9l-21.2-15.4c-0.6,5.8-0.9,11.6-0.9,17.6c0,18.1,2.9,35.6,8.2,51.9l17.5-19.5
				L137.1,253.2z"/>
			<path class="st4" d="M355.2,156.1h26l26.2,0c-11.8-20.4-27.8-38.1-46.7-51.9l-2.7,26L355.2,156.1z"/>
			<path class="st4" d="M312.9,125.4l23.8-10.6l23.9-10.6c-18.7-13.6-40.4-23.5-63.8-28.4l8.1,24.9L312.9,125.4z"/>
			<path class="st4" d="M288,362.8L288,362.8c-8.4,1.8-17.2,2.7-26.1,2.7c-8.9,0-17.7-0.9-26.1-2.7l0,0l13,22.5l13.1,22.7l13.1-22.7
				L288,362.8z"/>
			<path class="st4" d="M370.6,302.8L370.6,302.8l25.5-5.4l25.6-5.4l-17.5-19.4l-17.4-19.3l0,0C384.8,271.1,379.2,287.9,370.6,302.8
				z"/>
			<path class="st4" d="M387.4,240.1c0,4.4-0.2,8.8-0.7,13.1l0,0l21.1-15.3l21.2-15.4c0,0,0,0,0,0L405,211.9l-23.8-10.6l0,0
				C385.2,213.5,387.4,226.5,387.4,240.1z"/>
			<path class="st4" d="M188.2,341.6L188.2,341.6l2.7,25.9l2.7,26l21.2-15.4l21.1-15.3l0,0C218.3,359.1,202.1,351.8,188.2,341.6z"/>
		</g>
	</g>
</g>
<g id="Letters">
	<g>
		<path d="M906.7,115.1h199.4v45.6H959.8v54.2h146.3v45.6H959.8v103.9h-53.1V115.1z"/>
	</g>
	<path d="M641.3,115.1h98.3c78.1,0,132.4,49.7,132.4,124.9s-54.2,124.5-132.4,124.5h-98.3V115.1z M739.2,319.5
		c50.5,0,79.9-36.3,79.9-79.5c0-45.1-27.5-79.9-79.9-79.9H693v159.4H739.2z"/>
	<path d="M589.3,250.7c-9.5-8.4-23.1-14.1-40.5-17c14.4-4.3,25.9-11.1,34.4-20.3c10.1-10.8,15.1-24.2,15.1-39.6
		c0-18.6-8.1-33.3-24.1-43.7c-15.7-10.2-37.3-15.4-64.2-15.4c-27.4,0-51.9,5.7-73,16.8c8.3,13.3,15,27.6,20.1,42.7
		c8.6-4.9,16.6-8.5,23.9-10.6c8.5-2.6,17-3.8,25.2-3.8c23.2,0,34.5,8.2,34.5,25.1c0,11.1-4.2,18.6-12.7,23.2
		c-8.9,4.7-23.2,7.1-42.7,7.1h-18.9c1,8.1,1.5,16.4,1.5,24.8c0,6.1-0.3,12.2-0.8,18.1h17.8c21.2,0,36.7,2.3,46.2,6.8
		c9.2,4.4,13.6,11.6,13.6,22.1c0,11.9-3.9,20.3-11.9,25.6c-8.2,5.4-21.2,8.2-38.6,8.2c-11.5,0-23.3-1.5-35-4.4
		c-1.8-0.5-3.6-0.9-5.4-1.4c-5.5,14.1-12.6,27.5-20.9,39.9c19.9,6.8,42.4,10.2,67.2,10.2c33.6,0,59.9-6.6,78.1-19.6
		c18.4-13.2,27.8-31.9,27.8-55.5C606.1,273.7,600.4,260.4,589.3,250.7z"/>
	<path d="M261.9,114.5c-69.3,0-125.5,56.2-125.5,125.5s56.2,125.5,125.5,125.5s125.5-56.2,125.5-125.5S331.2,114.5,261.9,114.5z
		 M261.9,321.4c-44.9,0-81.4-36.4-81.4-81.4s36.4-81.4,81.4-81.4s81.4,36.4,81.4,81.4S306.8,321.4,261.9,321.4z"/>
</g>
</svg>
