<svg xmlns="http://www.w3.org/2000/svg" role="img" viewBox="-4.12 -4.12 214.24 39.99"><path fill="#00CEFF" d="M41.203 25.019H83.203V27.519H41.203z"/><path fill="#fff" d="M92.9028 26.6293H94.5818V27.6183C94.1908 27.8828 93.7308 28.0323 93.2708 28.0323C92.0403 28.0323 90.9938 26.9743 90.9938 25.7208C90.9938 24.4788 92.0403 23.4208 93.2708 23.4208C93.9493 23.4208 94.6278 23.7428 95.0533 24.2718L96.4908 22.9953C95.6973 22.1443 94.4783 21.6383 93.2708 21.6383C90.9363 21.6383 88.9698 23.5013 88.9698 25.7208C88.9698 27.9403 90.9363 29.8148 93.2708 29.8148C94.4783 29.8148 95.6973 29.3088 96.4908 28.4463V25.1458H92.9028V26.6293ZM100.595 27.9173V21.7763H98.629V29.6768H104.402V27.9173H100.595ZM110.12 29.8148C112.42 29.8148 114.363 27.9403 114.363 25.7208C114.363 23.5013 112.42 21.6383 110.12 21.6383C107.808 21.6383 105.865 23.5013 105.865 25.7208C105.865 27.9403 107.808 29.8148 110.12 29.8148ZM110.12 28.0323C108.912 28.0323 107.889 26.9743 107.889 25.7208C107.889 24.4788 108.912 23.4208 110.12 23.4208C111.327 23.4208 112.339 24.4788 112.339 25.7208C112.339 26.9743 111.327 28.0323 110.12 28.0323ZM119.46 29.8148C121.415 29.8148 122.622 28.8258 122.622 27.2388C122.622 25.7553 121.484 25.2493 119.713 24.8698C118.54 24.6168 118.16 24.4558 118.16 23.9728C118.16 23.5818 118.517 23.2828 119.149 23.2828C119.885 23.2828 120.679 23.5703 121.403 24.1223L122.404 22.7193C121.564 22.0293 120.529 21.6383 119.195 21.6383C117.401 21.6383 116.182 22.6503 116.182 24.1683C116.182 25.7553 117.436 26.2153 119.126 26.5948C120.276 26.8708 120.644 26.9743 120.644 27.4458C120.644 27.8713 120.265 28.1703 119.529 28.1703C118.563 28.1703 117.7 27.8023 116.93 27.1698L115.814 28.4923C116.78 29.3548 118.057 29.8148 119.46 29.8148ZM127.683 29.8148C129.638 29.8148 130.845 28.8258 130.845 27.2388C130.845 25.7553 129.707 25.2493 127.936 24.8698C126.763 24.6168 126.383 24.4558 126.383 23.9728C126.383 23.5818 126.74 23.2828 127.372 23.2828C128.108 23.2828 128.902 23.5703 129.626 24.1223L130.627 22.7193C129.787 22.0293 128.752 21.6383 127.418 21.6383C125.624 21.6383 124.405 22.6503 124.405 24.1683C124.405 25.7553 125.659 26.2153 127.349 26.5948C128.499 26.8708 128.867 26.9743 128.867 27.4458C128.867 27.8713 128.488 28.1703 127.752 28.1703C126.786 28.1703 125.923 27.8023 125.153 27.1698L124.037 28.4923C125.003 29.3548 126.28 29.8148 127.683 29.8148ZM138.436 29.6768H140.644L137.516 21.7763H135.308L132.18 29.6768H134.388L134.871 28.4693H137.953L138.436 29.6768ZM135.457 26.9858L136.412 24.5593L137.366 26.9858H135.457ZM149.144 29.6768L147.269 27.0203C148.385 26.6293 149.098 25.6978 149.098 24.4903C149.098 22.8918 147.844 21.7763 146.096 21.7763H142.428V29.6768H144.394V27.2043H145.176L146.913 29.6768H149.144ZM144.394 23.5703H145.924C146.602 23.5703 147.074 23.9383 147.074 24.4903C147.074 25.0423 146.602 25.4103 145.924 25.4103H144.394V23.5703ZM153.571 29.6768H155.549V26.9513L158.608 21.7763H156.423L154.56 25.1113L152.778 21.7763H150.512L153.571 26.9513V29.6768Z"/><path fill="#00CEFF" d="M164.145 25.019H206.145V27.519H164.145z"/><path fill="#fff" d="M49.0354 12.2396C49.8274 12.255 50.6118 12.0864 51.3238 11.7479 52.0359 11.4094 52.6552 10.9106 53.1306 10.2927L55.3318 12.4892C53.5913 14.3863 51.5949 15.3348 49.2401 15.3348 48.1798 15.3763 47.1218 15.2094 46.1289 14.8441 45.136 14.4787 44.2287 13.9224 43.4607 13.2081 42.714 12.5066 42.1274 11.6594 41.7393 10.7217 41.3512 9.78405 41.1702 8.7771 41.2083 7.76662 41.1792 6.74534 41.369 5.72937 41.7657 4.78375 42.1624 3.83814 42.7571 2.98372 43.5119 2.2752 44.3238 1.52821 45.2824.949373 46.3299.573636 47.3775.1979 48.4922.0330489 49.6069.0890344 50.7216.14502 51.8131.420681 52.8155.899379 53.8179 1.37808 54.7105 2.04989 55.4393 2.87426L53.3405 5.2206C52.8781 4.61348 52.2758 4.12092 51.5822 3.78271 50.8886 3.4445 50.1231 3.27011 49.3476 3.27364 48.1389 3.25096 46.9669 3.67956 46.0715 4.47177 45.6068 4.88804 45.242 5.39915 45.0031 5.96867 44.7642 6.53819 44.657 7.15209 44.6893 7.76662 44.6569 8.37983 44.7538 8.993 44.9739 9.56829 45.194 10.1436 45.5327 10.6687 45.9691 11.1114 46.8131 11.8441 47.9054 12.2461 49.0354 12.2396zM57.999 15.1352V.30835H61.3776V12.2098H67.8788V15.1552L57.999 15.1352zM82.724 13.0883C81.1858 14.4994 79.1536 15.2851 77.0418 15.2851 74.9301 15.2851 72.8978 14.4994 71.3597 13.0883 70.6096 12.3868 70.0174 11.5408 69.6208 10.6039 69.2242 9.66712 69.0319 8.66006 69.0561 7.64682 69.0271 6.63297 69.2173 5.62452 69.6141 4.68703 70.011 3.74953 70.6057 2.90398 71.3597 2.20532 72.8978.794225 74.9301.00854492 77.0418.00854492 79.1536.00854492 81.1858.794225 82.724 2.20532 83.4741 2.90682 84.0663 3.75289 84.4628 4.6897 84.8594 5.62652 85.0517 6.63358 85.0275 7.64682 85.0565 8.66068 84.8664 9.66912 84.4695 10.6066 84.0726 11.5441 83.4779 12.3897 82.724 13.0883zM81.5466 7.64682C81.5561 6.39237 81.0809 5.18041 80.2156 4.25213 79.8082 3.81224 79.3106 3.46061 78.7551 3.21994 78.1996 2.97928 77.5985 2.85492 76.9906 2.85492 76.3828 2.85492 75.7817 2.97928 75.2262 3.21994 74.6707 3.46061 74.1731 3.81224 73.7656 4.25213 72.8905 5.1745 72.4138 6.39039 72.4347 7.64682 72.4252 8.90128 72.9004 10.1132 73.7656 11.0415 74.1731 11.4814 74.6707 11.833 75.2262 12.0737 75.7817 12.3144 76.3828 12.4387 76.9906 12.4387 77.5985 12.4387 78.1996 12.3144 78.7551 12.0737 79.3106 11.833 79.8082 11.4814 80.2156 11.0415 80.659 10.5912 81.0052 10.0588 81.2338 9.47569 81.4624 8.89259 81.5688 8.27071 81.5466 7.64682zM91.9382 11.341C92.2084 11.6824 92.5586 11.9558 92.9594 12.1382 93.3601 12.3206 93.7999 12.4067 94.2418 12.3894 94.6771 12.4119 95.1113 12.3278 95.5047 12.1447 95.8982 11.9615 96.2383 11.6852 96.4942 11.341 97.082 10.5256 97.3706 9.54058 97.3132 8.54536V.358154H100.692V8.64521C100.692 10.7919 100.077 12.4393 98.8489 13.5875 98.2304 14.1659 97.4999 14.6183 96.7001 14.9183 95.9002 15.2183 95.0471 15.3599 94.1906 15.3348 93.3263 15.3599 92.4654 15.2185 91.6573 14.9187 90.8492 14.6189 90.1096 14.1665 89.481 13.5875 88.2525 12.4393 87.6382 10.7919 87.6382 8.64521V.358154H91.0116V8.54536C91.0121 9.54897 91.3362 10.527 91.9382 11.341zM115.844 2.25531C117.278 3.55328 118.046 5.35047 118.046 7.64688 118.046 9.94329 117.329 11.7904 115.947 13.1383 114.565 14.4862 112.363 15.1352 109.497 15.1352H104.224V.30835H109.599C112.312.30835 114.411.957335 115.844 2.25531zM113.387 11.0915C114.206 10.3427 114.616 9.19446 114.616 7.74672 114.616 6.29899 114.206 5.15078 113.387 4.40195 112.568 3.65312 111.288 3.20382 109.548 3.20382H107.654V12.2397H109.804C111.104 12.3072 112.382 11.8976 113.387 11.0915zM137.344.30835H140.723V15.1352H137.344L130.075 5.84969V15.1352H126.697V.30835H129.871L137.344 9.84345V.30835zM155.312 15.1352L153.879 11.9402H147.48L146.047 15.1352H142.412L148.965.30835H152.241L158.793 15.1352H155.312zM150.756 4.75141L148.862 9.0447H152.65L150.756 4.75141zM166.062 3.22373V15.205H162.678V3.22373H158.378V.378174H170.408V3.22373H166.062zM172.819.30835H176.198V15.1352H172.819V.30835zM185.566 9.7436L189.456.30835H193.142L187.05 15.1352H184.179L178.087.30835H181.773L185.566 9.7436zM205.889.30835V3.25375H198.312V6.29899H205.121V9.14454H198.312V12.2397H206.145V15.2051H194.929V.358272H205.883L205.889.30835zM4.65834 21.3252H0V32.0085H10.9036V27.4357H4.65834V21.3252zM28.1037 21.3751V27.4357H21.8584V32.0285H32.762V21.3252H28.0473L28.1037 21.3751zM0 10.6919H4.70953L4.65834 10.6419V4.60137H10.9036V.00854492H0V10.6919zM21.8584.00854492V4.60137H28.1037V10.6919H32.762V.00854492H21.8584z"/><g fill="#fff" opacity=".8"><path d="M21.2441 10.6919L14.9988 4.60137H21.8584V.00854492H10.9036V4.60137L17.1488 10.6919H21.2441zM15.6131 21.3252H11.5179L16.6881 26.3673 17.7119 27.4157H10.9036V32.0085H21.8584V27.3658L18.7357 24.3704 15.6131 21.3252zM28.1036 10.6919V17.3315L27.0235 16.2832 21.8533 11.241V15.2847L24.9247 18.28 28.0473 21.3253H32.7569V10.6919H28.1036zM10.9036 16.7325L4.70953 10.6919H0V21.3253H4.65834V14.6857L10.9036 20.7761V16.7325z" opacity=".8"/></g></svg>