<svg xmlns="http://www.w3.org/2000/svg" role="img" viewBox="-4.12 -3.87 214.24 40.24"><path d="M41.203 19.414H206.144V32.414H41.203z"/><path fill="#fff" d="M98.1603 26.7311H99.3663V27.3341C99.1053 27.4961 98.8083 27.5861 98.5023 27.5861C97.6293 27.5861 96.8913 26.8481 96.8913 25.9661C96.8913 25.0931 97.6293 24.3551 98.5023 24.3551C98.9973 24.3551 99.4653 24.5891 99.7713 24.9851L101.058 23.8601C100.419 23.1761 99.4743 22.7711 98.5023 22.7711C96.6483 22.7711 95.0913 24.2291 95.0913 25.9661C95.0913 27.7031 96.6483 29.1701 98.5023 29.1701C99.4743 29.1701 100.419 28.7651 101.058 28.0721V25.4441H98.1603V26.7311ZM104.82 27.5051V22.8791H103.074V29.0621H107.7V27.5051H104.82ZM112.65 29.1701C114.477 29.1701 116.016 27.7031 116.016 25.9661C116.016 24.2291 114.477 22.7711 112.65 22.7711C110.823 22.7711 109.284 24.2291 109.284 25.9661C109.284 27.7031 110.823 29.1701 112.65 29.1701ZM112.65 27.5861C111.804 27.5861 111.084 26.8481 111.084 25.9661C111.084 25.0931 111.804 24.3551 112.65 24.3551C113.496 24.3551 114.216 25.0931 114.216 25.9661C114.216 26.8481 113.496 27.5861 112.65 27.5861ZM120.49 29.1701C122.038 29.1701 123.037 28.4051 123.037 27.1001C123.037 25.9211 122.137 25.5341 120.697 25.2281C119.815 25.0391 119.599 24.9401 119.599 24.6251C119.599 24.3911 119.806 24.2201 120.229 24.2201C120.787 24.2201 121.417 24.4271 121.993 24.8411L122.866 23.6081C122.182 23.0591 121.345 22.7711 120.274 22.7711C118.807 22.7711 117.835 23.5721 117.835 24.8051C117.835 26.0921 118.87 26.4431 120.211 26.7491C121.066 26.9471 121.282 26.9921 121.282 27.2891C121.282 27.5591 121.03 27.7211 120.553 27.7211C119.824 27.7211 119.14 27.4601 118.51 26.9651L117.538 28.1261C118.321 28.8191 119.374 29.1701 120.49 29.1701ZM127.49 29.1701C129.038 29.1701 130.037 28.4051 130.037 27.1001C130.037 25.9211 129.137 25.5341 127.697 25.2281C126.815 25.0391 126.599 24.9401 126.599 24.6251C126.599 24.3911 126.806 24.2201 127.229 24.2201C127.787 24.2201 128.417 24.4271 128.993 24.8411L129.866 23.6081C129.182 23.0591 128.345 22.7711 127.274 22.7711C125.807 22.7711 124.835 23.5721 124.835 24.8051C124.835 26.0921 125.87 26.4431 127.211 26.7491C128.066 26.9471 128.282 26.9921 128.282 27.2891C128.282 27.5591 128.03 27.7211 127.553 27.7211C126.824 27.7211 126.14 27.4601 125.51 26.9651L124.538 28.1261C125.321 28.8191 126.374 29.1701 127.49 29.1701ZM136.253 29.0621H138.224L135.848 22.8791H133.877L131.501 29.0621H133.472L133.787 28.2341H135.938L136.253 29.0621ZM134.282 26.9471L134.867 25.4441L135.443 26.9471H134.282ZM145.468 29.0621L144.019 27.0011C144.82 26.6681 145.333 25.9571 145.333 25.0391C145.333 23.7701 144.352 22.8791 142.966 22.8791H140.005V29.0621H141.751V27.1991H142.174L143.479 29.0621H145.468ZM141.751 24.4631H142.822C143.236 24.4631 143.533 24.7061 143.533 25.0391C143.533 25.3721 143.236 25.6151 142.822 25.6151H141.751V24.4631ZM149.274 29.0621H151.02V27.0281L153.387 22.8791H151.47L150.147 25.3901L148.896 22.8791H146.898L149.274 27.0281V29.0621Z"/><path d="M49.0354 12.625C49.8274 12.6403 50.6118 12.4718 51.3238 12.1333 52.0359 11.7947 52.6552 11.2959 53.1306 10.678L55.3318 12.8746C53.5913 14.7717 51.5949 15.7202 49.2401 15.7202 48.1798 15.7617 47.1218 15.5948 46.1289 15.2294 45.136 14.8641 44.2287 14.3077 43.4607 13.5935 42.714 12.892 42.1274 12.0447 41.7393 11.1071 41.3512 10.1694 41.1702 9.16247 41.2083 8.152 41.1792 7.13071 41.369 6.11474 41.7657 5.16913 42.1624 4.22352 42.7571 3.3691 43.5119 2.66057 44.3238 1.91358 45.2824 1.33475 46.3299.959012 47.3775.583275 48.4922.418425 49.6069.47441 50.7216.530396 51.8131.806057 52.8155 1.28475 53.8179 1.76345 54.7105 2.43526 55.4393 3.25964L53.3405 5.60597C52.8781 4.99885 52.2758 4.50629 51.5822 4.16808 50.8886 3.82987 50.1231 3.65549 49.3476 3.65901 48.1389 3.63633 46.9669 4.06494 46.0715 4.85714 45.6068 5.27341 45.242 5.78452 45.0031 6.35404 44.7642 6.92356 44.657 7.53747 44.6893 8.152 44.6569 8.76521 44.7538 9.37838 44.9739 9.95366 45.194 10.5289 45.5327 11.0541 45.9691 11.4968 46.8131 12.2295 47.9054 12.6314 49.0354 12.625zM57.999 15.5206V.693726H61.3776V12.5951H67.8788V15.5405L57.999 15.5206zM82.724 13.4737C81.1858 14.8848 79.1536 15.6705 77.0418 15.6705 74.9301 15.6705 72.8978 14.8848 71.3597 13.4737 70.6096 12.7722 70.0174 11.9261 69.6208 10.9893 69.2242 10.0525 69.0319 9.04544 69.0561 8.0322 69.0271 7.01835 69.2173 6.0099 69.6141 5.0724 70.011 4.13491 70.6057 3.28935 71.3597 2.5907 72.8978 1.1796 74.9301.393921 77.0418.393921 79.1536.393921 81.1858 1.1796 82.724 2.5907 83.4741 3.2922 84.0663 4.13826 84.4628 5.07508 84.8594 6.0119 85.0517 7.01896 85.0275 8.0322 85.0565 9.04605 84.8664 10.0545 84.4695 10.992 84.0726 11.9295 83.4779 12.775 82.724 13.4737zM81.5466 8.0322C81.5561 6.77774 81.0809 5.56579 80.2156 4.6375 79.8082 4.19762 79.3106 3.84599 78.7551 3.60532 78.1996 3.36465 77.5985 3.2403 76.9906 3.2403 76.3828 3.2403 75.7817 3.36465 75.2262 3.60532 74.6707 3.84599 74.1731 4.19762 73.7656 4.6375 72.8905 5.55987 72.4138 6.77576 72.4347 8.0322 72.4252 9.28665 72.9004 10.4986 73.7656 11.4269 74.1731 11.8668 74.6707 12.2184 75.2262 12.4591 75.7817 12.6997 76.3828 12.8241 76.9906 12.8241 77.5985 12.8241 78.1996 12.6997 78.7551 12.4591 79.3106 12.2184 79.8082 11.8668 80.2156 11.4269 80.659 10.9766 81.0052 10.4442 81.2338 9.86106 81.4624 9.27797 81.5688 8.65608 81.5466 8.0322zM91.9382 11.7264C92.2084 12.0678 92.5586 12.3411 92.9594 12.5235 93.3601 12.7059 93.7999 12.7921 94.2418 12.7747 94.6771 12.7973 95.1113 12.7132 95.5047 12.53 95.8982 12.3469 96.2383 12.0706 96.4942 11.7264 97.082 10.911 97.3706 9.92596 97.3132 8.93074V.74353H100.692V9.03058C100.692 11.1772 100.077 12.8247 98.8489 13.9729 98.2304 14.5513 97.4999 15.0037 96.7001 15.3037 95.9002 15.6037 95.0471 15.7453 94.1906 15.7201 93.3263 15.7453 92.4654 15.6039 91.6573 15.3041 90.8492 15.0043 90.1096 14.5519 89.481 13.9729 88.2525 12.8247 87.6382 11.1772 87.6382 9.03058V.74353H91.0116V8.93074C91.0121 9.93434 91.3362 10.9124 91.9382 11.7264zM115.844 2.64068C117.278 3.93865 118.046 5.73585 118.046 8.03226 118.046 10.3287 117.329 12.1758 115.947 13.5237 114.565 14.8716 112.363 15.5206 109.497 15.5206H104.224V.693726H109.599C112.312.693726 114.411 1.34271 115.844 2.64068zM113.387 11.4769C114.206 10.728 114.616 9.57984 114.616 8.1321 114.616 6.68436 114.206 5.53616 113.387 4.78733 112.568 4.0385 111.288 3.5892 109.548 3.5892H107.654V12.6251H109.804C111.104 12.6926 112.382 12.283 113.387 11.4769zM137.344.693726H140.723V15.5206H137.344L130.075 6.23507V15.5206H126.697V.693726H129.871L137.344 10.2288V.693726zM155.312 15.5206L153.879 12.3255H147.48L146.047 15.5206H142.412L148.965.693726H152.241L158.793 15.5206H155.312zM150.756 5.13678L148.862 9.43007H152.65L150.756 5.13678zM166.062 3.6091V15.5904H162.678V3.6091H158.378V.76355H170.408V3.6091H166.062zM172.819.693726H176.198V15.5206H172.819V.693726zM185.566 10.129L189.456.693726H193.142L187.05 15.5206H184.179L178.087.693726H181.773L185.566 10.129zM205.889.693726V3.63912H198.312V6.68437H205.121V9.52992H198.312V12.6251H206.145V15.5905H194.929V.743648H205.883L205.889.693726zM4.65834 21.7106H0V32.3939H10.9036V27.821H4.65834V21.7106zM28.1037 21.7605V27.821H21.8584V32.4139H32.762V21.7106H28.0473L28.1037 21.7605zM0 11.0772H4.70953L4.65834 11.0273V4.98675H10.9036V.393921H0V11.0772zM21.8584.393921V4.98675H28.1037V11.0772H32.762V.393921H21.8584z"/><g opacity=".8"><path d="M21.2441 11.0772L14.9988 4.98675H21.8584V.393921H10.9036V4.98675L17.1488 11.0772H21.2441zM15.6131 21.7106H11.5179L16.6881 26.7527 17.7119 27.8011H10.9036V32.3939H21.8584V27.7511L18.7357 24.7558 15.6131 21.7106zM28.1036 11.0773V17.7169L27.0235 16.6685 21.8533 11.6264V15.6701L24.9247 18.6654 28.0473 21.7107H32.7569V11.0773H28.1036zM10.9036 17.1178L4.70953 11.0773H0V21.7107H4.65834V15.071L10.9036 21.1615V17.1178z" opacity=".8"/></g></svg>