<svg id="Layer_1" data-name="Layer 1" xmlns="http://www.w3.org/2000/svg" viewBox="0 0 600 113"><defs><style>.cls-1{fill:#fff;}</style></defs><path class="cls-1" d="M146.214,45.3397a14.209,14.209,0,0,0,11.60491-5.617l6.17222,6.358q-7.346,8.27241-17.31413,8.271-9.96879,0-16.41861-6.2956a21.274,21.274,0,0,1-6.45086-15.89462,21.47623,21.47623,0,0,1,6.57424-16.018,22.14377,22.14377,0,0,1,16.0797-6.419,22.79023,22.79023,0,0,1,17.77641,8.08593l-5.98716,6.7898a14.02968,14.02968,0,0,0-11.35747-5.67873,13.239,13.239,0,0,0-9.28989,3.54876,12.36621,12.36621,0,0,0-3.85791,9.56783,13.05185,13.05185,0,0,0,3.64237,9.66A12.01548,12.01548,0,0,0,146.214,45.3397Z"/><path class="cls-1" d="M171.58362,53.85815v-43.146h9.62881V45.278h18.39472v8.58014Z"/><path class="cls-1" d="M241.76546,47.90147a23.51,23.51,0,0,1-32.22106,0,21.3123,21.3123,0,0,1-6.54234-15.89391,21.315,21.315,0,0,1,6.54234-15.89463,23.50808,23.50808,0,0,1,32.22107,0,21.31819,21.31819,0,0,1,6.54306,15.89463A21.3155,21.3155,0,0,1,241.76546,47.90147ZM238.49393,32.038a14.11837,14.11837,0,0,0-3.70334-9.84506,12.20994,12.20994,0,0,0-18.20894,0,14.11574,14.11574,0,0,0-3.704,9.84506,14.00468,14.00468,0,0,0,3.704,9.81458,12.27284,12.27284,0,0,0,18.20894,0A14.00743,14.00743,0,0,0,238.49393,32.038Z"/><path class="cls-1" d="M267.87457,42.717a7.88171,7.88171,0,0,0,6.48,2.99358,7.80087,7.80087,0,0,0,6.45221-2.99358q2.37387-2.99394,2.37671-8.17882v-23.826h9.62882V34.84657q0,9.38384-5.18454,14.41272a20.01923,20.01923,0,0,1-26.57425-.03049q-5.21682-5.06043-5.21572-14.38223V10.71214h9.62954v23.826Q265.46735,39.723,267.87457,42.717Z"/><path class="cls-1" d="M335.77185,16.35968q6.17079,5.64753,6.17294,15.70956,0,10.06132-6.01837,15.92512-6.01763,5.86449-18.36423,5.86379H302.80984v-43.146h15.24729Q329.59891,10.71214,335.77185,16.35968ZM328.7041,42.00649q3.548-3.33322,3.54947-9.6905,0-6.35692-3.54947-9.78338-3.55018-3.42573-10.89374-3.4261h-5.3703V45.3397h6.11054Q325.15536,45.3397,328.7041,42.00649Z"/><path class="cls-1" d="M396.75668,10.71214h9.63022v43.146h-9.63022L376.20294,26.82232V53.85815h-9.63025v-43.146h9.01194l21.172,27.77607Z"/><path class="cls-1" d="M447.74115,53.85815l-4.01178-9.32038H425.6431l-4.01178,9.32038h-10.2471l18.64218-43.146H439.346l18.64218,43.146ZM434.71744,23.55079,429.28476,36.081h10.803Z"/><path class="cls-1" d="M478.1109,19.04482V53.85815h-9.63022V19.04482H456.25961V10.71214H490.332v8.33268Z"/><path class="cls-1" d="M497.3671,10.71214h9.63021v43.146H497.3671Z"/><path class="cls-1" d="M533.53827,38.17978l10.98736-27.46764H554.9585l-17.346,43.146h-8.147l-17.346-43.146h10.43286Z"/><path class="cls-1" d="M591.18915,10.71214v8.57943H569.70941v8.88857h19.32v8.2093h-19.32V45.3397h22.159v8.51845H560.07916v-43.146Z"/><polygon class="cls-1" points="20.879 72.642 7.468 72.642 7.468 103.933 38.755 103.933 38.755 90.521 20.879 90.521 20.879 72.642"/><polygon class="cls-1" points="87.923 72.743 87.923 90.521 70.143 90.521 70.045 90.422 70.045 103.933 101.333 103.933 101.333 72.642 87.823 72.642 87.923 72.743"/><polygon class="cls-1" points="7.468 41.359 20.979 41.359 20.879 41.256 20.879 23.48 20.879 23.476 38.656 23.476 38.755 23.576 38.755 10.067 7.468 10.067 7.468 41.359"/><polygon class="cls-1" points="70.045 10.067 70.045 23.476 87.923 23.476 87.923 41.359 101.333 41.359 101.333 10.067 70.045 10.067"/><polygon class="cls-1" points="68.389 41.359 50.509 23.476 70.045 23.476 70.045 10.067 38.755 10.067 38.755 23.576 56.537 41.359 68.389 41.359"/><polygon class="cls-1" points="52.264 72.642 40.412 72.642 55.227 87.459 58.292 90.521 52.167 90.521 38.755 90.521 38.755 103.933 70.045 103.933 70.045 90.422 61.153 81.532 52.264 72.642"/><polygon class="cls-1" points="87.923 41.359 87.923 54.766 87.923 60.892 84.86 57.827 70.045 43.014 70.045 54.867 78.933 63.753 87.823 72.642 101.333 72.642 101.333 41.359 87.923 41.359"/><polygon class="cls-1" points="38.755 59.132 20.979 41.359 7.468 41.359 7.468 72.642 20.879 72.642 20.879 53.108 38.755 70.985 38.755 59.132"/><polygon class="cls-1" points="392.217 78.537 389.903 86.815 394.736 86.815 392.456 78.537 392.217 78.537"/><path class="cls-1" d="M322.1123,78.3623a4.36385,4.36385,0,0,0-4.54589,0,4.198,4.198,0,0,0-1.52344,1.90528,7.98744,7.98744,0,0,0-.54981,3.166V86.0498a7.98872,7.98872,0,0,0,.54984,3.1572,4.188,4.188,0,0,0,1.52344,1.91406,4.36378,4.36378,0,0,0,4.5459,0A4.18022,4.18022,0,0,0,323.6348,89.207a7.9704,7.9704,0,0,0,.55078-3.15723V83.43359a7.96964,7.96964,0,0,0-.55078-3.166A4.1901,4.1901,0,0,0,322.1123,78.3623Z"/><path class="cls-1" d="M417.44434,77.77148H414.1748v6.34864h3.22168a3.83015,3.83015,0,0,0,2.48829-.77442,2.82539,2.82539,0,0,0,.957-2.33593,2.98907,2.98907,0,0,0-.97266-2.40822A3.61068,3.61068,0,0,0,417.44434,77.77148Z"/><path class="cls-1" d="M123.24237,66.62781v37.04876H593.7616V66.62781Zm160.13507,21.2716a8.929,8.929,0,0,1-.52637,3.05468,7.30132,7.30132,0,0,1-1.61865,2.59961,7.6321,7.6321,0,0,1-2.791,1.80275,12.6372,12.6372,0,0,1-8.36573-.1045,7.98939,7.98939,0,0,1-2.99853-2.1289,8.785,8.785,0,0,1-1.74609-3.18946,13.31219,13.31219,0,0,1-.56641-3.96386V83.35449a11.32126,11.32126,0,0,1,1.1167-5.14453,8.23964,8.23964,0,0,1,3.26953-3.48437,10.2618,10.2618,0,0,1,5.26318-1.25977,11.01135,11.01135,0,0,1,3.76416.58984,8.02815,8.02815,0,0,1,2.74317,1.61914,7.27542,7.27542,0,0,1,1.71435,2.33594,7.782,7.782,0,0,1,.69385,2.74317H278.2261a3.71605,3.71605,0,0,0-.415-1.17968,3.41581,3.41581,0,0,0-.79737-.957,3.53506,3.53506,0,0,0-1.15625-.63771,4.6359,4.6359,0,0,0-1.49121-.22363,3.77889,3.77889,0,0,0-3.20605,1.47559,6.79471,6.79471,0,0,0-1.11621,4.17089V85.9541a9.24624,9.24624,0,0,0,.43847,2.9502,4.23092,4.23092,0,0,0,1.41944,2.06543,4.12826,4.12826,0,0,0,2.59179.75782,4.55277,4.55277,0,0,0,2.20118-.47853,3.19226,3.19226,0,0,0,1.30761-1.25975,3.449,3.449,0,0,0,.43067-1.69043v-.957h-3.7959V83.65723h8.74023Zm21.44873,7.71972h-13.9873V73.84863h5.24707V91.249h8.74023Zm24.70215-9.58593a11.56765,11.56765,0,0,1-1.14062,5.29589,8.0952,8.0952,0,0,1-3.30079,3.46875,11.86435,11.86435,0,0,1-10.47949,0A8.07621,8.07621,0,0,1,311.29,91.3291a11.57938,11.57938,0,0,1-1.13965-5.2959V83.49805A11.74042,11.74042,0,0,1,311.29,78.14648a8.01775,8.01775,0,0,1,3.31738-3.46875,10.6251,10.6251,0,0,1,5.23926-1.21191,10.45659,10.45659,0,0,1,5.24023,1.22754,8.16042,8.16042,0,0,1,3.30078,3.46875,11.629,11.629,0,0,1,1.14063,5.33594Zm22.96484,6.61132a6.74046,6.74046,0,0,1-3.00683,2.48047,12.00162,12.00162,0,0,1-4.91992.89258,12.64,12.64,0,0,1-3.93946-.542,7.51682,7.51682,0,0,1-2.69629-1.4834,6.0466,6.0466,0,0,1-1.5625-2.1289,6.837,6.837,0,0,1-.55859-2.46485h4.99219a2.45566,2.45566,0,0,0,.35937,1.00489,2.85706,2.85706,0,0,0,.80469.83789,4.13186,4.13186,0,0,0,1.21289.5664,5.64748,5.64748,0,0,0,1.59473.207,5.325,5.325,0,0,0,2.01758-.32715,2.5304,2.5304,0,0,0,1.17187-.89257,2.2359,2.2359,0,0,0,.38281-1.28418,1.76471,1.76471,0,0,0-.81347-1.56347,7.05323,7.05323,0,0,0-2.40821-.877l-3.07812-.66992a9.7392,9.7392,0,0,1-3.03809-1.11621,5.53554,5.53554,0,0,1-2.02539-2.01758,5.99343,5.99343,0,0,1-.72558-3.05469,6.09639,6.09639,0,0,1,1.07617-3.6123,6.89082,6.89082,0,0,1,2.98242-2.34472,11.09992,11.09992,0,0,1,4.42578-.82129,10.353,10.353,0,0,1,4.56934.90136,6.8095,6.8095,0,0,1,2.7998,2.36816,6.11838,6.11838,0,0,1,1.02051,3.15821h-4.84863a2.60364,2.60364,0,0,0-.51856-1.21192,3.04145,3.04145,0,0,0-1.17969-.90918,4.40384,4.40384,0,0,0-1.85839-.35156,3.69388,3.69388,0,0,0-2.416.69434,2.173,2.173,0,0,0-.83789,1.7461,1.661,1.661,0,0,0,.77344,1.41992,5.65288,5.65288,0,0,0,2.14551.81347l3.1582.65332a10.63542,10.63542,0,0,1,3.02246,1.03711,5.60908,5.60908,0,0,1,2.14453,1.97754,5.991,5.991,0,0,1,.79785,3.25391A6.62291,6.62291,0,0,1,352.49316,92.64452Zm23.84082,0a6.74046,6.74046,0,0,1-3.00683,2.48047,12.00162,12.00162,0,0,1-4.91992.89258,12.64,12.64,0,0,1-3.93946-.542,7.51682,7.51682,0,0,1-2.69629-1.4834,6.0466,6.0466,0,0,1-1.5625-2.1289,6.837,6.837,0,0,1-.55859-2.46485h4.99219a2.45566,2.45566,0,0,0,.35937,1.00489,2.85706,2.85706,0,0,0,.80469.83789,4.13186,4.13186,0,0,0,1.21289.5664,5.64748,5.64748,0,0,0,1.59473.207,5.325,5.325,0,0,0,2.01758-.32715,2.5304,2.5304,0,0,0,1.17187-.89257,2.2359,2.2359,0,0,0,.38281-1.28418,1.76471,1.76471,0,0,0-.81347-1.56347,7.05316,7.05316,0,0,0-2.40821-.877l-3.07812-.66992a9.7392,9.7392,0,0,1-3.03809-1.11621,5.53584,5.53584,0,0,1-2.02539-2.01758,5.99343,5.99343,0,0,1-.72558-3.05469,6.09639,6.09639,0,0,1,1.07617-3.6123,6.89082,6.89082,0,0,1,2.98242-2.34472,11.09992,11.09992,0,0,1,4.42578-.82129,10.353,10.353,0,0,1,4.56934.90136,6.8095,6.8095,0,0,1,2.7998,2.36816,6.11838,6.11838,0,0,1,1.02051,3.15821h-4.84863a2.60364,2.60364,0,0,0-.51856-1.21192,3.04145,3.04145,0,0,0-1.17969-.90918,4.40384,4.40384,0,0,0-1.85839-.35156,3.69388,3.69388,0,0,0-2.416.69434,2.173,2.173,0,0,0-.83789,1.7461,1.661,1.661,0,0,0,.77344,1.41992,5.65288,5.65288,0,0,0,2.14551.81347l3.1582.65332a10.63542,10.63542,0,0,1,3.02246,1.03711,5.60908,5.60908,0,0,1,2.14453,1.97754,5.991,5.991,0,0,1,.79785,3.25391,6.623,6.623,0,0,1-1.02051,3.66023Zm20.7627,2.97461-1.41895-5.0244h-6.74707l-1.41894,5.0244h-5.23145l7.01758-21.7705h6.37988l6.98536,21.7705Zm23.77734,0-3.68457-7.7832H414.1748v7.7832h-5.15136V73.84863h9.20215a9.77679,9.77679,0,0,1,4.37011.88478,6.23175,6.23175,0,0,1,2.71192,2.48828,7.38584,7.38584,0,0,1,.9248,3.75586,6.4987,6.4987,0,0,1-.62207,2.92675,6.63215,6.63215,0,0,1-1.52246,2.0498,6.42578,6.42578,0,0,1-1.74707,1.14844l4.33789,8.5166Zm22.46875-7.73535v7.73535H438.0957V88.01172l-7.28906-14.16309h5.74219l4.14648,8.97949h.207l4.17871-8.97949h5.55079Z"/></svg>