<svg xmlns="http://www.w3.org/2000/svg" role="img" viewBox="-9.56 -10.06 523.12 99.62"><g clip-path="url(#clip0_7112_17510)"><path fill="#00CEFF" d="M101.149 63.932h96v6.114h-96zm306.762 0h96v6.114h-96z"/><path d="M120.287 30.6397c1.934.0384 3.849-.3837 5.588-1.2313 1.738-.8476 3.251-2.0966 4.412-3.6437l5.375 5.5c-4.25 4.75-9.125 7.125-14.875 7.125-2.595.099-5.183-.326-7.61-1.2495-2.427-.9235-4.643-2.3266-6.515-4.1255-1.824-1.7565-3.256-3.878-4.204-6.2258-.948-2.3477-1.389-4.8691-1.296-7.3992-.072-2.5572.392-5.1011 1.361-7.4688a18.3533 18.3533 0 0 1 4.264-6.28121c1.982-1.8704 4.323-3.31974 6.881-4.26055a20.17531 20.17531 0 0 1 8.002-1.2134c2.721.14019 5.387.83041 7.834 2.02903a20.1788 20.1788 0 0 1 6.408 4.94492l-5.125 5.87501c-1.13-1.5202-2.6-2.7535-4.294-3.60035-1.694-.84685-3.563-1.28349-5.456-1.27466-2.952-.05679-5.814 1.01639-8 3.00001-1.135 1.0423-2.026 2.3221-2.609 3.7481-.584 1.426-.845 2.9632-.766 4.5019-.079 1.5354.157 3.0707.695 4.5112a11.23647 11.23647 0 0 0 2.43 3.8638c2.056 1.8557 4.729 2.8805 7.5 2.875zm21.874 7.2499V.76465h8.25V30.5146h15.875v7.375h-24.125zm60.375-5.1249c-3.756 3.5332-8.718 5.5005-13.875 5.5005-5.156 0-10.119-1.9673-13.875-5.5005a18.3052 18.3052 0 0 1-4.246-6.2207c-.968-2.3457-1.438-4.8673-1.379-7.4043-.07-2.5386.394-5.0637 1.363-7.4111a18.09751 18.09751 0 0 1 4.262-6.21391c3.756-3.53326 8.719-5.50053 13.875-5.50053 5.157 0 10.119 1.96727 13.875 5.50053a18.27675 18.27675 0 0 1 4.246 6.22061c.969 2.3457 1.438 4.8673 1.379 7.4044.071 2.5386-.393 5.0636-1.362 7.411-.969 2.3474-2.422 4.4646-4.263 6.214zm-2.875-13.625c.023-3.1411-1.137-6.1757-3.25-8.5a10.61533 10.61533 0 0 0-3.566-2.5845c-1.357-.60261-2.824-.91397-4.309-.91397-1.484 0-2.952.31136-4.308.91397a10.6093 10.6093 0 0 0-3.567 2.5845c-2.136 2.3095-3.301 5.354-3.25 8.5-.023 3.141 1.137 6.1756 3.25 8.5a10.6097 10.6097 0 0 0 3.567 2.5845c1.356.6026 2.824.9139 4.308.9139 1.485 0 2.952-.3113 4.309-.9139a10.61574 10.61574 0 0 0 3.566-2.5845c1.083-1.1275 1.928-2.4607 2.487-3.9207.558-1.46.818-3.0172.763-4.5793zm25.375 9.2498a6.7611 6.7611 0 0 0 2.494 1.996c.978.4567 2.052.6724 3.131.629 1.063.0565 2.123-.1542 3.084-.6127.961-.4585 1.791-1.1503 2.416-2.0123 1.436-2.0417 2.14-4.508 2-7V.88953h8.25V21.6395c0 5.375-1.5 9.5-4.5 12.375a15.74548 15.74548 0 0 1-5.247 3.3323 15.74832 15.74832 0 0 1-6.128 1.0427c-2.11.063-4.212-.291-6.186-1.0417a16.05555 16.05555 0 0 1-5.314-3.3333c-3-2.875-4.5-7-4.5-12.375V.88953h8.25V21.3895c-.002 2.5116.785 4.9604 2.25 7zm58.375-22.74985c3.5 3.25 5.375 7.74995 5.375 13.49995s-1.75 10.375-5.125 13.75-8.75 5-15.75 5h-12.875V.76465h13.125c6.625 0 11.75 1.625 15.25 4.875zm-6 22.12495c2-1.875 3-4.75 3-8.375s-1-6.5-3-8.375c-2-1.87495-5.125-2.99995-9.375-2.99995h-4.625V30.6396h5.25c3.174.1691 6.295-.8566 8.75-2.875zm58.5-26.99995h8.25V37.8896h-8.25l-17.75-23.25v23.25h-8.25V.76465h7.75l18.25 23.87495V.76465zm43.875 37.12495l-3.5-8h-15.625l-3.5 8h-8.875l16-37.12495h8l16 37.12495h-8.5zm-11.125-26l-4.625 10.75h9.25l-4.625-10.75zm37.375-3.87507V38.0145h-8.25V8.01453h-10.5v-7.125h29.375v7.125h-10.625zm16.5-7.24988h8.25V37.8896h-8.25V.76465zm31.125 23.62495l9.5-23.62495h9L457.286 37.8896h-7L435.411.76465h9l9.25 23.62495zM503.286.76465v7.375h-18.5v7.62495h16.625v7.125h-16.625v7.75h19.125v7.375h-27.375V.88965h26.75v-.125zM11.9111 53.3016H.53613v26.7125H27.1611V68.5266h-15.25v-15.225zm57.25.125v15.1h-15.25v11.4875h26.625V53.3016h-11.5l.125.125zM.53613 26.7267H12.0361l-.125-.125v-15.1h15.25V.01416H.53613V26.7267zM53.9111.01416V11.5017h15.25v15.225h11.375V.01416h-26.625z"/><path d="M52.4111 26.7267l-15.25-15.225h16.75V.01416h-26.75V11.5017l15.25 15.225h10zm-13.75 26.5749h-10l12.625 12.6125 2.5 2.6125h-16.625v11.4875h26.75V68.4016l-7.625-7.5-7.625-7.6zm30.5-26.5749v16.6l-2.625-2.625-12.625-12.6125v10.1125l7.5 7.5 7.625 7.6125h11.5V26.7267h-11.375zm-42 15.1l-15.125-15.1H.53613v26.575H11.9111v-16.6l15.25 15.2375V41.8267z" opacity=".65"/><path d="M220.763 69.3642h4.38v2.58c-1.02.69-2.22 1.08-3.42 1.08-3.21 0-5.94-2.76-5.94-6.03 0-3.24 2.73-6 5.94-6 1.77 0 3.54.84 4.65 2.22l3.75-3.33c-2.07-2.22-5.25-3.54-8.4-3.54-6.09 0-11.22 4.86-11.22 10.65s5.13 10.68 11.22 10.68c3.15 0 6.33-1.32 8.4-3.57v-8.61h-9.36v3.87zm20.068 3.36v-16.02h-5.13v20.61h15.06v-4.59h-9.93zm24.846 4.95c6 0 11.07-4.89 11.07-10.68s-5.07-10.65-11.07-10.65c-6.03 0-11.1 4.86-11.1 10.65s5.07 10.68 11.1 10.68zm0-4.65c-3.15 0-5.82-2.76-5.82-6.03 0-3.24 2.67-6 5.82-6 3.15 0 5.79 2.76 5.79 6 0 3.27-2.64 6.03-5.79 6.03zm24.365 4.65c5.1 0 8.25-2.58 8.25-6.72 0-3.87-2.97-5.19-7.59-6.18-3.06-.66-4.05-1.08-4.05-2.34 0-1.02.93-1.8 2.58-1.8 1.92 0 3.99.75 5.88 2.19l2.61-3.66c-2.19-1.8-4.89-2.82-8.37-2.82-4.68 0-7.86 2.64-7.86 6.6 0 4.14 3.27 5.34 7.68 6.33 3 .72 3.96.99 3.96 2.22 0 1.11-.99 1.89-2.91 1.89-2.52 0-4.77-.96-6.78-2.61l-2.91 3.45c2.52 2.25 5.85 3.45 9.51 3.45zm21.451 0c5.1 0 8.25-2.58 8.25-6.72 0-3.87-2.97-5.19-7.59-6.18-3.06-.66-4.05-1.08-4.05-2.34 0-1.02.93-1.8 2.58-1.8 1.92 0 3.99.75 5.88 2.19l2.61-3.66c-2.19-1.8-4.89-2.82-8.37-2.82-4.68 0-7.86 2.64-7.86 6.6 0 4.14 3.27 5.34 7.68 6.33 3 .72 3.96.99 3.96 2.22 0 1.11-.99 1.89-2.91 1.89-2.52 0-4.77-.96-6.78-2.61l-2.91 3.45c2.52 2.25 5.85 3.45 9.51 3.45zm28.052-.36h5.76l-8.16-20.61h-5.76l-8.16 20.61h5.76l1.26-3.15h8.04l1.26 3.15zm-7.77-7.02l2.49-6.33 2.49 6.33h-4.98zm35.704 7.02l-4.89-6.93c2.91-1.02 4.77-3.45 4.77-6.6 0-4.17-3.27-7.08-7.83-7.08h-9.57v20.61h5.13v-6.45h2.04l4.53 6.45h5.82zm-12.39-15.93h3.99c1.77 0 3 .96 3 2.4s-1.23 2.4-3 2.4h-3.99v-4.8zm23.939 15.93h5.16v-7.11l7.98-13.5h-5.7l-4.86 8.7-4.65-8.7h-5.91l7.98 13.5v7.11z"/></g><defs><clipPath id="clip0_7112_17510"><path fill="#fff" d="M0 0h504.125v80H0z" transform="translate(.536 .014)"/></clipPath></defs></svg>