<svg xmlns="http://www.w3.org/2000/svg" role="img" viewBox="-4.12 -3.87 214.24 40.24"><path fill="#00CEFF" d="M41.223 25.334H83.223V27.834H41.223z"/><path d="M92.9223 26.9449H94.6013V27.9339C94.2103 28.1984 93.7503 28.3479 93.2903 28.3479C92.0598 28.3479 91.0133 27.2899 91.0133 26.0364C91.0133 24.7944 92.0598 23.7364 93.2903 23.7364C93.9688 23.7364 94.6473 24.0584 95.0728 24.5874L96.5103 23.3109C95.7168 22.4599 94.4978 21.9539 93.2903 21.9539C90.9558 21.9539 88.9893 23.8169 88.9893 26.0364C88.9893 28.2559 90.9558 30.1304 93.2903 30.1304C94.4978 30.1304 95.7168 29.6244 96.5103 28.7619V25.4614H92.9223V26.9449ZM100.615 28.2329V22.0919H98.6485V29.9924H104.422V28.2329H100.615ZM110.139 30.1304C112.439 30.1304 114.383 28.2559 114.383 26.0364C114.383 23.8169 112.439 21.9539 110.139 21.9539C107.828 21.9539 105.884 23.8169 105.884 26.0364C105.884 28.2559 107.828 30.1304 110.139 30.1304ZM110.139 28.3479C108.932 28.3479 107.908 27.2899 107.908 26.0364C107.908 24.7944 108.932 23.7364 110.139 23.7364C111.347 23.7364 112.359 24.7944 112.359 26.0364C112.359 27.2899 111.347 28.3479 110.139 28.3479ZM119.479 30.1304C121.434 30.1304 122.642 29.1414 122.642 27.5544C122.642 26.0709 121.503 25.5649 119.732 25.1854C118.559 24.9324 118.18 24.7714 118.18 24.2884C118.18 23.8974 118.536 23.5984 119.169 23.5984C119.905 23.5984 120.698 23.8859 121.423 24.4379L122.423 23.0349C121.584 22.3449 120.549 21.9539 119.215 21.9539C117.421 21.9539 116.202 22.9659 116.202 24.4839C116.202 26.0709 117.455 26.5309 119.146 26.9104C120.296 27.1864 120.664 27.2899 120.664 27.7614C120.664 28.1869 120.284 28.4859 119.548 28.4859C118.582 28.4859 117.72 28.1179 116.949 27.4854L115.834 28.8079C116.8 29.6704 118.076 30.1304 119.479 30.1304ZM127.702 30.1304C129.657 30.1304 130.865 29.1414 130.865 27.5544C130.865 26.0709 129.726 25.5649 127.955 25.1854C126.782 24.9324 126.403 24.7714 126.403 24.2884C126.403 23.8974 126.759 23.5984 127.392 23.5984C128.128 23.5984 128.921 23.8859 129.646 24.4379L130.646 23.0349C129.807 22.3449 128.772 21.9539 127.438 21.9539C125.644 21.9539 124.425 22.9659 124.425 24.4839C124.425 26.0709 125.678 26.5309 127.369 26.9104C128.519 27.1864 128.887 27.2899 128.887 27.7614C128.887 28.1869 128.507 28.4859 127.771 28.4859C126.805 28.4859 125.943 28.1179 125.172 27.4854L124.057 28.8079C125.023 29.6704 126.299 30.1304 127.702 30.1304ZM138.455 29.9924H140.663L137.535 22.0919H135.327L132.199 29.9924H134.407L134.89 28.7849H137.972L138.455 29.9924ZM135.477 27.3014L136.431 24.8749L137.386 27.3014H135.477ZM149.163 29.9924L147.289 27.3359C148.404 26.9449 149.117 26.0134 149.117 24.8059C149.117 23.2074 147.864 22.0919 146.116 22.0919H142.447V29.9924H144.414V27.5199H145.196L146.932 29.9924H149.163ZM144.414 23.8859H145.943C146.622 23.8859 147.093 24.2539 147.093 24.8059C147.093 25.3579 146.622 25.7259 145.943 25.7259H144.414V23.8859ZM153.591 29.9924H155.569V27.2669L158.628 22.0919H156.443L154.58 25.4269L152.797 22.0919H150.532L153.591 27.2669V29.9924Z"/><path fill="#00CEFF" d="M164.164 25.334H206.164V27.834H164.164z"/><path d="M49.0549 12.5553C49.8469 12.5706 50.6313 12.4021 51.3433 12.0635 52.0554 11.725 52.6747 11.2262 53.1502 10.6083L55.3514 12.8049C53.6109 14.702 51.6144 15.6505 49.2597 15.6505 48.1993 15.692 47.1413 15.5251 46.1484 15.1597 45.1556 14.7944 44.2482 14.238 43.4803 13.5238 42.7335 12.8223 42.1469 11.975 41.7588 11.0374 41.3707 10.0997 41.1898 9.09277 41.2279 8.08229 41.1987 7.06101 41.3886 6.04504 41.7852 5.09943 42.1819 4.15382 42.7767 3.2994 43.5315 2.59087 44.3433 1.84388 45.3019 1.26505 46.3495.88931 47.397.513573 48.5118.348723 49.6264.404708 50.7411.460694 51.8326.736355 52.835 1.21505 53.8374 1.69375 54.73 2.36556 55.4589 3.18994L53.36 5.53627C52.8977 4.92915 52.2953 4.43659 51.6017 4.09838 50.9081 3.76017 50.1427 3.58579 49.3672 3.58931 48.1584 3.56663 46.9864 3.99523 46.091 4.78744 45.6263 5.20371 45.2615 5.71482 45.0226 6.28434 44.7837 6.85386 44.6766 7.46777 44.7088 8.08229 44.6765 8.69551 44.7733 9.30868 44.9934 9.88396 45.2136 10.4592 45.5522 10.9844 45.9886 11.4271 46.8326 12.1598 47.925 12.5617 49.0549 12.5553zM58.0186 15.4509V.624023H61.3971V12.5254H67.8983V15.4708L58.0186 15.4509zM82.7435 13.404C81.2053 14.8151 79.1731 15.6008 77.0614 15.6008 74.9496 15.6008 72.9174 14.8151 71.3792 13.404 70.6291 12.7025 70.0369 11.8564 69.6403 10.9196 69.2437 9.98279 69.0514 8.97573 69.0756 7.9625 69.0467 6.94864 69.2368 5.94019 69.6337 5.0027 70.0305 4.06521 70.6253 3.21965 71.3792 2.521 72.9174 1.1099 74.9496.324219 77.0614.324219 79.1731.324219 81.2053 1.1099 82.7435 2.521 83.4936 3.22249 84.0858 4.06856 84.4824 5.00538 84.879 5.9422 85.0713 6.94926 85.0471 7.9625 85.076 8.97635 84.8859 9.9848 84.489 10.9223 84.0922 11.8598 83.4974 12.7053 82.7435 13.404zM81.5661 7.9625C81.5756 6.70804 81.1004 5.49609 80.2352 4.5678 79.8277 4.12792 79.3301 3.77629 78.7746 3.53562 78.2191 3.29495 77.618 3.1706 77.0102 3.1706 76.4023 3.1706 75.8012 3.29495 75.2457 3.53562 74.6902 3.77629 74.1926 4.12792 73.7852 4.5678 72.9101 5.49017 72.4334 6.70606 72.4542 7.9625 72.4447 9.21695 72.9199 10.4289 73.7852 11.3572 74.1926 11.7971 74.6902 12.1487 75.2457 12.3894 75.8012 12.63 76.4023 12.7544 77.0102 12.7544 77.618 12.7544 78.2191 12.63 78.7746 12.3894 79.3301 12.1487 79.8277 11.7971 80.2352 11.3572 80.6785 10.9069 81.0247 10.3745 81.2533 9.79136 81.482 9.20827 81.5883 8.58638 81.5661 7.9625zM91.9577 11.6567C92.228 11.9981 92.5781 12.2714 92.9789 12.4538 93.3797 12.6362 93.8194 12.7224 94.2613 12.705 94.6966 12.7276 95.1308 12.6435 95.5243 12.4603 95.9177 12.2772 96.2579 12.0009 96.5137 11.6567 97.1016 10.8413 97.3902 9.85625 97.3327 8.86104V.673828H100.711V8.96088C100.711 11.1075 100.097 12.755 98.8685 13.9032 98.2499 14.4816 97.5194 14.934 96.7196 15.234 95.9198 15.534 95.0667 15.6756 94.2101 15.6504 93.3458 15.6756 92.485 15.5342 91.6768 15.2344 90.8687 14.9346 90.1291 14.4822 89.5006 13.9032 88.272 12.755 87.6577 11.1075 87.6577 8.96088V.673828H91.0312V8.86104C91.0316 9.86464 91.3557 10.8427 91.9577 11.6567zM115.864 2.57098C117.297 3.86895 118.065 5.66614 118.065 7.96255 118.065 10.259 117.348 12.1061 115.966 13.454 114.584 14.8019 112.383 15.4509 109.516 15.4509H104.244V.624023H109.619C112.332.624023 114.431 1.27301 115.864 2.57098zM113.407 11.4072C114.226 10.6583 114.635 9.51014 114.635 8.0624 114.635 6.61466 114.226 5.46646 113.407 4.71763 112.588 3.9688 111.308 3.5195 109.567 3.5195H107.673V12.5554H109.823C111.123 12.6229 112.401 12.2133 113.407 11.4072zM137.364.624023H140.743V15.4509H137.364L130.095 6.16536V15.4509H126.716V.624023H129.89L137.364 10.1591V.624023zM155.332 15.4509L153.898 12.2558H147.5L146.066 15.4509H142.432L148.984.624023H152.26L158.813 15.4509H155.332zM150.776 5.06708L148.882 9.36037H152.67L150.776 5.06708zM166.082 3.5394V15.5207H162.698V3.5394H158.398V.693848H170.428V3.5394H166.082zM172.839.624023H176.217V15.4509H172.839V.624023zM185.585 10.0593L189.476.624023H193.162L187.07 15.4509H184.198L178.106.624023H181.792L185.585 10.0593zM205.908.624023V3.56942H198.332V6.61466H205.14V9.46022H198.332V12.5554H206.164V15.5208H194.948V.673946H205.903L205.908.624023zM4.67787 21.6409H.0195312V32.3242H10.9231V27.7513H4.67787V21.6409zM28.1232 21.6908V27.7513H21.8779V32.3441H32.7815V21.6409H28.0669L28.1232 21.6908zM.0195312 11.0075H4.72906L4.67787 10.9576V4.91704H10.9231V.324219H.0195312V11.0075zM21.8779.324219V4.91704H28.1232V11.0075H32.7815V.324219H21.8779z"/><g opacity=".8"><path d="M21.2636 11.0075L15.0183 4.91704H21.8779V.324219H10.9231V4.91704L17.1683 11.0075H21.2636zM15.6326 21.6409H11.5374L16.7076 26.683 17.7314 27.7314H10.9231V32.3242H21.8779V27.6814L18.7553 24.6861 15.6326 21.6409zM28.1232 11.0076V17.6472L27.0431 16.5988 21.8728 11.5567V15.6004L24.9442 18.5957 28.0669 21.6409H32.7764V11.0076H28.1232zM10.9231 17.0481L4.72906 11.0076H.0195312V21.6409H4.67787V15.0013L10.9231 21.0918V17.0481z" opacity=".8"/></g></svg>